{"glyphs":{"0":{"ha":817,"x_min":54,"x_max":763,"o":"m 410 -14 q 271 13 336 -14 q 158 99 206 40 q 82 248 110 157 q 54 465 54 339 q 81 676 54 586 q 153 826 107 767 q 266 915 200 885 q 410 944 332 944 q 548 917 483 944 q 660 833 613 890 q 735 686 707 776 q 763 471 763 596 q 737 258 763 350 q 665 106 711 167 q 553 16 618 46 q 410 -14 488 -14 m 422 104 q 578 197 519 104 q 638 472 638 290 q 574 746 638 663 q 422 829 510 829 q 265 740 324 829 q 206 465 206 651 q 269 185 206 267 q 422 104 332 104 z "},"1":{"ha":572,"x_min":53,"x_max":447,"o":"m 365 940 l 447 940 l 447 0 l 306 0 l 306 788 l 78 665 l 53 732 l 365 940 z "},"2":{"ha":792,"x_min":94,"x_max":722,"o":"m 722 4 l 97 4 l 97 83 q 273 240 190 169 q 417 374 356 310 q 513 503 478 439 q 549 639 549 567 q 506 772 549 718 q 375 826 463 826 q 276 804 318 826 q 212 744 235 782 q 184 658 189 707 q 193 557 179 610 l 113 557 q 97 691 90 622 q 140 815 104 760 q 241 907 175 871 q 403 943 307 943 q 624 863 547 943 q 700 654 700 782 q 667 505 700 574 q 577 373 633 436 q 445 247 521 310 q 285 115 369 185 l 722 115 l 722 4 z "},"3":{"ha":783,"x_min":69,"x_max":703,"o":"m 703 260 q 615 59 703 132 q 383 -14 528 -14 q 147 59 233 -14 q 72 288 60 132 l 153 288 q 206 153 151 203 q 351 103 261 103 q 497 149 443 103 q 551 279 551 196 q 489 400 551 367 q 331 433 426 433 l 244 433 l 244 529 l 322 529 q 466 558 404 529 q 528 672 528 588 q 483 790 528 747 q 354 832 438 832 q 216 781 261 832 q 172 651 171 731 l 94 651 q 108 777 89 722 q 167 869 128 832 q 263 925 206 906 q 388 944 319 944 q 594 881 514 944 q 675 699 675 818 q 618 552 675 603 q 482 482 561 501 q 638 414 574 464 q 703 260 703 364 z "},"4":{"ha":813,"x_min":49,"x_max":779,"o":"m 779 257 l 615 257 l 615 0 l 475 0 l 475 257 l 49 257 l 49 353 l 481 936 l 615 936 l 615 368 l 779 368 l 779 257 m 174 368 l 475 368 l 475 776 l 174 368 z "},"5":{"ha":785,"x_min":88,"x_max":715,"o":"m 715 321 q 632 78 715 169 q 400 -14 549 -14 q 274 3 333 -14 q 171 54 214 19 q 106 144 128 89 q 90 275 83 199 l 165 275 q 218 149 165 196 q 367 103 271 103 q 516 162 461 103 q 571 317 571 221 q 516 461 571 410 q 371 513 461 513 q 288 499 324 513 q 228 468 251 485 l 228 468 l 228 468 q 198 442 210 454 q 182 424 186 429 l 111 450 l 126 931 l 657 931 l 657 819 l 244 819 l 231 528 q 307 583 257 556 q 435 610 357 610 q 642 533 568 610 q 715 321 715 456 z "},"6":{"ha":796,"x_min":65,"x_max":724,"o":"m 425 944 q 565 922 508 944 q 656 860 622 899 q 701 773 689 822 q 711 672 714 724 l 635 672 q 624 724 633 696 q 594 776 615 753 q 538 816 574 800 q 447 832 503 832 q 267 738 331 832 q 204 460 204 644 q 205 421 204 443 q 207 375 206 399 q 290 522 222 468 q 465 576 358 576 q 565 560 518 576 q 647 508 613 543 q 703 420 682 474 q 724 294 724 367 q 700 161 724 219 q 635 64 676 103 q 539 6 594 25 q 419 -14 483 -14 q 149 111 233 -14 q 65 451 65 236 q 87 644 65 554 q 152 801 108 735 q 264 906 196 868 q 425 944 332 944 m 421 481 q 283 426 329 481 q 236 289 236 371 q 281 156 236 210 q 414 101 326 101 q 544 155 496 101 q 593 293 593 208 q 544 434 593 388 q 421 481 494 481 z "},"7":{"ha":725,"x_min":69,"x_max":676,"o":"m 676 931 l 676 853 q 408 376 486 590 q 319 0 331 161 l 171 0 q 267 393 181 189 q 539 819 353 597 l 69 819 l 69 931 l 676 931 z "},"8":{"ha":804,"x_min":71,"x_max":735,"o":"m 403 -14 q 156 56 242 -14 q 71 253 71 125 q 128 412 71 353 q 272 490 185 471 q 143 567 188 511 q 99 707 99 624 q 174 879 99 814 q 401 944 249 944 q 631 879 554 944 q 707 707 707 814 q 662 567 707 624 q 533 490 617 511 q 678 412 621 471 q 735 253 735 353 q 648 56 735 125 q 403 -14 561 -14 m 403 536 q 524 574 478 536 q 569 686 569 611 q 526 794 569 754 q 403 835 482 835 q 279 794 322 835 q 236 686 236 754 q 282 574 236 611 q 403 536 328 536 m 403 96 q 535 140 481 96 q 590 274 590 183 q 535 401 590 361 q 403 440 481 440 q 272 400 328 440 q 215 274 215 360 q 269 139 215 182 q 403 96 322 96 z "},"9":{"ha":796,"x_min":79,"x_max":738,"o":"m 378 -14 q 238 9 294 -14 q 147 70 181 32 q 101 158 114 108 q 92 258 89 207 l 168 258 q 178 206 169 235 q 208 154 188 178 q 265 115 229 131 q 356 99 300 99 q 535 192 472 99 q 599 471 599 286 q 598 510 599 488 q 596 556 597 532 q 513 408 581 463 q 338 354 444 354 q 238 371 285 354 q 156 422 190 388 q 100 510 121 457 q 79 636 79 564 q 103 769 79 711 q 167 867 126 828 q 264 925 208 906 q 383 944 319 944 q 653 819 569 944 q 738 479 738 694 q 716 286 738 376 q 651 129 694 196 q 539 24 607 63 q 378 -14 471 -14 m 382 450 q 520 505 474 450 q 567 642 567 560 q 522 775 567 721 q 389 829 476 829 q 258 776 307 829 q 210 638 210 722 q 259 497 210 543 q 382 450 308 450 z "}," ":{"ha":319,"x_min":0,"x_max":0,"o":""},"A":{"ha":861,"x_min":21,"x_max":833,"o":"m 139 0 l 21 0 l 363 960 l 511 960 l 833 0 l 665 0 l 585 257 l 228 257 l 139 0 m 263 361 l 553 361 l 414 801 l 263 361 z "},"B":{"ha":821,"x_min":111,"x_max":775,"o":"m 111 958 l 404 958 q 535 946 475 958 q 638 904 594 933 q 706 829 682 875 q 731 717 731 783 q 668 563 731 613 q 518 497 606 514 q 703 430 631 483 q 775 261 775 376 q 750 142 775 192 q 682 60 725 92 q 582 15 639 29 q 461 0 525 0 l 111 0 l 111 958 m 381 854 l 254 854 l 254 543 l 372 543 q 451 549 413 543 q 521 573 490 556 q 570 620 551 590 q 589 697 589 650 q 530 822 589 789 q 381 854 471 854 m 415 443 l 254 443 l 254 104 l 429 104 q 506 113 469 104 q 572 140 543 121 q 617 193 600 160 q 633 275 633 226 q 570 406 633 369 q 415 443 507 443 z "},"C":{"ha":853,"x_min":56,"x_max":804,"o":"m 56 471 q 89 684 56 590 q 180 841 122 778 q 315 937 238 904 q 481 969 393 969 q 631 940 571 969 q 727 871 692 911 q 776 785 763 831 q 788 710 790 740 l 714 710 q 699 745 711 722 q 661 790 686 768 q 597 829 636 813 q 500 846 557 846 q 384 822 438 846 q 292 750 331 797 q 231 632 253 703 q 208 471 208 561 q 231 306 208 376 q 291 192 253 236 q 381 125 329 147 q 493 103 433 103 q 601 121 556 103 q 675 165 646 139 q 719 218 704 190 q 736 264 733 246 l 804 264 q 788 181 804 229 q 734 90 772 133 q 631 17 696 47 q 471 -14 567 -14 q 307 15 383 -14 q 175 104 231 44 q 88 256 119 164 q 56 471 56 347 z "},"D":{"ha":922,"x_min":111,"x_max":867,"o":"m 111 958 l 374 958 q 593 922 500 958 q 747 823 686 886 q 837 672 807 760 q 867 485 867 585 q 825 252 867 346 q 715 103 783 158 q 557 24 646 47 q 374 0 468 0 l 111 0 l 111 958 m 375 854 l 254 854 l 254 104 l 375 104 q 624 201 532 104 q 715 485 715 299 q 695 633 715 565 q 633 751 675 701 q 527 827 592 800 q 375 854 463 854 z "},"E":{"ha":736,"x_min":111,"x_max":681,"o":"m 601 451 l 254 451 l 254 108 l 681 108 l 681 4 l 111 4 l 111 956 l 671 956 l 671 851 l 254 851 l 254 556 l 601 556 l 601 451 z "},"F":{"ha":674,"x_min":111,"x_max":667,"o":"m 576 433 l 254 433 l 254 0 l 111 0 l 111 956 l 667 956 l 667 851 l 254 851 l 254 538 l 576 538 l 576 433 z "},"G":{"ha":896,"x_min":56,"x_max":833,"o":"m 56 475 q 92 690 56 597 q 188 845 128 783 q 328 938 249 907 q 494 969 408 969 q 648 941 586 969 q 747 872 710 913 q 797 788 783 832 q 808 710 811 743 l 735 710 q 719 745 732 722 q 679 790 706 768 q 611 829 653 813 q 511 846 569 846 q 394 822 450 846 q 298 750 339 797 q 233 632 257 703 q 208 467 208 561 q 290 193 208 289 q 504 97 371 97 q 591 108 556 97 q 649 133 626 118 q 685 163 672 147 q 704 190 699 179 l 704 372 l 543 372 l 543 476 l 833 476 l 833 171 q 790 109 817 142 q 722 49 763 76 q 626 4 682 22 q 493 -14 569 -14 q 313 17 394 -14 q 175 110 232 49 q 87 263 118 171 q 56 475 56 356 z "},"H":{"ha":949,"x_min":111,"x_max":838,"o":"m 111 958 l 254 958 l 254 554 l 694 554 l 694 958 l 838 958 l 838 0 l 694 0 l 694 450 l 254 450 l 254 0 l 111 0 l 111 958 z "},"I":{"ha":379,"x_min":118,"x_max":261,"o":"m 118 958 l 261 958 l 261 0 l 118 0 l 118 958 z "},"J":{"ha":608,"x_min":21,"x_max":511,"o":"m 21 250 l 90 250 q 124 150 93 196 q 228 104 154 104 q 340 167 311 104 q 369 339 369 231 l 369 958 l 511 958 l 511 336 q 499 197 511 261 q 458 86 486 133 q 381 13 429 39 q 263 -14 333 -14 q 144 8 192 -14 q 70 67 97 31 q 32 151 43 103 q 21 250 21 199 z "},"K":{"ha":842,"x_min":113,"x_max":824,"o":"m 113 0 l 113 958 l 256 958 l 256 510 l 647 958 l 778 958 l 435 567 l 824 0 l 646 0 l 338 456 l 256 363 l 256 0 l 113 0 z "},"L":{"ha":701,"x_min":111,"x_max":688,"o":"m 111 958 l 254 958 l 254 111 l 688 111 l 688 4 l 111 4 l 111 958 z "},"M":{"ha":1139,"x_min":97,"x_max":1042,"o":"m 213 0 l 97 0 l 133 963 l 285 963 l 583 231 l 883 963 l 1006 963 l 1042 0 l 919 0 l 892 707 l 611 17 l 528 17 l 240 722 l 213 0 z "},"N":{"ha":939,"x_min":111,"x_max":828,"o":"m 828 958 l 828 -7 l 713 -7 l 224 731 l 224 0 l 111 0 l 111 958 l 251 958 l 714 254 l 714 958 l 828 958 z "},"O":{"ha":972,"x_min":56,"x_max":917,"o":"m 56 478 q 88 683 56 592 q 176 838 119 775 q 313 935 233 901 q 489 969 393 969 q 649 941 571 969 q 785 854 726 913 q 881 705 844 796 q 917 490 917 614 q 887 280 917 374 q 802 122 857 186 q 667 22 747 57 q 489 -14 588 -14 q 322 16 401 -14 q 184 106 243 46 q 90 260 125 167 q 56 478 56 353 m 789 485 q 765 642 789 575 q 701 754 740 710 q 610 821 661 799 q 504 843 558 843 q 292 746 375 843 q 208 478 208 649 q 233 310 208 381 q 300 193 258 239 q 395 126 342 147 q 504 104 449 104 q 616 128 564 104 q 706 201 668 153 q 767 320 744 249 q 789 485 789 392 z "},"P":{"ha":782,"x_min":111,"x_max":757,"o":"m 111 958 l 431 958 q 561 940 501 958 q 665 886 621 922 q 733 797 708 850 q 757 676 757 744 q 731 542 757 599 q 662 451 706 486 q 559 399 618 415 q 435 382 500 382 l 254 382 l 254 0 l 111 0 l 111 958 m 394 854 l 254 854 l 254 486 l 404 486 q 483 495 444 486 q 550 526 521 504 q 597 583 579 547 q 615 671 615 618 q 551 812 615 769 q 394 854 488 854 z "},"Q":{"ha":972,"x_min":56,"x_max":917,"o":"m 56 478 q 88 683 56 592 q 176 838 119 775 q 313 935 233 901 q 489 969 393 969 q 649 941 571 969 q 785 854 726 913 q 881 705 844 796 q 917 490 917 614 q 824 151 917 283 q 569 -7 731 19 q 612 -92 575 -64 q 717 -121 649 -121 q 796 -100 765 -121 q 829 -40 826 -79 l 883 -40 q 828 -162 883 -119 q 683 -206 772 -206 q 501 -156 568 -206 q 429 -11 435 -106 q 283 33 351 -1 q 164 127 214 67 q 85 276 114 188 q 56 478 56 364 m 789 485 q 765 642 789 575 q 701 754 740 710 q 610 821 661 799 q 504 843 558 843 q 292 746 375 843 q 208 478 208 649 q 233 310 208 381 q 300 193 258 239 q 395 126 342 147 q 504 104 449 104 q 616 128 564 104 q 706 201 668 153 q 767 320 744 249 q 789 485 789 392 z "},"R":{"ha":843,"x_min":111,"x_max":821,"o":"m 821 46 q 776 6 803 21 q 710 -10 749 -10 q 592 46 621 -10 q 556 244 563 101 q 510 379 550 342 q 388 417 471 417 l 254 417 l 254 0 l 111 0 l 111 958 l 421 958 q 552 944 492 958 q 656 899 613 929 q 724 822 699 869 q 749 711 749 775 q 681 542 749 599 q 518 469 614 485 q 655 409 603 460 q 710 251 707 358 q 724 102 714 139 q 774 65 735 65 q 793 68 783 65 q 808 75 803 71 l 821 46 m 396 854 l 254 854 l 254 517 l 385 517 q 465 525 425 517 q 536 553 504 533 q 588 605 568 572 q 607 685 607 638 q 547 814 607 774 q 396 854 486 854 z "},"S":{"ha":768,"x_min":53,"x_max":714,"o":"m 53 283 l 129 283 q 155 195 133 232 q 208 135 176 158 q 280 102 239 113 q 364 92 321 92 q 503 126 446 92 q 561 246 561 160 q 499 365 561 328 q 332 432 438 401 q 153 525 221 464 q 85 704 85 586 q 172 899 85 829 q 393 969 258 969 q 615 899 533 969 q 686 703 696 828 l 611 703 q 548 824 606 782 q 411 865 490 865 q 282 828 332 865 q 232 715 232 790 q 292 609 232 644 q 453 546 353 574 q 644 447 574 511 q 714 261 714 382 q 688 143 714 194 q 619 57 663 92 q 515 4 575 22 q 386 -14 454 -14 q 143 61 233 -14 q 53 283 53 136 z "},"T":{"ha":768,"x_min":0,"x_max":768,"o":"m 456 0 l 313 0 l 313 849 l 0 849 l 0 956 l 768 956 l 768 849 l 456 849 l 456 0 z "},"U":{"ha":914,"x_min":97,"x_max":817,"o":"m 97 435 l 97 958 l 250 958 l 250 461 q 297 206 250 303 q 485 108 344 108 q 596 133 553 108 q 663 203 639 158 q 697 312 688 247 q 706 456 706 376 l 706 958 l 817 958 l 817 443 q 799 262 817 346 q 742 117 782 178 q 635 21 701 56 q 469 -14 568 -14 q 284 21 357 -14 q 170 116 211 56 q 113 258 129 176 q 97 435 97 340 z "},"V":{"ha":838,"x_min":4,"x_max":844,"o":"m 4 958 l 172 958 l 446 158 l 729 958 l 844 958 l 501 -4 l 349 -4 l 4 958 z "},"W":{"ha":1289,"x_min":18,"x_max":1283,"o":"m 18 958 l 174 958 l 382 175 l 624 954 l 729 954 l 958 183 l 1163 958 l 1283 958 l 1022 -4 l 872 -4 l 656 688 l 435 -4 l 285 -4 l 18 958 z "},"X":{"ha":826,"x_min":14,"x_max":813,"o":"m 24 958 l 206 958 l 426 600 l 656 958 l 782 958 l 488 513 l 813 0 l 629 0 l 390 400 l 142 0 l 14 0 l 322 485 l 24 958 z "},"Y":{"ha":765,"x_min":-4,"x_max":778,"o":"m 463 396 l 463 0 l 319 0 l 319 400 l -4 958 l 172 958 l 417 528 l 658 958 l 778 958 l 463 396 z "},"Z":{"ha":768,"x_min":56,"x_max":713,"o":"m 56 100 l 526 851 l 78 851 l 78 956 l 701 956 l 701 860 l 228 108 l 713 108 l 713 4 l 56 4 l 56 100 z "},"À":{"ha":861,"x_min":21,"x_max":833,"o":"m 139 0 l 21 0 l 363 960 l 511 960 l 833 0 l 665 0 l 585 257 l 228 257 l 139 0 m 263 361 l 553 361 l 414 801 l 263 361 m 264 1122 l 339 1215 l 568 1051 l 532 1014 l 264 1122 z "},"Á":{"ha":861,"x_min":21,"x_max":833,"o":"m 139 0 l 21 0 l 363 960 l 511 960 l 833 0 l 665 0 l 585 257 l 228 257 l 139 0 m 263 361 l 553 361 l 414 801 l 263 361 m 311 1051 l 540 1215 l 615 1122 l 347 1014 l 311 1051 z "},"Â":{"ha":861,"x_min":21,"x_max":833,"o":"m 139 0 l 21 0 l 363 960 l 511 960 l 833 0 l 665 0 l 585 257 l 228 257 l 139 0 m 263 361 l 553 361 l 414 801 l 263 361 m 207 1060 l 400 1213 l 464 1213 l 658 1060 l 625 1013 l 432 1113 l 239 1013 l 207 1060 z "},"Ã":{"ha":861,"x_min":21,"x_max":833,"o":"m 139 0 l 21 0 l 363 960 l 511 960 l 833 0 l 665 0 l 585 257 l 228 257 l 139 0 m 263 361 l 553 361 l 414 801 l 263 361 m 531 1117 q 581 1147 571 1117 q 583 1211 592 1176 l 619 1211 q 619 1081 646 1135 q 518 1026 593 1026 q 456 1041 479 1026 q 413 1073 432 1056 q 375 1105 394 1090 q 325 1119 356 1119 q 275 1091 286 1119 q 272 1026 264 1063 l 236 1026 q 237 1158 210 1106 q 339 1210 264 1210 q 404 1195 379 1210 q 448 1163 429 1181 q 485 1131 467 1146 q 531 1117 503 1117 z "},"Ä":{"ha":861,"x_min":21,"x_max":833,"o":"m 139 0 l 21 0 l 363 960 l 511 960 l 833 0 l 665 0 l 585 257 l 228 257 l 139 0 m 263 361 l 553 361 l 414 801 l 263 361 m 256 1042 l 256 1172 l 385 1172 l 385 1042 l 256 1042 m 497 1042 l 497 1172 l 626 1172 l 626 1042 l 497 1042 z "},"Ā":{"ha":861,"x_min":21,"x_max":833,"o":"m 139 0 l 21 0 l 363 960 l 511 960 l 833 0 l 665 0 l 585 257 l 228 257 l 139 0 m 263 361 l 553 361 l 414 801 l 263 361 m 242 1164 l 625 1164 l 625 1078 l 242 1078 l 242 1164 z "},"Ă":{"ha":861,"x_min":21,"x_max":833,"o":"m 139 0 l 21 0 l 363 960 l 511 960 l 833 0 l 665 0 l 585 257 l 228 257 l 139 0 m 263 361 l 553 361 l 414 801 l 263 361 m 238 1217 l 288 1217 q 324 1150 293 1185 q 442 1115 354 1115 q 557 1150 525 1115 q 594 1217 589 1185 l 644 1217 q 638 1147 647 1182 q 604 1083 628 1111 q 540 1038 581 1056 q 442 1021 500 1021 q 343 1038 383 1021 q 278 1083 303 1056 q 244 1147 254 1111 q 238 1217 235 1182 z "},"Å":{"ha":861,"x_min":21,"x_max":833,"o":"m 139 0 l 21 0 l 363 960 l 511 960 l 833 0 l 665 0 l 585 257 l 228 257 l 139 0 m 263 361 l 553 361 l 414 801 l 263 361 m 286 1132 q 327 1232 286 1192 q 432 1272 368 1272 q 539 1232 499 1272 q 579 1132 579 1192 q 539 1033 579 1074 q 432 993 499 993 q 327 1033 368 993 q 286 1132 286 1074 m 504 1122 q 484 1174 504 1153 q 433 1196 464 1196 q 381 1174 401 1196 q 361 1122 361 1153 q 381 1071 361 1092 q 433 1050 401 1050 q 484 1071 464 1050 q 504 1122 504 1092 z "},"Ǻ":{"ha":861,"x_min":21,"x_max":833,"o":"m 139 0 l 21 0 l 363 960 l 511 960 l 833 0 l 665 0 l 585 257 l 228 257 l 139 0 m 263 361 l 553 361 l 414 801 l 263 361 m 288 1042 q 328 1142 288 1101 q 433 1182 369 1182 q 540 1142 500 1182 q 581 1042 581 1101 q 540 943 581 983 q 433 903 500 903 q 328 943 369 903 q 288 1042 288 983 m 506 1032 q 485 1084 506 1063 q 435 1106 465 1106 q 383 1084 403 1106 q 363 1032 363 1063 q 383 981 363 1001 q 435 960 403 960 q 485 981 465 960 q 506 1032 506 1001 m 290 1221 l 519 1385 l 594 1292 l 326 1183 l 290 1221 z "},"Ą":{"ha":861,"x_min":21,"x_max":833,"o":"m 139 0 l 21 0 l 363 960 l 511 960 l 833 0 l 763 0 q 668 -62 711 -14 q 625 -172 625 -111 q 634 -208 625 -192 q 672 -225 643 -225 q 709 -206 697 -225 q 721 -160 721 -186 l 753 -160 q 731 -250 756 -212 q 646 -287 707 -287 q 565 -258 590 -287 q 539 -185 539 -228 q 577 -80 539 -125 q 667 0 615 -35 l 665 0 l 585 257 l 228 257 l 139 0 m 263 361 l 553 361 l 414 801 l 263 361 z "},"Æ":{"ha":1160,"x_min":0,"x_max":1104,"o":"m 1024 421 l 718 421 l 718 108 l 1104 108 l 1104 4 l 576 4 l 576 326 l 317 326 l 125 0 l 0 0 l 574 956 l 1093 956 l 1093 851 l 718 851 l 718 525 l 1024 525 l 1024 421 m 378 431 l 576 431 l 576 767 l 378 431 z "},"Ǽ":{"ha":1160,"x_min":0,"x_max":1104,"o":"m 1024 421 l 718 421 l 718 108 l 1104 108 l 1104 4 l 576 4 l 576 326 l 317 326 l 125 0 l 0 0 l 574 956 l 1093 956 l 1093 851 l 718 851 l 718 525 l 1024 525 l 1024 421 m 378 431 l 576 431 l 576 767 l 378 431 m 688 1051 l 917 1215 l 992 1122 l 724 1014 l 688 1051 z "},"Ć":{"ha":853,"x_min":56,"x_max":804,"o":"m 56 471 q 89 684 56 590 q 180 841 122 778 q 315 937 238 904 q 481 969 393 969 q 631 940 571 969 q 727 871 692 911 q 776 785 763 831 q 788 710 790 740 l 714 710 q 699 745 711 722 q 661 790 686 768 q 597 829 636 813 q 500 846 557 846 q 384 822 438 846 q 292 750 331 797 q 231 632 253 703 q 208 471 208 561 q 231 306 208 376 q 291 192 253 236 q 381 125 329 147 q 493 103 433 103 q 601 121 556 103 q 675 165 646 139 q 719 218 704 190 q 736 264 733 246 l 804 264 q 788 181 804 229 q 734 90 772 133 q 631 17 696 47 q 471 -14 567 -14 q 307 15 383 -14 q 175 104 231 44 q 88 256 119 164 q 56 471 56 347 m 379 1051 l 608 1215 l 683 1122 l 415 1014 l 379 1051 z "},"Ĉ":{"ha":853,"x_min":56,"x_max":804,"o":"m 56 471 q 89 684 56 590 q 180 841 122 778 q 315 937 238 904 q 481 969 393 969 q 631 940 571 969 q 727 871 692 911 q 776 785 763 831 q 788 710 790 740 l 714 710 q 699 745 711 722 q 661 790 686 768 q 597 829 636 813 q 500 846 557 846 q 384 822 438 846 q 292 750 331 797 q 231 632 253 703 q 208 471 208 561 q 231 306 208 376 q 291 192 253 236 q 381 125 329 147 q 493 103 433 103 q 601 121 556 103 q 675 165 646 139 q 719 218 704 190 q 736 264 733 246 l 804 264 q 788 181 804 229 q 734 90 772 133 q 631 17 696 47 q 471 -14 567 -14 q 307 15 383 -14 q 175 104 231 44 q 88 256 119 164 q 56 471 56 347 m 246 1060 l 439 1213 l 503 1213 l 697 1060 l 664 1013 l 471 1113 l 278 1013 l 246 1060 z "},"Č":{"ha":853,"x_min":56,"x_max":804,"o":"m 56 471 q 89 684 56 590 q 180 841 122 778 q 315 937 238 904 q 481 969 393 969 q 631 940 571 969 q 727 871 692 911 q 776 785 763 831 q 788 710 790 740 l 714 710 q 699 745 711 722 q 661 790 686 768 q 597 829 636 813 q 500 846 557 846 q 384 822 438 846 q 292 750 331 797 q 231 632 253 703 q 208 471 208 561 q 231 306 208 376 q 291 192 253 236 q 381 125 329 147 q 493 103 433 103 q 601 121 556 103 q 675 165 646 139 q 719 218 704 190 q 736 264 733 246 l 804 264 q 788 181 804 229 q 734 90 772 133 q 631 17 696 47 q 471 -14 567 -14 q 307 15 383 -14 q 175 104 231 44 q 88 256 119 164 q 56 471 56 347 m 257 1165 l 290 1213 l 483 1113 l 676 1213 l 708 1165 l 515 1013 l 451 1013 l 257 1165 z "},"Ċ":{"ha":853,"x_min":56,"x_max":804,"o":"m 56 471 q 89 684 56 590 q 180 841 122 778 q 315 937 238 904 q 481 969 393 969 q 631 940 571 969 q 727 871 692 911 q 776 785 763 831 q 788 710 790 740 l 714 710 q 699 745 711 722 q 661 790 686 768 q 597 829 636 813 q 500 846 557 846 q 384 822 438 846 q 292 750 331 797 q 231 632 253 703 q 208 471 208 561 q 231 306 208 376 q 291 192 253 236 q 381 125 329 147 q 493 103 433 103 q 601 121 556 103 q 675 165 646 139 q 719 218 704 190 q 736 264 733 246 l 804 264 q 788 181 804 229 q 734 90 772 133 q 631 17 696 47 q 471 -14 567 -14 q 307 15 383 -14 q 175 104 231 44 q 88 256 119 164 q 56 471 56 347 m 406 1040 l 406 1176 l 554 1176 l 554 1040 l 406 1040 z "},"Ç":{"ha":853,"x_min":56,"x_max":804,"o":"m 56 471 q 89 684 56 590 q 180 841 122 778 q 315 937 238 904 q 481 969 393 969 q 631 940 571 969 q 727 871 692 911 q 776 785 763 831 q 788 710 790 740 l 714 710 q 699 745 711 722 q 661 790 686 768 q 597 829 636 813 q 500 846 557 846 q 384 822 438 846 q 292 750 331 797 q 231 632 253 703 q 208 471 208 561 q 231 306 208 376 q 291 192 253 236 q 381 125 329 147 q 493 103 433 103 q 601 121 556 103 q 675 165 646 139 q 719 218 704 190 q 736 264 733 246 l 804 264 q 788 181 804 229 q 734 90 772 133 q 631 17 696 47 q 471 -14 567 -14 q 307 15 383 -14 q 175 104 231 44 q 88 256 119 164 q 56 471 56 347 m 382 -160 l 415 -160 q 426 -205 414 -190 q 465 -219 438 -219 q 499 -206 486 -219 q 513 -165 513 -192 q 490 -115 513 -128 q 432 -110 468 -103 l 406 -96 l 433 6 l 476 0 l 467 -64 q 562 -81 524 -56 q 600 -165 600 -106 q 567 -249 600 -221 q 485 -276 535 -276 q 399 -242 422 -276 q 382 -160 376 -207 z "},"Ď":{"ha":922,"x_min":111,"x_max":867,"o":"m 111 958 l 374 958 q 593 922 500 958 q 747 823 686 886 q 837 672 807 760 q 867 485 867 585 q 825 252 867 346 q 715 103 783 158 q 557 24 646 47 q 374 0 468 0 l 111 0 l 111 958 m 375 854 l 254 854 l 254 104 l 375 104 q 624 201 532 104 q 715 485 715 299 q 695 633 715 565 q 633 751 675 701 q 527 827 592 800 q 375 854 463 854 m 185 1165 l 218 1213 l 411 1113 l 604 1213 l 636 1165 l 443 1013 l 379 1013 l 185 1165 z "},"Đ":{"ha":922,"x_min":14,"x_max":867,"o":"m 14 532 l 111 532 l 111 958 l 374 958 q 593 922 500 958 q 747 823 686 886 q 837 672 807 760 q 867 485 867 585 q 825 252 867 346 q 715 103 783 158 q 557 24 646 47 q 374 0 468 0 l 111 0 l 111 463 l 14 463 l 14 532 m 478 463 l 254 463 l 254 104 l 375 104 q 624 201 532 104 q 715 485 715 299 q 695 633 715 565 q 633 751 675 701 q 527 827 592 800 q 375 854 463 854 l 254 854 l 254 532 l 478 532 l 478 463 z "},"È":{"ha":736,"x_min":111,"x_max":681,"o":"m 601 451 l 254 451 l 254 108 l 681 108 l 681 4 l 111 4 l 111 956 l 671 956 l 671 851 l 254 851 l 254 556 l 601 556 l 601 451 m 224 1122 l 299 1215 l 528 1051 l 492 1014 l 224 1122 z "},"É":{"ha":736,"x_min":111,"x_max":681,"o":"m 601 451 l 254 451 l 254 108 l 681 108 l 681 4 l 111 4 l 111 956 l 671 956 l 671 851 l 254 851 l 254 556 l 601 556 l 601 451 m 261 1051 l 490 1215 l 565 1122 l 297 1014 l 261 1051 z "},"Ê":{"ha":736,"x_min":111,"x_max":681,"o":"m 601 451 l 254 451 l 254 108 l 681 108 l 681 4 l 111 4 l 111 956 l 671 956 l 671 851 l 254 851 l 254 556 l 601 556 l 601 451 m 174 1060 l 367 1213 l 431 1213 l 625 1060 l 592 1013 l 399 1113 l 206 1013 l 174 1060 z "},"Ě":{"ha":736,"x_min":111,"x_max":681,"o":"m 601 451 l 254 451 l 254 108 l 681 108 l 681 4 l 111 4 l 111 956 l 671 956 l 671 851 l 254 851 l 254 556 l 601 556 l 601 451 m 178 1165 l 211 1213 l 404 1113 l 597 1213 l 629 1165 l 436 1013 l 372 1013 l 178 1165 z "},"Ë":{"ha":736,"x_min":111,"x_max":681,"o":"m 601 451 l 254 451 l 254 108 l 681 108 l 681 4 l 111 4 l 111 956 l 671 956 l 671 851 l 254 851 l 254 556 l 601 556 l 601 451 m 214 1042 l 214 1172 l 343 1172 l 343 1042 l 214 1042 m 456 1042 l 456 1172 l 585 1172 l 585 1042 l 456 1042 z "},"Ē":{"ha":736,"x_min":111,"x_max":681,"o":"m 601 451 l 254 451 l 254 108 l 681 108 l 681 4 l 111 4 l 111 956 l 671 956 l 671 851 l 254 851 l 254 556 l 601 556 l 601 451 m 204 1164 l 588 1164 l 588 1078 l 204 1078 l 204 1164 z "},"Ĕ":{"ha":736,"x_min":111,"x_max":681,"o":"m 601 451 l 254 451 l 254 108 l 681 108 l 681 4 l 111 4 l 111 956 l 671 956 l 671 851 l 254 851 l 254 556 l 601 556 l 601 451 m 193 1217 l 243 1217 q 279 1150 249 1185 q 397 1115 310 1115 q 513 1150 481 1115 q 550 1217 544 1185 l 600 1217 q 593 1147 603 1182 q 560 1083 583 1111 q 496 1038 536 1056 q 397 1021 456 1021 q 299 1038 339 1021 q 234 1083 258 1056 q 200 1147 210 1111 q 193 1217 190 1182 z "},"Ė":{"ha":736,"x_min":111,"x_max":681,"o":"m 601 451 l 254 451 l 254 108 l 681 108 l 681 4 l 111 4 l 111 956 l 671 956 l 671 851 l 254 851 l 254 556 l 601 556 l 601 451 m 324 1040 l 324 1176 l 472 1176 l 472 1040 l 324 1040 z "},"Ę":{"ha":736,"x_min":111,"x_max":681,"o":"m 444 -174 q 474 -74 444 -119 q 557 4 503 -29 l 111 4 l 111 956 l 671 956 l 671 851 l 254 851 l 254 556 l 601 556 l 601 451 l 254 451 l 254 108 l 681 108 l 681 4 l 676 4 q 613 -12 640 4 q 567 -52 585 -28 q 540 -106 549 -76 q 531 -161 531 -135 q 542 -208 531 -192 q 582 -225 554 -225 q 620 -206 608 -225 q 632 -160 632 -186 l 665 -160 q 642 -250 667 -212 q 556 -287 618 -287 q 472 -258 500 -287 q 444 -174 444 -228 z "},"Ĝ":{"ha":896,"x_min":56,"x_max":833,"o":"m 56 475 q 92 690 56 597 q 188 845 128 783 q 328 938 249 907 q 494 969 408 969 q 648 941 586 969 q 747 872 710 913 q 797 788 783 832 q 808 710 811 743 l 735 710 q 719 745 732 722 q 679 790 706 768 q 611 829 653 813 q 511 846 569 846 q 394 822 450 846 q 298 750 339 797 q 233 632 257 703 q 208 467 208 561 q 290 193 208 289 q 504 97 371 97 q 591 108 556 97 q 649 133 626 118 q 685 163 672 147 q 704 190 699 179 l 704 372 l 543 372 l 543 476 l 833 476 l 833 171 q 790 109 817 142 q 722 49 763 76 q 626 4 682 22 q 493 -14 569 -14 q 313 17 394 -14 q 175 110 232 49 q 87 263 118 171 q 56 475 56 356 m 261 1060 l 454 1213 l 518 1213 l 713 1060 l 679 1013 l 486 1113 l 293 1013 l 261 1060 z "},"Ğ":{"ha":896,"x_min":56,"x_max":833,"o":"m 56 475 q 92 690 56 597 q 188 845 128 783 q 328 938 249 907 q 494 969 408 969 q 648 941 586 969 q 747 872 710 913 q 797 788 783 832 q 808 710 811 743 l 735 710 q 719 745 732 722 q 679 790 706 768 q 611 829 653 813 q 511 846 569 846 q 394 822 450 846 q 298 750 339 797 q 233 632 257 703 q 208 467 208 561 q 290 193 208 289 q 504 97 371 97 q 591 108 556 97 q 649 133 626 118 q 685 163 672 147 q 704 190 699 179 l 704 372 l 543 372 l 543 476 l 833 476 l 833 171 q 790 109 817 142 q 722 49 763 76 q 626 4 682 22 q 493 -14 569 -14 q 313 17 394 -14 q 175 110 232 49 q 87 263 118 171 q 56 475 56 356 m 281 1217 l 331 1217 q 367 1150 336 1185 q 485 1115 397 1115 q 600 1150 568 1115 q 638 1217 632 1185 l 688 1217 q 681 1147 690 1182 q 647 1083 671 1111 q 583 1038 624 1056 q 485 1021 543 1021 q 386 1038 426 1021 q 322 1083 346 1056 q 288 1147 297 1111 q 281 1217 278 1182 z "},"Ġ":{"ha":896,"x_min":56,"x_max":833,"o":"m 56 475 q 92 690 56 597 q 188 845 128 783 q 328 938 249 907 q 494 969 408 969 q 648 941 586 969 q 747 872 710 913 q 797 788 783 832 q 808 710 811 743 l 735 710 q 719 745 732 722 q 679 790 706 768 q 611 829 653 813 q 511 846 569 846 q 394 822 450 846 q 298 750 339 797 q 233 632 257 703 q 208 467 208 561 q 290 193 208 289 q 504 97 371 97 q 591 108 556 97 q 649 133 626 118 q 685 163 672 147 q 704 190 699 179 l 704 372 l 543 372 l 543 476 l 833 476 l 833 171 q 790 109 817 142 q 722 49 763 76 q 626 4 682 22 q 493 -14 569 -14 q 313 17 394 -14 q 175 110 232 49 q 87 263 118 171 q 56 475 56 356 m 413 1040 l 413 1176 l 561 1176 l 561 1040 l 413 1040 z "},"Ģ":{"ha":896,"x_min":56,"x_max":833,"o":"m 56 475 q 92 690 56 597 q 188 845 128 783 q 328 938 249 907 q 494 969 408 969 q 648 941 586 969 q 747 872 710 913 q 797 788 783 832 q 808 710 811 743 l 735 710 q 719 745 732 722 q 679 790 706 768 q 611 829 653 813 q 511 846 569 846 q 394 822 450 846 q 298 750 339 797 q 233 632 257 703 q 208 467 208 561 q 290 193 208 289 q 504 97 371 97 q 591 108 556 97 q 649 133 626 118 q 685 163 672 147 q 704 190 699 179 l 704 372 l 543 372 l 543 476 l 833 476 l 833 171 q 790 109 817 142 q 722 49 763 76 q 626 4 682 22 q 493 -14 569 -14 q 313 17 394 -14 q 175 110 232 49 q 87 263 118 171 q 56 475 56 356 m 392 -303 l 456 -76 l 564 -76 l 460 -318 l 392 -303 z "},"Ĥ":{"ha":949,"x_min":111,"x_max":838,"o":"m 111 958 l 254 958 l 254 554 l 694 554 l 694 958 l 838 958 l 838 0 l 694 0 l 694 450 l 254 450 l 254 0 l 111 0 l 111 958 m 249 1060 l 442 1213 l 506 1213 l 700 1060 l 667 1013 l 474 1113 l 281 1013 l 249 1060 z "},"Ħ":{"ha":949,"x_min":14,"x_max":935,"o":"m 111 958 l 254 958 l 254 821 l 694 821 l 694 958 l 838 958 l 838 821 l 935 821 l 935 751 l 838 751 l 838 0 l 694 0 l 694 450 l 254 450 l 254 0 l 111 0 l 111 751 l 14 751 l 14 821 l 111 821 l 111 958 m 254 554 l 694 554 l 694 751 l 254 751 l 254 554 z "},"Ì":{"ha":379,"x_min":4,"x_max":308,"o":"m 118 958 l 261 958 l 261 0 l 118 0 l 118 958 m 4 1122 l 79 1215 l 308 1051 l 272 1014 l 4 1122 z "},"Í":{"ha":379,"x_min":71,"x_max":375,"o":"m 118 958 l 261 958 l 261 0 l 118 0 l 118 958 m 71 1051 l 300 1215 l 375 1122 l 107 1014 l 71 1051 z "},"Î":{"ha":379,"x_min":6,"x_max":374,"o":"m 190 1119 l 40 1014 l 6 1054 l 158 1213 l 221 1213 l 374 1054 l 339 1014 l 190 1119 m 118 958 l 261 958 l 261 0 l 118 0 l 118 958 z "},"Ĩ":{"ha":379,"x_min":-10,"x_max":399,"o":"m 118 958 l 261 958 l 261 0 l 118 0 l 118 958 m 297 1117 q 348 1147 338 1117 q 350 1211 358 1176 l 386 1211 q 386 1081 413 1135 q 285 1026 360 1026 q 222 1041 246 1026 q 180 1073 199 1056 q 142 1105 161 1090 q 92 1119 122 1119 q 42 1091 53 1119 q 39 1026 31 1063 l 3 1026 q 3 1158 -24 1106 q 106 1210 31 1210 q 171 1195 146 1210 q 215 1163 196 1181 q 251 1131 233 1146 q 297 1117 269 1117 z "},"Ï":{"ha":379,"x_min":4,"x_max":375,"o":"m 118 958 l 261 958 l 261 0 l 118 0 l 118 958 m 4 1042 l 4 1172 l 133 1172 l 133 1042 l 4 1042 m 246 1042 l 246 1172 l 375 1172 l 375 1042 l 246 1042 z "},"Ī":{"ha":379,"x_min":33,"x_max":346,"o":"m 33 1164 l 346 1164 l 346 1078 l 33 1078 l 33 1164 m 118 958 l 261 958 l 261 0 l 118 0 l 118 958 z "},"Ĭ":{"ha":379,"x_min":-14,"x_max":393,"o":"m 118 958 l 261 958 l 261 0 l 118 0 l 118 958 m -14 1217 l 36 1217 q 72 1150 42 1185 q 190 1115 103 1115 q 306 1150 274 1115 q 343 1217 338 1185 l 393 1217 q 386 1147 396 1182 q 353 1083 376 1111 q 289 1038 329 1056 q 190 1021 249 1021 q 92 1038 132 1021 q 27 1083 51 1056 q -7 1147 3 1111 q -14 1217 -17 1182 z "},"İ":{"ha":379,"x_min":115,"x_max":264,"o":"m 118 958 l 261 958 l 261 0 l 118 0 l 118 958 m 115 1040 l 115 1176 l 264 1176 l 264 1040 l 115 1040 z "},"Į":{"ha":379,"x_min":78,"x_max":300,"o":"m 78 -172 q 108 -76 78 -121 q 175 0 139 -32 l 118 0 l 118 958 l 261 958 l 261 0 l 260 0 q 190 -65 215 -18 q 164 -160 164 -111 q 176 -208 164 -192 q 218 -225 189 -225 q 255 -206 243 -225 q 267 -160 267 -186 l 300 -160 q 277 -250 301 -212 q 192 -287 253 -287 q 107 -258 136 -287 q 78 -172 78 -228 z "},"Ĳ":{"ha":989,"x_min":118,"x_max":892,"o":"m 118 958 l 261 958 l 261 0 l 118 0 l 118 958 m 401 250 l 471 250 q 504 150 474 196 q 608 104 535 104 q 721 167 692 104 q 750 339 750 231 l 750 958 l 892 958 l 892 336 q 879 197 892 261 q 838 86 867 133 q 762 13 810 39 q 643 -14 714 -14 q 525 8 572 -14 q 451 67 478 31 q 413 151 424 103 q 401 250 401 199 z "},"Ĵ":{"ha":608,"x_min":21,"x_max":618,"o":"m 435 1119 l 285 1014 l 250 1054 l 403 1213 l 465 1213 l 618 1054 l 583 1014 l 435 1119 m 21 250 l 90 250 q 124 150 93 196 q 228 104 154 104 q 340 167 311 104 q 369 339 369 231 l 369 958 l 511 958 l 511 336 q 499 197 511 261 q 458 86 486 133 q 381 13 429 39 q 263 -14 333 -14 q 144 8 192 -14 q 70 67 97 31 q 32 151 43 103 q 21 250 21 199 z "},"Ķ":{"ha":842,"x_min":113,"x_max":824,"o":"m 113 0 l 113 958 l 256 958 l 256 510 l 647 958 l 778 958 l 435 567 l 824 0 l 646 0 l 338 456 l 256 363 l 256 0 l 113 0 m 324 -303 l 388 -76 l 496 -76 l 392 -318 l 324 -303 z "},"Ĺ":{"ha":701,"x_min":111,"x_max":688,"o":"m 111 958 l 254 958 l 254 111 l 688 111 l 688 4 l 111 4 l 111 958 m 140 1051 l 369 1215 l 444 1122 l 176 1014 l 140 1051 z "},"Ľ":{"ha":701,"x_min":111,"x_max":688,"o":"m 111 958 l 254 958 l 254 111 l 688 111 l 688 4 l 111 4 l 111 958 m 428 696 l 481 972 l 592 972 l 506 696 l 428 696 z "},"Ļ":{"ha":701,"x_min":111,"x_max":688,"o":"m 111 958 l 254 958 l 254 111 l 688 111 l 688 4 l 111 4 l 111 958 m 310 -303 l 374 -76 l 482 -76 l 378 -318 l 310 -303 z "},"Ł":{"ha":701,"x_min":21,"x_max":688,"o":"m 21 244 l 21 353 l 111 414 l 111 958 l 254 958 l 254 511 l 451 646 l 451 538 l 254 403 l 254 111 l 688 111 l 688 4 l 111 4 l 111 306 l 21 244 z "},"Ŀ":{"ha":701,"x_min":111,"x_max":688,"o":"m 111 958 l 254 958 l 254 111 l 688 111 l 688 4 l 111 4 l 111 958 m 453 443 l 453 579 l 601 579 l 601 443 l 453 443 z "},"Ń":{"ha":939,"x_min":111,"x_max":828,"o":"m 828 958 l 828 -7 l 713 -7 l 224 731 l 224 0 l 111 0 l 111 958 l 251 958 l 714 254 l 714 958 l 828 958 m 346 1051 l 575 1215 l 650 1122 l 382 1014 l 346 1051 z "},"Ň":{"ha":939,"x_min":111,"x_max":828,"o":"m 828 958 l 828 -7 l 713 -7 l 224 731 l 224 0 l 111 0 l 111 958 l 251 958 l 714 254 l 714 958 l 828 958 m 265 1165 l 299 1213 l 492 1113 l 685 1213 l 717 1165 l 524 1013 l 460 1013 l 265 1165 z "},"Ñ":{"ha":939,"x_min":111,"x_max":828,"o":"m 828 958 l 828 -7 l 713 -7 l 224 731 l 224 0 l 111 0 l 111 958 l 251 958 l 714 254 l 714 958 l 828 958 m 604 1117 q 655 1147 644 1117 q 657 1211 665 1176 l 693 1211 q 693 1081 719 1135 q 592 1026 667 1026 q 529 1041 553 1026 q 487 1073 506 1056 q 449 1105 468 1090 q 399 1119 429 1119 q 349 1091 360 1119 q 346 1026 338 1063 l 310 1026 q 310 1158 283 1106 q 413 1210 338 1210 q 478 1195 453 1210 q 522 1163 503 1181 q 558 1131 540 1146 q 604 1117 576 1117 z "},"Ņ":{"ha":939,"x_min":111,"x_max":828,"o":"m 828 958 l 828 -7 l 713 -7 l 224 731 l 224 0 l 111 0 l 111 958 l 251 958 l 714 254 l 714 958 l 828 958 m 357 -303 l 421 -76 l 529 -76 l 425 -318 l 357 -303 z "},"Ò":{"ha":972,"x_min":56,"x_max":917,"o":"m 56 478 q 88 683 56 592 q 176 838 119 775 q 313 935 233 901 q 489 969 393 969 q 649 941 571 969 q 785 854 726 913 q 881 705 844 796 q 917 490 917 614 q 887 280 917 374 q 802 122 857 186 q 667 22 747 57 q 489 -14 588 -14 q 322 16 401 -14 q 184 106 243 46 q 90 260 125 167 q 56 478 56 353 m 789 485 q 765 642 789 575 q 701 754 740 710 q 610 821 661 799 q 504 843 558 843 q 292 746 375 843 q 208 478 208 649 q 233 310 208 381 q 300 193 258 239 q 395 126 342 147 q 504 104 449 104 q 616 128 564 104 q 706 201 668 153 q 767 320 744 249 q 789 485 789 392 m 324 1122 l 399 1215 l 628 1051 l 592 1014 l 324 1122 z "},"Ó":{"ha":972,"x_min":56,"x_max":917,"o":"m 56 478 q 88 683 56 592 q 176 838 119 775 q 313 935 233 901 q 489 969 393 969 q 649 941 571 969 q 785 854 726 913 q 881 705 844 796 q 917 490 917 614 q 887 280 917 374 q 802 122 857 186 q 667 22 747 57 q 489 -14 588 -14 q 322 16 401 -14 q 184 106 243 46 q 90 260 125 167 q 56 478 56 353 m 789 485 q 765 642 789 575 q 701 754 740 710 q 610 821 661 799 q 504 843 558 843 q 292 746 375 843 q 208 478 208 649 q 233 310 208 381 q 300 193 258 239 q 395 126 342 147 q 504 104 449 104 q 616 128 564 104 q 706 201 668 153 q 767 320 744 249 q 789 485 789 392 m 365 1051 l 594 1215 l 669 1122 l 401 1014 l 365 1051 z "},"Ô":{"ha":972,"x_min":56,"x_max":917,"o":"m 56 478 q 88 683 56 592 q 176 838 119 775 q 313 935 233 901 q 489 969 393 969 q 649 941 571 969 q 785 854 726 913 q 881 705 844 796 q 917 490 917 614 q 887 280 917 374 q 802 122 857 186 q 667 22 747 57 q 489 -14 588 -14 q 322 16 401 -14 q 184 106 243 46 q 90 260 125 167 q 56 478 56 353 m 789 485 q 765 642 789 575 q 701 754 740 710 q 610 821 661 799 q 504 843 558 843 q 292 746 375 843 q 208 478 208 649 q 233 310 208 381 q 300 193 258 239 q 395 126 342 147 q 504 104 449 104 q 616 128 564 104 q 706 201 668 153 q 767 320 744 249 q 789 485 789 392 m 264 1060 l 457 1213 l 521 1213 l 715 1060 l 682 1013 l 489 1113 l 296 1013 l 264 1060 z "},"Õ":{"ha":972,"x_min":56,"x_max":917,"o":"m 56 478 q 88 683 56 592 q 176 838 119 775 q 313 935 233 901 q 489 969 393 969 q 649 941 571 969 q 785 854 726 913 q 881 705 844 796 q 917 490 917 614 q 887 280 917 374 q 802 122 857 186 q 667 22 747 57 q 489 -14 588 -14 q 322 16 401 -14 q 184 106 243 46 q 90 260 125 167 q 56 478 56 353 m 789 485 q 765 642 789 575 q 701 754 740 710 q 610 821 661 799 q 504 843 558 843 q 292 746 375 843 q 208 478 208 649 q 233 310 208 381 q 300 193 258 239 q 395 126 342 147 q 504 104 449 104 q 616 128 564 104 q 706 201 668 153 q 767 320 744 249 q 789 485 789 392 m 596 1117 q 647 1147 636 1117 q 649 1211 657 1176 l 685 1211 q 685 1081 711 1135 q 583 1026 658 1026 q 521 1041 544 1026 q 478 1073 497 1056 q 440 1105 460 1090 q 390 1119 421 1119 q 340 1091 351 1119 q 338 1026 329 1063 l 301 1026 q 302 1158 275 1106 q 404 1210 329 1210 q 469 1195 444 1210 q 513 1163 494 1181 q 550 1131 532 1146 q 596 1117 568 1117 z "},"Ö":{"ha":972,"x_min":56,"x_max":917,"o":"m 56 478 q 88 683 56 592 q 176 838 119 775 q 313 935 233 901 q 489 969 393 969 q 649 941 571 969 q 785 854 726 913 q 881 705 844 796 q 917 490 917 614 q 887 280 917 374 q 802 122 857 186 q 667 22 747 57 q 489 -14 588 -14 q 322 16 401 -14 q 184 106 243 46 q 90 260 125 167 q 56 478 56 353 m 789 485 q 765 642 789 575 q 701 754 740 710 q 610 821 661 799 q 504 843 558 843 q 292 746 375 843 q 208 478 208 649 q 233 310 208 381 q 300 193 258 239 q 395 126 342 147 q 504 104 449 104 q 616 128 564 104 q 706 201 668 153 q 767 320 744 249 q 789 485 789 392 m 300 1042 l 300 1172 l 429 1172 l 429 1042 l 300 1042 m 542 1042 l 542 1172 l 671 1172 l 671 1042 l 542 1042 z "},"Ō":{"ha":972,"x_min":56,"x_max":917,"o":"m 56 478 q 88 683 56 592 q 176 838 119 775 q 313 935 233 901 q 489 969 393 969 q 649 941 571 969 q 785 854 726 913 q 881 705 844 796 q 917 490 917 614 q 887 280 917 374 q 802 122 857 186 q 667 22 747 57 q 489 -14 588 -14 q 322 16 401 -14 q 184 106 243 46 q 90 260 125 167 q 56 478 56 353 m 789 485 q 765 642 789 575 q 701 754 740 710 q 610 821 661 799 q 504 843 558 843 q 292 746 375 843 q 208 478 208 649 q 233 310 208 381 q 300 193 258 239 q 395 126 342 147 q 504 104 449 104 q 616 128 564 104 q 706 201 668 153 q 767 320 744 249 q 789 485 789 392 m 301 1164 l 685 1164 l 685 1078 l 301 1078 l 301 1164 z "},"Ŏ":{"ha":972,"x_min":56,"x_max":917,"o":"m 56 478 q 88 683 56 592 q 176 838 119 775 q 313 935 233 901 q 489 969 393 969 q 649 941 571 969 q 785 854 726 913 q 881 705 844 796 q 917 490 917 614 q 887 280 917 374 q 802 122 857 186 q 667 22 747 57 q 489 -14 588 -14 q 322 16 401 -14 q 184 106 243 46 q 90 260 125 167 q 56 478 56 353 m 789 485 q 765 642 789 575 q 701 754 740 710 q 610 821 661 799 q 504 843 558 843 q 292 746 375 843 q 208 478 208 649 q 233 310 208 381 q 300 193 258 239 q 395 126 342 147 q 504 104 449 104 q 616 128 564 104 q 706 201 668 153 q 767 320 744 249 q 789 485 789 392 m 283 1217 l 333 1217 q 369 1150 339 1185 q 488 1115 400 1115 q 603 1150 571 1115 q 640 1217 635 1185 l 690 1217 q 683 1147 693 1182 q 650 1083 674 1111 q 586 1038 626 1056 q 488 1021 546 1021 q 389 1038 429 1021 q 324 1083 349 1056 q 290 1147 300 1111 q 283 1217 281 1182 z "},"Ő":{"ha":972,"x_min":56,"x_max":917,"o":"m 56 478 q 88 683 56 592 q 176 838 119 775 q 313 935 233 901 q 489 969 393 969 q 649 941 571 969 q 785 854 726 913 q 881 705 844 796 q 917 490 917 614 q 887 280 917 374 q 802 122 857 186 q 667 22 747 57 q 489 -14 588 -14 q 322 16 401 -14 q 184 106 243 46 q 90 260 125 167 q 56 478 56 353 m 789 485 q 765 642 789 575 q 701 754 740 710 q 610 821 661 799 q 504 843 558 843 q 292 746 375 843 q 208 478 208 649 q 233 310 208 381 q 300 193 258 239 q 395 126 342 147 q 504 104 449 104 q 616 128 564 104 q 706 201 668 153 q 767 320 744 249 q 789 485 789 392 m 329 1044 l 507 1211 l 567 1147 l 378 996 l 329 1044 m 551 1044 l 729 1211 l 789 1147 l 600 996 l 551 1044 z "},"Ø":{"ha":972,"x_min":56,"x_max":918,"o":"m 56 478 q 88 683 56 592 q 176 838 119 775 q 313 935 233 901 q 489 969 393 969 q 625 949 558 969 q 747 888 692 929 l 807 965 l 918 965 l 811 825 q 888 683 860 767 q 917 490 917 600 q 887 280 917 374 q 802 122 857 186 q 667 22 747 57 q 489 -14 588 -14 q 350 6 417 -14 q 229 67 283 26 l 169 -11 l 56 -11 l 164 129 q 84 276 113 189 q 56 478 56 364 m 208 478 q 222 351 208 407 q 258 253 236 296 l 668 785 q 590 828 633 814 q 504 843 547 843 q 292 746 375 843 q 208 478 208 649 m 789 485 q 772 617 789 558 q 729 718 756 675 l 314 178 q 403 122 354 140 q 504 104 453 104 q 616 128 564 104 q 706 201 668 153 q 767 320 744 249 q 789 485 789 392 z "},"Ǿ":{"ha":972,"x_min":56,"x_max":918,"o":"m 56 478 q 88 683 56 592 q 176 838 119 775 q 313 935 233 901 q 489 969 393 969 q 625 949 558 969 q 747 888 692 929 l 807 965 l 918 965 l 811 825 q 888 683 860 767 q 917 490 917 600 q 887 280 917 374 q 802 122 857 186 q 667 22 747 57 q 489 -14 588 -14 q 350 6 417 -14 q 229 67 283 26 l 169 -11 l 56 -11 l 164 129 q 84 276 113 189 q 56 478 56 364 m 208 478 q 222 351 208 407 q 258 253 236 296 l 668 785 q 590 828 633 814 q 504 843 547 843 q 292 746 375 843 q 208 478 208 649 m 789 485 q 772 617 789 558 q 729 718 756 675 l 314 178 q 403 122 354 140 q 504 104 453 104 q 616 128 564 104 q 706 201 668 153 q 767 320 744 249 q 789 485 789 392 m 364 1051 l 593 1215 l 668 1122 l 400 1014 l 364 1051 z "},"Œ":{"ha":1338,"x_min":56,"x_max":1282,"o":"m 56 478 q 85 683 56 592 q 169 838 115 775 q 300 935 224 901 q 467 969 376 969 q 626 933 551 969 q 754 825 701 897 l 754 956 l 1271 956 l 1271 851 l 882 851 l 882 556 l 1201 556 l 1201 451 l 882 451 l 882 108 l 1282 108 l 1282 4 l 754 4 l 754 139 q 633 27 706 68 q 467 -14 560 -14 q 308 16 383 -14 q 176 106 232 46 q 88 260 121 167 q 56 478 56 353 m 751 485 q 729 641 751 574 q 669 753 707 708 q 583 819 632 797 q 478 842 533 842 q 283 744 358 842 q 207 478 207 647 q 230 310 207 381 q 291 193 253 239 q 378 126 329 147 q 478 104 426 104 q 674 199 596 104 q 751 485 751 293 z "},"Ŕ":{"ha":843,"x_min":111,"x_max":821,"o":"m 821 46 q 776 6 803 21 q 710 -10 749 -10 q 592 46 621 -10 q 556 244 563 101 q 510 379 550 342 q 388 417 471 417 l 254 417 l 254 0 l 111 0 l 111 958 l 421 958 q 552 944 492 958 q 656 899 613 929 q 724 822 699 869 q 749 711 749 775 q 681 542 749 599 q 518 469 614 485 q 655 409 603 460 q 710 251 707 358 q 724 102 714 139 q 774 65 735 65 q 793 68 783 65 q 808 75 803 71 l 821 46 m 396 854 l 254 854 l 254 517 l 385 517 q 465 525 425 517 q 536 553 504 533 q 588 605 568 572 q 607 685 607 638 q 547 814 607 774 q 396 854 486 854 m 268 1051 l 497 1215 l 572 1122 l 304 1014 l 268 1051 z "},"Ř":{"ha":843,"x_min":111,"x_max":821,"o":"m 821 46 q 776 6 803 21 q 710 -10 749 -10 q 592 46 621 -10 q 556 244 563 101 q 510 379 550 342 q 388 417 471 417 l 254 417 l 254 0 l 111 0 l 111 958 l 421 958 q 552 944 492 958 q 656 899 613 929 q 724 822 699 869 q 749 711 749 775 q 681 542 749 599 q 518 469 614 485 q 655 409 603 460 q 710 251 707 358 q 724 102 714 139 q 774 65 735 65 q 793 68 783 65 q 808 75 803 71 l 821 46 m 396 854 l 254 854 l 254 517 l 385 517 q 465 525 425 517 q 536 553 504 533 q 588 605 568 572 q 607 685 607 638 q 547 814 607 774 q 396 854 486 854 m 190 1165 l 224 1213 l 417 1113 l 610 1213 l 642 1165 l 449 1013 l 385 1013 l 190 1165 z "},"Ŗ":{"ha":843,"x_min":111,"x_max":821,"o":"m 821 46 q 776 6 803 21 q 710 -10 749 -10 q 592 46 621 -10 q 556 244 563 101 q 510 379 550 342 q 388 417 471 417 l 254 417 l 254 0 l 111 0 l 111 958 l 421 958 q 552 944 492 958 q 656 899 613 929 q 724 822 699 869 q 749 711 749 775 q 681 542 749 599 q 518 469 614 485 q 655 409 603 460 q 710 251 707 358 q 724 102 714 139 q 774 65 735 65 q 793 68 783 65 q 808 75 803 71 l 821 46 m 396 854 l 254 854 l 254 517 l 385 517 q 465 525 425 517 q 536 553 504 533 q 588 605 568 572 q 607 685 607 638 q 547 814 607 774 q 396 854 486 854 m 321 -303 l 385 -76 l 493 -76 l 389 -318 l 321 -303 z "},"Ś":{"ha":768,"x_min":53,"x_max":714,"o":"m 53 283 l 129 283 q 155 195 133 232 q 208 135 176 158 q 280 102 239 113 q 364 92 321 92 q 503 126 446 92 q 561 246 561 160 q 499 365 561 328 q 332 432 438 401 q 153 525 221 464 q 85 704 85 586 q 172 899 85 829 q 393 969 258 969 q 615 899 533 969 q 686 703 696 828 l 611 703 q 548 824 606 782 q 411 865 490 865 q 282 828 332 865 q 232 715 232 790 q 292 609 232 644 q 453 546 353 574 q 644 447 574 511 q 714 261 714 382 q 688 143 714 194 q 619 57 663 92 q 515 4 575 22 q 386 -14 454 -14 q 143 61 233 -14 q 53 283 53 136 m 272 1051 l 501 1215 l 576 1122 l 308 1014 l 272 1051 z "},"Ŝ":{"ha":768,"x_min":53,"x_max":714,"o":"m 53 283 l 129 283 q 155 195 133 232 q 208 135 176 158 q 280 102 239 113 q 364 92 321 92 q 503 126 446 92 q 561 246 561 160 q 499 365 561 328 q 332 432 438 401 q 153 525 221 464 q 85 704 85 586 q 172 899 85 829 q 393 969 258 969 q 615 899 533 969 q 686 703 696 828 l 611 703 q 548 824 606 782 q 411 865 490 865 q 282 828 332 865 q 232 715 232 790 q 292 609 232 644 q 453 546 353 574 q 644 447 574 511 q 714 261 714 382 q 688 143 714 194 q 619 57 663 92 q 515 4 575 22 q 386 -14 454 -14 q 143 61 233 -14 q 53 283 53 136 m 164 1060 l 357 1213 l 421 1213 l 615 1060 l 582 1013 l 389 1113 l 196 1013 l 164 1060 z "},"Š":{"ha":768,"x_min":53,"x_max":714,"o":"m 53 283 l 129 283 q 155 195 133 232 q 208 135 176 158 q 280 102 239 113 q 364 92 321 92 q 503 126 446 92 q 561 246 561 160 q 499 365 561 328 q 332 432 438 401 q 153 525 221 464 q 85 704 85 586 q 172 899 85 829 q 393 969 258 969 q 615 899 533 969 q 686 703 696 828 l 611 703 q 548 824 606 782 q 411 865 490 865 q 282 828 332 865 q 232 715 232 790 q 292 609 232 644 q 453 546 353 574 q 644 447 574 511 q 714 261 714 382 q 688 143 714 194 q 619 57 663 92 q 515 4 575 22 q 386 -14 454 -14 q 143 61 233 -14 q 53 283 53 136 m 157 1165 l 190 1213 l 383 1113 l 576 1213 l 608 1165 l 415 1013 l 351 1013 l 157 1165 z "},"Ş":{"ha":768,"x_min":53,"x_max":714,"o":"m 53 283 l 129 283 q 155 195 133 232 q 208 135 176 158 q 280 102 239 113 q 364 92 321 92 q 503 126 446 92 q 561 246 561 160 q 499 365 561 328 q 332 432 438 401 q 153 525 221 464 q 85 704 85 586 q 172 899 85 829 q 393 969 258 969 q 615 899 533 969 q 686 703 696 828 l 611 703 q 548 824 606 782 q 411 865 490 865 q 282 828 332 865 q 232 715 232 790 q 292 609 232 644 q 453 546 353 574 q 644 447 574 511 q 714 261 714 382 q 688 143 714 194 q 619 57 663 92 q 515 4 575 22 q 386 -14 454 -14 q 143 61 233 -14 q 53 283 53 136 m 313 -160 l 346 -160 q 356 -205 344 -190 q 396 -219 368 -219 q 430 -206 417 -219 q 443 -165 443 -192 q 421 -115 443 -128 q 363 -110 399 -103 l 336 -96 l 364 6 l 407 0 l 397 -64 q 492 -81 454 -56 q 531 -165 531 -106 q 498 -249 531 -221 q 415 -276 465 -276 q 330 -242 353 -276 q 313 -160 307 -207 z "},"Ș":{"ha":768,"x_min":53,"x_max":714,"o":"m 53 283 l 129 283 q 155 195 133 232 q 208 135 176 158 q 280 102 239 113 q 364 92 321 92 q 503 126 446 92 q 561 246 561 160 q 499 365 561 328 q 332 432 438 401 q 153 525 221 464 q 85 704 85 586 q 172 899 85 829 q 393 969 258 969 q 615 899 533 969 q 686 703 696 828 l 611 703 q 548 824 606 782 q 411 865 490 865 q 282 828 332 865 q 232 715 232 790 q 292 609 232 644 q 453 546 353 574 q 644 447 574 511 q 714 261 714 382 q 688 143 714 194 q 619 57 663 92 q 515 4 575 22 q 386 -14 454 -14 q 143 61 233 -14 q 53 283 53 136 m 285 -303 l 349 -76 l 457 -76 l 353 -318 l 285 -303 z "},"Ť":{"ha":768,"x_min":0,"x_max":768,"o":"m 456 0 l 313 0 l 313 849 l 0 849 l 0 956 l 768 956 l 768 849 l 456 849 l 456 0 m 158 1165 l 192 1213 l 385 1113 l 578 1213 l 610 1165 l 417 1013 l 353 1013 l 158 1165 z "},"Ț":{"ha":768,"x_min":0,"x_max":768,"o":"m 456 0 l 313 0 l 313 849 l 0 849 l 0 956 l 768 956 l 768 849 l 456 849 l 456 0 m 265 -303 l 329 -76 l 438 -76 l 333 -318 l 265 -303 z "},"Ţ":{"ha":768,"x_min":0,"x_max":768,"o":"m 456 0 l 313 0 l 313 849 l 0 849 l 0 956 l 768 956 l 768 849 l 456 849 l 456 0 m 296 -160 l 329 -160 q 340 -205 328 -190 q 379 -219 351 -219 q 413 -206 400 -219 q 426 -165 426 -192 q 404 -115 426 -128 q 346 -110 382 -103 l 319 -96 l 347 6 l 390 0 l 381 -64 q 476 -81 438 -56 q 514 -165 514 -106 q 481 -249 514 -221 q 399 -276 449 -276 q 313 -242 336 -276 q 296 -160 290 -207 z "},"Ŧ":{"ha":768,"x_min":0,"x_max":768,"o":"m 456 0 l 313 0 l 313 433 l 135 433 l 135 503 l 313 503 l 313 849 l 0 849 l 0 956 l 768 956 l 768 849 l 456 849 l 456 503 l 633 503 l 633 433 l 456 433 l 456 0 z "},"Ù":{"ha":914,"x_min":97,"x_max":817,"o":"m 97 435 l 97 958 l 250 958 l 250 461 q 297 206 250 303 q 485 108 344 108 q 596 133 553 108 q 663 203 639 158 q 697 312 688 247 q 706 456 706 376 l 706 958 l 817 958 l 817 443 q 799 262 817 346 q 742 117 782 178 q 635 21 701 56 q 469 -14 568 -14 q 284 21 357 -14 q 170 116 211 56 q 113 258 129 176 q 97 435 97 340 m 315 1122 l 390 1215 l 619 1051 l 583 1014 l 315 1122 z "},"Ú":{"ha":914,"x_min":97,"x_max":817,"o":"m 97 435 l 97 958 l 250 958 l 250 461 q 297 206 250 303 q 485 108 344 108 q 596 133 553 108 q 663 203 639 158 q 697 312 688 247 q 706 456 706 376 l 706 958 l 817 958 l 817 443 q 799 262 817 346 q 742 117 782 178 q 635 21 701 56 q 469 -14 568 -14 q 284 21 357 -14 q 170 116 211 56 q 113 258 129 176 q 97 435 97 340 m 367 1051 l 596 1215 l 671 1122 l 403 1014 l 367 1051 z "},"Û":{"ha":914,"x_min":97,"x_max":817,"o":"m 97 435 l 97 958 l 250 958 l 250 461 q 297 206 250 303 q 485 108 344 108 q 596 133 553 108 q 663 203 639 158 q 697 312 688 247 q 706 456 706 376 l 706 958 l 817 958 l 817 443 q 799 262 817 346 q 742 117 782 178 q 635 21 701 56 q 469 -14 568 -14 q 284 21 357 -14 q 170 116 211 56 q 113 258 129 176 q 97 435 97 340 m 253 1060 l 446 1213 l 510 1213 l 704 1060 l 671 1013 l 478 1113 l 285 1013 l 253 1060 z "},"Ũ":{"ha":914,"x_min":97,"x_max":817,"o":"m 97 435 l 97 958 l 250 958 l 250 461 q 297 206 250 303 q 485 108 344 108 q 596 133 553 108 q 663 203 639 158 q 697 312 688 247 q 706 456 706 376 l 706 958 l 817 958 l 817 443 q 799 262 817 346 q 742 117 782 178 q 635 21 701 56 q 469 -14 568 -14 q 284 21 357 -14 q 170 116 211 56 q 113 258 129 176 q 97 435 97 340 m 586 1117 q 637 1147 626 1117 q 639 1211 647 1176 l 675 1211 q 675 1081 701 1135 q 574 1026 649 1026 q 511 1041 535 1026 q 469 1073 488 1056 q 431 1105 450 1090 q 381 1119 411 1119 q 331 1091 342 1119 q 328 1026 319 1063 l 292 1026 q 292 1158 265 1106 q 394 1210 319 1210 q 460 1195 435 1210 q 503 1163 485 1181 q 540 1131 522 1146 q 586 1117 558 1117 z "},"Ü":{"ha":914,"x_min":97,"x_max":817,"o":"m 97 435 l 97 958 l 250 958 l 250 461 q 297 206 250 303 q 485 108 344 108 q 596 133 553 108 q 663 203 639 158 q 697 312 688 247 q 706 456 706 376 l 706 958 l 817 958 l 817 443 q 799 262 817 346 q 742 117 782 178 q 635 21 701 56 q 469 -14 568 -14 q 284 21 357 -14 q 170 116 211 56 q 113 258 129 176 q 97 435 97 340 m 296 1042 l 296 1172 l 425 1172 l 425 1042 l 296 1042 m 538 1042 l 538 1172 l 667 1172 l 667 1042 l 538 1042 z "},"Ū":{"ha":914,"x_min":97,"x_max":817,"o":"m 97 435 l 97 958 l 250 958 l 250 461 q 297 206 250 303 q 485 108 344 108 q 596 133 553 108 q 663 203 639 158 q 697 312 688 247 q 706 456 706 376 l 706 958 l 817 958 l 817 443 q 799 262 817 346 q 742 117 782 178 q 635 21 701 56 q 469 -14 568 -14 q 284 21 357 -14 q 170 116 211 56 q 113 258 129 176 q 97 435 97 340 m 288 1164 l 671 1164 l 671 1078 l 288 1078 l 288 1164 z "},"Ŭ":{"ha":914,"x_min":97,"x_max":817,"o":"m 97 435 l 97 958 l 250 958 l 250 461 q 297 206 250 303 q 485 108 344 108 q 596 133 553 108 q 663 203 639 158 q 697 312 688 247 q 706 456 706 376 l 706 958 l 817 958 l 817 443 q 799 262 817 346 q 742 117 782 178 q 635 21 701 56 q 469 -14 568 -14 q 284 21 357 -14 q 170 116 211 56 q 113 258 129 176 q 97 435 97 340 m 276 1217 l 326 1217 q 363 1150 332 1185 q 481 1115 393 1115 q 596 1150 564 1115 q 633 1217 628 1185 l 683 1217 q 676 1147 686 1182 q 643 1083 667 1111 q 579 1038 619 1056 q 481 1021 539 1021 q 382 1038 422 1021 q 317 1083 342 1056 q 283 1147 293 1111 q 276 1217 274 1182 z "},"Ů":{"ha":914,"x_min":97,"x_max":817,"o":"m 97 435 l 97 958 l 250 958 l 250 461 q 297 206 250 303 q 485 108 344 108 q 596 133 553 108 q 663 203 639 158 q 697 312 688 247 q 706 456 706 376 l 706 958 l 817 958 l 817 443 q 799 262 817 346 q 742 117 782 178 q 635 21 701 56 q 469 -14 568 -14 q 284 21 357 -14 q 170 116 211 56 q 113 258 129 176 q 97 435 97 340 m 338 1132 q 378 1232 338 1192 q 483 1272 419 1272 q 590 1232 550 1272 q 631 1132 631 1192 q 590 1033 631 1074 q 483 993 550 993 q 378 1033 419 993 q 338 1132 338 1074 m 556 1122 q 535 1174 556 1153 q 485 1196 515 1196 q 433 1174 453 1196 q 413 1122 413 1153 q 433 1071 413 1092 q 485 1050 453 1050 q 535 1071 515 1050 q 556 1122 556 1092 z "},"Ű":{"ha":914,"x_min":97,"x_max":817,"o":"m 97 435 l 97 958 l 250 958 l 250 461 q 297 206 250 303 q 485 108 344 108 q 596 133 553 108 q 663 203 639 158 q 697 312 688 247 q 706 456 706 376 l 706 958 l 817 958 l 817 443 q 799 262 817 346 q 742 117 782 178 q 635 21 701 56 q 469 -14 568 -14 q 284 21 357 -14 q 170 116 211 56 q 113 258 129 176 q 97 435 97 340 m 306 1044 l 483 1211 l 543 1147 l 354 996 l 306 1044 m 528 1044 l 706 1211 l 765 1147 l 576 996 l 528 1044 z "},"Ų":{"ha":914,"x_min":97,"x_max":817,"o":"m 97 435 l 97 958 l 250 958 l 250 461 q 297 206 250 303 q 485 108 344 108 q 596 133 553 108 q 663 203 639 158 q 697 312 688 247 q 706 456 706 376 l 706 958 l 817 958 l 817 443 q 799 262 817 346 q 742 117 782 178 q 635 21 701 56 q 469 -14 568 -14 q 284 21 357 -14 q 170 116 211 56 q 113 258 129 176 q 97 435 97 340 m 525 -171 q 542 -91 525 -128 q 587 -22 560 -54 q 647 42 614 11 q 711 103 681 72 l 726 97 q 652 -28 683 42 q 621 -158 621 -97 q 632 -204 621 -187 q 672 -221 643 -221 q 706 -203 694 -221 q 718 -160 718 -186 l 756 -160 q 733 -250 757 -212 q 647 -287 708 -287 q 558 -261 592 -287 q 525 -171 525 -235 z "},"Ẁ":{"ha":1289,"x_min":18,"x_max":1283,"o":"m 18 958 l 174 958 l 382 175 l 624 954 l 729 954 l 958 183 l 1163 958 l 1283 958 l 1022 -4 l 872 -4 l 656 688 l 435 -4 l 285 -4 l 18 958 m 471 1122 l 546 1215 l 775 1051 l 739 1014 l 471 1122 z "},"Ẃ":{"ha":1289,"x_min":18,"x_max":1283,"o":"m 18 958 l 174 958 l 382 175 l 624 954 l 729 954 l 958 183 l 1163 958 l 1283 958 l 1022 -4 l 872 -4 l 656 688 l 435 -4 l 285 -4 l 18 958 m 600 1051 l 829 1215 l 904 1122 l 636 1014 l 600 1051 z "},"Ŵ":{"ha":1289,"x_min":18,"x_max":1283,"o":"m 18 958 l 174 958 l 382 175 l 624 954 l 729 954 l 958 183 l 1163 958 l 1283 958 l 1022 -4 l 872 -4 l 656 688 l 435 -4 l 285 -4 l 18 958 m 457 1060 l 650 1213 l 714 1213 l 908 1060 l 875 1013 l 682 1113 l 489 1013 l 457 1060 z "},"Ẅ":{"ha":1289,"x_min":18,"x_max":1283,"o":"m 18 958 l 174 958 l 382 175 l 624 954 l 729 954 l 958 183 l 1163 958 l 1283 958 l 1022 -4 l 872 -4 l 656 688 l 435 -4 l 285 -4 l 18 958 m 488 1042 l 488 1172 l 617 1172 l 617 1042 l 488 1042 m 729 1042 l 729 1172 l 858 1172 l 858 1042 l 729 1042 z "},"Ỳ":{"ha":765,"x_min":-4,"x_max":778,"o":"m 463 396 l 463 0 l 319 0 l 319 400 l -4 958 l 172 958 l 417 528 l 658 958 l 778 958 l 463 396 m 240 1122 l 315 1215 l 544 1051 l 508 1014 l 240 1122 z "},"Ý":{"ha":765,"x_min":-4,"x_max":778,"o":"m 463 396 l 463 0 l 319 0 l 319 400 l -4 958 l 172 958 l 417 528 l 658 958 l 778 958 l 463 396 m 308 1051 l 538 1215 l 613 1122 l 344 1014 l 308 1051 z "},"Ŷ":{"ha":765,"x_min":-4,"x_max":778,"o":"m 463 396 l 463 0 l 319 0 l 319 400 l -4 958 l 172 958 l 417 528 l 658 958 l 778 958 l 463 396 m 186 1060 l 379 1213 l 443 1213 l 638 1060 l 604 1013 l 411 1113 l 218 1013 l 186 1060 z "},"Ÿ":{"ha":765,"x_min":-4,"x_max":778,"o":"m 463 396 l 463 0 l 319 0 l 319 400 l -4 958 l 172 958 l 417 528 l 658 958 l 778 958 l 463 396 m 221 1042 l 221 1172 l 350 1172 l 350 1042 l 221 1042 m 463 1042 l 463 1172 l 592 1172 l 592 1042 l 463 1042 z "},"Ź":{"ha":768,"x_min":56,"x_max":713,"o":"m 56 100 l 526 851 l 78 851 l 78 956 l 701 956 l 701 860 l 228 108 l 713 108 l 713 4 l 56 4 l 56 100 m 281 1049 l 510 1213 l 585 1119 l 317 1011 l 281 1049 z "},"Ž":{"ha":768,"x_min":56,"x_max":713,"o":"m 56 100 l 526 851 l 78 851 l 78 956 l 701 956 l 701 860 l 228 108 l 713 108 l 713 4 l 56 4 l 56 100 m 174 1165 l 207 1213 l 400 1113 l 593 1213 l 625 1165 l 432 1013 l 368 1013 l 174 1165 z "},"Ż":{"ha":768,"x_min":56,"x_max":713,"o":"m 56 100 l 526 851 l 78 851 l 78 956 l 701 956 l 701 860 l 228 108 l 713 108 l 713 4 l 56 4 l 56 100 m 319 1040 l 319 1176 l 468 1176 l 468 1040 l 319 1040 z "},"Ə":{"ha":953,"x_min":93,"x_max":882,"o":"m 882 485 q 850 274 882 367 q 761 117 818 181 q 625 19 704 53 q 451 -15 546 -15 q 269 22 340 -15 q 160 113 199 58 q 107 231 121 167 q 93 350 93 294 q 95 403 93 372 q 99 449 97 433 l 731 449 q 731 455 731 451 q 731 461 731 458 l 731 490 q 705 649 729 582 q 640 759 681 717 q 547 822 600 801 q 435 842 493 842 q 330 827 375 842 q 251 790 285 813 q 197 740 218 768 q 163 685 175 711 l 97 685 q 141 811 108 757 q 222 900 174 865 q 331 952 269 935 q 461 969 393 969 q 629 938 551 969 q 763 846 707 907 q 850 694 818 785 q 882 485 882 603 m 454 103 q 626 165 554 103 q 721 351 699 228 l 233 351 q 235 294 232 335 q 258 210 238 253 q 325 135 279 168 q 454 103 371 103 z "},"Ŋ":{"ha":939,"x_min":111,"x_max":828,"o":"m 592 -343 q 484 -324 528 -343 q 415 -272 440 -304 q 379 -200 390 -240 q 368 -117 368 -160 l 436 -117 q 468 -207 438 -168 q 568 -246 499 -246 q 680 -187 646 -246 q 714 -7 714 -128 l 224 733 l 224 0 l 111 0 l 111 958 l 251 958 l 714 253 l 714 958 l 828 958 l 828 -7 q 775 -251 826 -160 q 592 -343 724 -343 z "},"Ð":{"ha":922,"x_min":14,"x_max":867,"o":"m 14 532 l 111 532 l 111 958 l 374 958 q 593 922 500 958 q 747 823 686 886 q 837 672 807 760 q 867 485 867 585 q 825 252 867 346 q 715 103 783 158 q 557 24 646 47 q 374 0 468 0 l 111 0 l 111 463 l 14 463 l 14 532 m 478 463 l 254 463 l 254 104 l 375 104 q 624 201 532 104 q 715 485 715 299 q 695 633 715 565 q 633 751 675 701 q 527 827 592 800 q 375 854 463 854 l 254 854 l 254 532 l 478 532 l 478 463 z "},"Þ":{"ha":782,"x_min":111,"x_max":757,"o":"m 111 958 l 254 958 l 254 774 l 431 774 q 561 756 501 774 q 665 701 621 738 q 733 613 708 665 q 757 492 757 560 q 731 358 757 414 q 662 266 706 301 q 559 214 618 231 q 435 197 500 197 l 254 197 l 254 0 l 111 0 l 111 958 m 394 669 l 254 669 l 254 301 l 404 301 q 483 311 444 301 q 550 342 521 321 q 597 399 579 363 q 615 486 615 435 q 551 626 615 582 q 394 669 488 669 z "},"a":{"ha":667,"x_min":53,"x_max":654,"o":"m 53 160 q 108 299 53 239 q 296 360 164 360 q 367 352 329 360 q 431 333 406 344 l 431 425 q 394 543 431 504 q 289 582 358 582 q 183 542 221 582 q 138 450 144 503 l 85 450 q 98 538 85 496 q 140 612 111 581 q 214 662 168 643 q 324 681 260 681 q 501 618 443 681 q 558 450 558 556 l 558 186 q 576 76 558 101 q 617 50 593 50 q 629 52 622 50 q 642 58 636 54 l 654 35 q 619 3 644 17 q 563 -11 594 -11 q 473 13 507 -11 q 432 106 439 38 q 357 21 406 56 q 232 -14 308 -14 q 99 36 144 -14 q 53 160 53 86 m 186 171 q 212 99 186 124 q 285 74 238 74 q 351 92 324 74 q 397 138 379 110 q 422 202 414 167 q 431 274 431 238 l 431 281 q 385 291 413 286 q 329 296 357 296 q 221 262 256 296 q 186 171 186 228 z "},"b":{"ha":764,"x_min":101,"x_max":708,"o":"m 101 979 l 236 986 l 236 515 q 311 634 260 588 q 446 681 363 681 q 542 660 494 681 q 626 599 589 640 q 685 492 663 557 q 708 338 708 426 q 634 81 708 176 q 446 -14 560 -14 q 310 34 368 -14 q 228 182 253 82 l 215 0 l 101 0 l 101 979 m 571 324 q 519 515 571 456 q 401 574 467 574 q 282 511 328 574 q 236 319 236 449 q 288 145 236 208 q 403 82 339 82 q 525 149 479 82 q 571 324 571 215 z "},"c":{"ha":651,"x_min":56,"x_max":596,"o":"m 56 317 q 76 460 56 393 q 134 576 96 526 q 226 653 172 625 q 349 681 281 681 q 449 665 408 681 q 517 626 490 650 q 556 572 543 603 q 574 510 569 540 q 575 477 575 493 q 574 447 575 461 l 513 447 q 502 492 510 469 q 478 534 494 515 q 435 565 461 553 q 368 578 408 578 q 238 504 282 578 q 193 324 193 431 q 249 140 193 203 q 379 78 304 78 q 496 119 454 78 q 547 231 538 160 l 596 231 q 535 56 596 125 q 353 -14 474 -14 q 244 3 297 -14 q 149 60 190 21 q 81 162 107 99 q 56 317 56 225 z "},"d":{"ha":764,"x_min":56,"x_max":663,"o":"m 56 331 q 130 586 56 492 q 318 681 204 681 q 444 636 389 681 q 528 508 500 592 l 528 979 l 663 986 l 663 0 l 556 0 l 542 190 q 470 39 524 92 q 318 -14 417 -14 q 222 6 269 -14 q 138 68 175 26 q 78 175 101 110 q 56 331 56 240 m 528 338 q 476 511 528 449 q 361 574 425 574 q 239 508 285 574 q 193 333 193 442 q 245 142 193 201 q 363 82 297 82 q 482 145 436 82 q 528 338 528 208 z "},"e":{"ha":667,"x_min":56,"x_max":611,"o":"m 56 313 q 76 456 56 389 q 134 574 96 524 q 227 652 172 624 q 350 681 282 681 q 463 661 417 681 q 536 610 508 642 q 576 538 564 578 q 589 457 589 497 q 585 396 589 432 q 581 346 582 360 l 192 346 l 192 324 q 241 145 192 210 q 386 81 290 81 q 513 122 469 81 q 563 231 556 164 l 611 231 q 544 52 611 118 q 356 -14 476 -14 q 136 69 217 -14 q 56 313 56 151 m 358 575 q 253 533 294 575 q 197 417 211 490 l 478 417 q 480 430 479 419 q 481 454 481 440 q 457 536 481 497 q 358 575 433 575 z "},"f":{"ha":424,"x_min":21,"x_max":468,"o":"m 128 0 l 128 586 q 128 590 128 588 q 128 594 128 593 l 21 594 l 21 646 l 125 660 l 125 660 q 118 726 122 699 q 114 794 114 754 q 165 930 114 874 q 311 986 217 986 q 417 957 379 986 q 464 885 454 928 q 467 855 467 871 q 467 821 468 839 l 425 821 q 400 874 422 853 q 332 894 378 894 q 253 863 279 894 q 228 789 228 832 q 237 727 229 754 q 251 660 244 700 l 426 660 l 426 594 l 260 594 q 262 558 261 578 q 263 515 263 538 l 263 0 l 128 0 z "},"g":{"ha":699,"x_min":43,"x_max":701,"o":"m 71 446 q 142 615 71 549 q 336 681 213 681 q 457 655 400 681 q 549 582 514 629 q 578 662 554 643 q 626 681 603 681 q 684 660 668 681 q 701 614 700 639 q 701 592 703 603 q 696 572 699 581 l 672 572 q 665 602 672 589 q 638 615 658 615 q 603 595 617 615 q 590 526 590 575 l 590 443 l 590 443 q 521 274 588 339 q 336 208 454 208 q 283 212 310 208 q 233 222 257 215 q 193 196 215 214 q 171 147 171 178 q 207 95 171 111 q 331 79 243 79 l 397 79 q 594 33 526 79 q 663 -112 663 -14 q 578 -283 663 -219 q 328 -347 493 -347 q 113 -294 182 -347 q 43 -154 43 -242 q 49 -115 43 -132 q 61 -86 56 -99 l 111 -86 q 108 -106 110 -94 q 106 -129 106 -118 q 161 -228 106 -197 q 324 -258 217 -258 q 485 -228 436 -258 q 535 -142 535 -197 q 497 -76 535 -99 q 378 -53 458 -53 l 294 -53 q 131 -18 185 -53 q 78 99 78 17 q 115 188 78 153 q 188 240 153 222 q 103 319 135 268 q 71 446 71 371 m 468 440 q 429 547 468 506 q 333 588 390 588 q 232 543 269 588 q 194 436 194 499 q 235 322 194 360 q 332 285 275 285 q 430 326 392 285 q 468 440 468 368 z "},"h":{"ha":750,"x_min":101,"x_max":660,"o":"m 660 0 l 525 0 l 525 354 q 497 517 525 465 q 393 568 468 568 q 276 490 314 568 q 236 275 238 413 l 236 0 l 101 0 l 101 979 l 236 986 l 236 464 q 301 616 253 551 q 451 681 350 681 q 616 608 572 681 q 660 417 660 536 l 660 0 z "},"i":{"ha":350,"x_min":103,"x_max":251,"o":"m 106 660 l 240 667 l 240 0 l 106 0 l 106 660 m 103 850 l 103 986 l 251 986 l 251 850 l 103 850 z "},"j":{"ha":372,"x_min":-37,"x_max":281,"o":"m -37 -185 l 4 -185 q 22 -235 8 -217 q 68 -254 36 -254 q 116 -221 100 -254 q 132 -118 132 -187 l 132 660 l 267 667 l 267 -67 q 228 -277 267 -207 q 97 -347 189 -347 q 28 -333 54 -347 q -13 -295 1 -318 q -33 -243 -28 -272 q -37 -185 -37 -214 m 132 850 l 132 986 l 281 986 l 281 850 l 132 850 z "},"k":{"ha":690,"x_min":101,"x_max":672,"o":"m 101 979 l 236 986 l 236 397 l 506 660 l 638 660 l 406 438 l 672 0 l 515 0 l 313 347 l 236 275 l 236 0 l 101 0 l 101 979 z "},"l":{"ha":343,"x_min":104,"x_max":239,"o":"m 104 979 l 239 986 l 239 0 l 104 0 l 104 979 z "},"m":{"ha":1144,"x_min":97,"x_max":1054,"o":"m 643 0 l 508 0 l 508 354 q 483 517 508 465 q 383 568 457 568 q 268 490 304 568 q 232 275 232 411 l 232 0 l 97 0 l 97 660 l 214 667 l 228 467 l 228 461 q 289 615 242 550 q 440 681 336 681 q 595 619 553 681 q 642 453 638 557 q 666 540 650 499 q 708 613 682 582 q 770 663 733 644 q 857 681 807 681 q 1016 608 978 681 q 1054 417 1054 536 l 1054 0 l 919 0 l 919 354 q 894 517 919 465 q 794 568 868 568 q 725 546 754 568 q 678 483 696 524 q 651 388 660 443 q 643 268 643 333 l 643 0 z "},"n":{"ha":746,"x_min":97,"x_max":656,"o":"m 656 0 l 521 0 l 521 354 q 492 517 521 465 q 390 568 464 568 q 272 490 311 568 q 232 275 232 413 l 232 0 l 97 0 l 97 660 l 214 667 l 228 467 l 228 460 q 291 616 242 551 q 447 681 340 681 q 612 608 568 681 q 656 417 656 536 l 656 0 z "},"o":{"ha":717,"x_min":56,"x_max":661,"o":"m 56 332 q 141 587 56 493 q 360 681 226 681 q 478 658 424 681 q 574 591 533 635 q 638 481 614 547 q 661 329 661 415 q 581 77 661 168 q 360 -14 500 -14 q 238 8 294 -14 q 142 74 182 31 q 78 182 101 117 q 56 332 56 247 m 526 335 q 483 509 526 443 q 358 575 439 575 q 236 511 282 575 q 190 335 190 447 q 236 146 190 210 q 360 82 282 82 q 480 144 433 82 q 526 335 526 207 z "},"p":{"ha":760,"x_min":97,"x_max":704,"o":"m 97 660 l 211 667 l 224 485 q 296 626 243 572 q 442 681 349 681 q 538 660 490 681 q 622 599 585 640 q 681 492 658 557 q 704 338 704 426 q 630 81 704 176 q 442 -14 556 -14 q 314 28 369 -14 q 232 157 258 69 l 232 -333 l 97 -333 l 97 660 m 567 321 q 515 515 567 454 q 399 575 463 575 q 278 511 324 575 q 232 318 232 447 q 283 144 232 206 q 399 82 335 82 q 522 147 476 82 q 567 321 567 213 z "},"q":{"ha":761,"x_min":56,"x_max":664,"o":"m 56 331 q 130 586 56 492 q 318 681 204 681 q 451 633 393 681 q 535 494 508 586 l 536 503 l 550 660 l 664 667 l 664 -333 l 528 -333 l 528 139 q 452 26 503 67 q 318 -14 401 -14 q 222 6 269 -14 q 138 68 175 26 q 78 175 101 110 q 56 331 56 240 m 528 338 q 476 511 528 449 q 361 574 425 574 q 239 508 285 574 q 193 335 193 443 q 245 142 193 201 q 363 82 297 82 q 482 145 436 82 q 528 338 528 208 z "},"r":{"ha":568,"x_min":97,"x_max":546,"o":"m 97 660 l 211 667 l 222 465 q 242 547 229 508 q 277 616 256 586 q 331 663 299 646 q 406 681 363 681 q 473 663 446 681 q 516 620 500 646 q 539 565 532 594 q 546 510 546 535 q 543 472 546 488 q 536 443 540 457 l 479 443 q 478 475 479 458 q 471 506 476 492 q 442 549 463 532 q 385 567 422 567 q 265 480 297 567 q 232 246 232 393 l 232 0 l 97 0 l 97 660 z "},"s":{"ha":613,"x_min":53,"x_max":560,"o":"m 53 214 l 111 214 q 167 101 124 142 q 286 61 211 61 q 383 83 342 61 q 425 160 425 104 q 394 232 425 207 q 283 276 363 257 q 129 348 183 303 q 75 481 75 393 q 142 626 75 572 q 318 681 210 681 q 483 628 422 681 q 535 483 544 575 l 474 483 q 435 565 471 529 q 332 600 400 600 q 241 578 276 600 q 206 504 206 556 q 243 435 206 456 q 365 392 281 414 q 515 314 471 364 q 560 189 560 264 q 490 41 560 96 q 307 -14 419 -14 q 116 47 179 -14 q 53 214 53 107 z "},"t":{"ha":481,"x_min":7,"x_max":443,"o":"m 114 201 l 114 594 l 7 594 l 7 646 l 114 660 l 114 817 l 249 826 l 249 660 l 428 660 l 428 594 l 249 594 l 249 182 q 265 107 249 136 q 331 78 282 78 q 390 96 371 78 q 408 144 408 114 l 443 144 q 408 28 443 69 q 290 -14 372 -14 q 156 38 199 -14 q 114 201 114 89 z "},"u":{"ha":746,"x_min":90,"x_max":649,"o":"m 518 181 l 517 196 q 451 48 500 110 q 299 -14 401 -14 q 134 58 178 -14 q 90 250 90 131 l 90 660 l 225 667 l 225 313 q 253 151 225 201 q 357 100 282 100 q 475 178 436 100 q 514 393 514 256 l 514 660 l 649 667 l 649 0 l 525 0 l 518 181 z "},"v":{"ha":629,"x_min":11,"x_max":619,"o":"m 11 660 l 160 660 l 329 154 l 501 660 l 619 660 l 383 0 l 247 0 l 11 660 z "},"w":{"ha":979,"x_min":14,"x_max":965,"o":"m 14 660 l 158 660 l 306 169 l 460 619 l 553 619 l 710 169 l 856 660 l 965 660 l 765 0 l 642 0 l 485 435 l 328 0 l 217 0 l 14 660 z "},"x":{"ha":636,"x_min":18,"x_max":618,"o":"m 457 0 l 293 271 l 131 0 l 18 0 l 235 340 l 36 660 l 189 660 l 338 418 l 485 660 l 596 660 l 394 349 l 618 0 l 457 0 z "},"y":{"ha":644,"x_min":11,"x_max":633,"o":"m 24 -193 l 58 -193 q 75 -237 58 -218 q 131 -256 92 -256 q 192 -226 169 -256 q 238 -133 215 -197 l 282 -15 l 11 660 l 156 660 l 351 176 l 514 660 l 633 660 l 314 -194 q 237 -314 281 -281 q 149 -347 193 -347 q 73 -329 99 -347 q 36 -286 47 -311 q 24 -235 25 -261 q 24 -193 24 -208 z "},"z":{"ha":596,"x_min":49,"x_max":547,"o":"m 49 74 l 396 563 l 71 563 l 71 660 l 543 660 l 543 569 l 210 97 l 547 97 l 547 0 l 49 0 l 49 74 z "},"à":{"ha":667,"x_min":53,"x_max":654,"o":"m 53 160 q 108 299 53 239 q 296 360 164 360 q 367 352 329 360 q 431 333 406 344 l 431 425 q 394 543 431 504 q 289 582 358 582 q 183 542 221 582 q 138 450 144 503 l 85 450 q 98 538 85 496 q 140 612 111 581 q 214 662 168 643 q 324 681 260 681 q 501 618 443 681 q 558 450 558 556 l 558 186 q 576 76 558 101 q 617 50 593 50 q 629 52 622 50 q 642 58 636 54 l 654 35 q 619 3 644 17 q 563 -11 594 -11 q 473 13 507 -11 q 432 106 439 38 q 357 21 406 56 q 232 -14 308 -14 q 99 36 144 -14 q 53 160 53 86 m 186 171 q 212 99 186 124 q 285 74 238 74 q 351 92 324 74 q 397 138 379 110 q 422 202 414 167 q 431 274 431 238 l 431 281 q 385 291 413 286 q 329 296 357 296 q 221 262 256 296 q 186 171 186 228 m 165 986 l 250 1064 l 439 811 l 383 765 l 165 986 z "},"á":{"ha":667,"x_min":53,"x_max":654,"o":"m 53 160 q 108 299 53 239 q 296 360 164 360 q 367 352 329 360 q 431 333 406 344 l 431 425 q 394 543 431 504 q 289 582 358 582 q 183 542 221 582 q 138 450 144 503 l 85 450 q 98 538 85 496 q 140 612 111 581 q 214 662 168 643 q 324 681 260 681 q 501 618 443 681 q 558 450 558 556 l 558 186 q 576 76 558 101 q 617 50 593 50 q 629 52 622 50 q 642 58 636 54 l 654 35 q 619 3 644 17 q 563 -11 594 -11 q 473 13 507 -11 q 432 106 439 38 q 357 21 406 56 q 232 -14 308 -14 q 99 36 144 -14 q 53 160 53 86 m 186 171 q 212 99 186 124 q 285 74 238 74 q 351 92 324 74 q 397 138 379 110 q 422 202 414 167 q 431 274 431 238 l 431 281 q 385 291 413 286 q 329 296 357 296 q 221 262 256 296 q 186 171 186 228 m 244 811 l 433 1064 l 518 986 l 300 765 l 244 811 z "},"â":{"ha":667,"x_min":53,"x_max":654,"o":"m 53 160 q 108 299 53 239 q 296 360 164 360 q 367 352 329 360 q 431 333 406 344 l 431 425 q 394 543 431 504 q 289 582 358 582 q 183 542 221 582 q 138 450 144 503 l 85 450 q 98 538 85 496 q 140 612 111 581 q 214 662 168 643 q 324 681 260 681 q 501 618 443 681 q 558 450 558 556 l 558 186 q 576 76 558 101 q 617 50 593 50 q 629 52 622 50 q 642 58 636 54 l 654 35 q 619 3 644 17 q 563 -11 594 -11 q 473 13 507 -11 q 432 106 439 38 q 357 21 406 56 q 232 -14 308 -14 q 99 36 144 -14 q 53 160 53 86 m 186 171 q 212 99 186 124 q 285 74 238 74 q 351 92 324 74 q 397 138 379 110 q 422 202 414 167 q 431 274 431 238 l 431 281 q 385 291 413 286 q 329 296 357 296 q 221 262 256 296 q 186 171 186 228 m 108 808 l 297 1046 l 371 1046 l 560 808 l 513 764 l 335 939 l 156 764 l 108 808 z "},"ã":{"ha":667,"x_min":53,"x_max":654,"o":"m 53 160 q 108 299 53 239 q 296 360 164 360 q 367 352 329 360 q 431 333 406 344 l 431 425 q 394 543 431 504 q 289 582 358 582 q 183 542 221 582 q 138 450 144 503 l 85 450 q 98 538 85 496 q 140 612 111 581 q 214 662 168 643 q 324 681 260 681 q 501 618 443 681 q 558 450 558 556 l 558 186 q 576 76 558 101 q 617 50 593 50 q 629 52 622 50 q 642 58 636 54 l 654 35 q 619 3 644 17 q 563 -11 594 -11 q 473 13 507 -11 q 432 106 439 38 q 357 21 406 56 q 232 -14 308 -14 q 99 36 144 -14 q 53 160 53 86 m 186 171 q 212 99 186 124 q 285 74 238 74 q 351 92 324 74 q 397 138 379 110 q 422 202 414 167 q 431 274 431 238 l 431 281 q 385 291 413 286 q 329 296 357 296 q 221 262 256 296 q 186 171 186 228 m 131 807 q 128 958 100 899 q 228 1018 156 1018 q 296 1000 271 1018 q 339 961 321 982 q 374 922 357 940 q 421 904 392 904 q 472 940 463 904 q 471 1019 482 975 l 507 1019 q 509 869 536 931 q 410 808 482 808 q 346 826 369 808 q 305 865 322 844 q 268 904 288 886 q 217 922 249 922 q 165 887 175 922 q 165 807 154 851 l 131 807 z "},"ä":{"ha":667,"x_min":53,"x_max":654,"o":"m 53 160 q 108 299 53 239 q 296 360 164 360 q 367 352 329 360 q 431 333 406 344 l 431 425 q 394 543 431 504 q 289 582 358 582 q 183 542 221 582 q 138 450 144 503 l 85 450 q 98 538 85 496 q 140 612 111 581 q 214 662 168 643 q 324 681 260 681 q 501 618 443 681 q 558 450 558 556 l 558 186 q 576 76 558 101 q 617 50 593 50 q 629 52 622 50 q 642 58 636 54 l 654 35 q 619 3 644 17 q 563 -11 594 -11 q 473 13 507 -11 q 432 106 439 38 q 357 21 406 56 q 232 -14 308 -14 q 99 36 144 -14 q 53 160 53 86 m 186 171 q 212 99 186 124 q 285 74 238 74 q 351 92 324 74 q 397 138 379 110 q 422 202 414 167 q 431 274 431 238 l 431 281 q 385 291 413 286 q 329 296 357 296 q 221 262 256 296 q 186 171 186 228 m 153 856 l 153 986 l 282 986 l 282 856 l 153 856 m 394 856 l 394 986 l 524 986 l 524 856 l 394 856 z "},"ā":{"ha":667,"x_min":53,"x_max":654,"o":"m 53 160 q 108 299 53 239 q 296 360 164 360 q 367 352 329 360 q 431 333 406 344 l 431 425 q 394 543 431 504 q 289 582 358 582 q 183 542 221 582 q 138 450 144 503 l 85 450 q 98 538 85 496 q 140 612 111 581 q 214 662 168 643 q 324 681 260 681 q 501 618 443 681 q 558 450 558 556 l 558 186 q 576 76 558 101 q 617 50 593 50 q 629 52 622 50 q 642 58 636 54 l 654 35 q 619 3 644 17 q 563 -11 594 -11 q 473 13 507 -11 q 432 106 439 38 q 357 21 406 56 q 232 -14 308 -14 q 99 36 144 -14 q 53 160 53 86 m 186 171 q 212 99 186 124 q 285 74 238 74 q 351 92 324 74 q 397 138 379 110 q 422 202 414 167 q 431 274 431 238 l 431 281 q 385 291 413 286 q 329 296 357 296 q 221 262 256 296 q 186 171 186 228 m 146 986 l 529 986 l 529 900 l 146 900 l 146 986 z "},"ă":{"ha":667,"x_min":53,"x_max":654,"o":"m 53 160 q 108 299 53 239 q 296 360 164 360 q 367 352 329 360 q 431 333 406 344 l 431 425 q 394 543 431 504 q 289 582 358 582 q 183 542 221 582 q 138 450 144 503 l 85 450 q 98 538 85 496 q 140 612 111 581 q 214 662 168 643 q 324 681 260 681 q 501 618 443 681 q 558 450 558 556 l 558 186 q 576 76 558 101 q 617 50 593 50 q 629 52 622 50 q 642 58 636 54 l 654 35 q 619 3 644 17 q 563 -11 594 -11 q 473 13 507 -11 q 432 106 439 38 q 357 21 406 56 q 232 -14 308 -14 q 99 36 144 -14 q 53 160 53 86 m 186 171 q 212 99 186 124 q 285 74 238 74 q 351 92 324 74 q 397 138 379 110 q 422 202 414 167 q 431 274 431 238 l 431 281 q 385 291 413 286 q 329 296 357 296 q 221 262 256 296 q 186 171 186 228 m 347 800 q 248 822 288 800 q 185 878 208 844 q 153 953 161 911 q 147 1033 144 994 l 199 1033 q 207 992 200 1015 q 230 949 214 969 q 274 914 246 928 q 347 900 303 900 q 420 914 392 900 q 465 949 449 928 q 488 992 481 969 q 497 1033 494 1015 l 547 1033 q 542 953 550 994 q 510 878 533 911 q 447 822 486 844 q 347 800 407 800 z "},"å":{"ha":667,"x_min":53,"x_max":654,"o":"m 53 160 q 108 299 53 239 q 296 360 164 360 q 367 352 329 360 q 431 333 406 344 l 431 425 q 394 543 431 504 q 289 582 358 582 q 183 542 221 582 q 138 450 144 503 l 85 450 q 98 538 85 496 q 140 612 111 581 q 214 662 168 643 q 324 681 260 681 q 501 618 443 681 q 558 450 558 556 l 558 186 q 576 76 558 101 q 617 50 593 50 q 629 52 622 50 q 642 58 636 54 l 654 35 q 619 3 644 17 q 563 -11 594 -11 q 473 13 507 -11 q 432 106 439 38 q 357 21 406 56 q 232 -14 308 -14 q 99 36 144 -14 q 53 160 53 86 m 186 171 q 212 99 186 124 q 285 74 238 74 q 351 92 324 74 q 397 138 379 110 q 422 202 414 167 q 431 274 431 238 l 431 281 q 385 291 413 286 q 329 296 357 296 q 221 262 256 296 q 186 171 186 228 m 190 947 q 233 1050 190 1008 q 340 1092 275 1092 q 451 1050 410 1092 q 493 947 493 1008 q 451 845 493 888 q 340 803 410 803 q 232 845 274 803 q 190 947 190 888 m 418 938 q 397 995 418 972 q 342 1018 375 1018 q 285 995 307 1018 q 264 938 264 972 q 285 882 264 904 q 342 860 307 860 q 397 882 375 860 q 418 938 418 904 z "},"ǻ":{"ha":667,"x_min":53,"x_max":654,"o":"m 53 160 q 108 299 53 239 q 296 360 164 360 q 367 352 329 360 q 431 333 406 344 l 431 425 q 394 543 431 504 q 289 582 358 582 q 183 542 221 582 q 138 450 144 503 l 85 450 q 98 538 85 496 q 140 612 111 581 q 214 662 168 643 q 324 681 260 681 q 501 618 443 681 q 558 450 558 556 l 558 186 q 576 76 558 101 q 617 50 593 50 q 629 52 622 50 q 642 58 636 54 l 654 35 q 619 3 644 17 q 563 -11 594 -11 q 473 13 507 -11 q 432 106 439 38 q 357 21 406 56 q 232 -14 308 -14 q 99 36 144 -14 q 53 160 53 86 m 186 171 q 212 99 186 124 q 285 74 238 74 q 351 92 324 74 q 397 138 379 110 q 422 202 414 167 q 431 274 431 238 l 431 281 q 385 291 413 286 q 329 296 357 296 q 221 262 256 296 q 186 171 186 228 m 183 885 q 226 988 183 946 q 333 1029 268 1029 q 444 988 403 1029 q 486 885 486 946 q 444 783 486 825 q 333 740 403 740 q 225 783 267 740 q 183 885 183 825 m 411 875 q 390 933 411 910 q 335 956 368 956 q 278 933 300 956 q 257 875 257 910 q 278 819 257 842 q 335 797 300 797 q 390 819 368 797 q 411 875 411 842 m 206 1125 l 435 1289 l 510 1196 l 242 1088 l 206 1125 z "},"ą":{"ha":667,"x_min":53,"x_max":654,"o":"m 53 160 q 108 299 53 239 q 296 360 164 360 q 367 352 329 360 q 431 333 406 344 l 431 425 q 394 543 431 504 q 289 582 358 582 q 183 542 221 582 q 138 450 144 503 l 85 450 q 98 538 85 496 q 140 612 111 581 q 214 662 168 643 q 324 681 260 681 q 501 618 443 681 q 558 450 558 556 l 558 186 q 576 76 558 101 q 617 50 593 50 q 629 52 622 50 q 642 58 636 54 l 654 35 q 636 13 649 24 q 607 -3 624 3 q 533 -65 564 -25 q 501 -162 501 -106 q 514 -207 501 -189 q 556 -225 526 -225 q 594 -206 582 -225 q 606 -160 606 -186 l 638 -160 q 616 -250 640 -212 q 529 -287 592 -287 q 445 -257 474 -287 q 417 -179 417 -226 q 453 -81 417 -121 q 539 -10 489 -42 q 466 20 494 -6 q 432 106 438 46 q 357 21 406 56 q 232 -14 308 -14 q 99 36 144 -14 q 53 160 53 86 m 186 171 q 212 99 186 124 q 285 74 238 74 q 351 92 324 74 q 397 138 379 110 q 422 202 414 167 q 431 274 431 238 l 431 281 q 385 291 413 286 q 329 296 357 296 q 221 262 256 296 q 186 171 186 228 z "},"æ":{"ha":1036,"x_min":53,"x_max":981,"o":"m 981 235 q 914 58 981 129 q 726 -14 847 -14 q 580 19 640 -14 q 485 114 519 51 q 390 24 450 61 q 249 -14 329 -14 q 101 34 149 -14 q 53 156 53 82 q 108 295 53 235 q 296 356 164 356 q 367 347 329 356 q 431 329 406 339 l 431 425 q 394 542 431 500 q 279 585 358 585 q 167 544 204 585 q 125 450 131 504 l 85 450 q 97 538 85 496 q 138 612 110 581 q 209 662 165 643 q 314 681 253 681 q 440 650 392 681 q 511 568 488 619 q 601 650 546 619 q 726 681 656 681 q 835 661 790 681 q 906 610 879 642 q 946 538 933 578 q 958 457 958 497 q 956 397 958 432 q 950 349 953 363 l 561 349 l 561 347 l 561 324 q 610 145 561 210 q 758 81 658 81 q 889 124 842 81 q 939 235 936 167 l 981 235 m 728 575 q 624 533 667 575 q 567 414 581 492 l 849 414 q 850 428 849 417 q 851 454 851 440 q 847 494 851 472 q 830 533 843 515 q 792 563 817 551 q 728 575 768 575 m 285 74 q 351 91 324 74 q 397 137 379 108 q 422 201 414 165 q 431 274 431 238 l 431 281 q 384 291 413 286 q 329 296 356 296 q 218 262 256 296 q 181 171 181 228 q 209 99 181 124 q 285 74 238 74 z "},"ǽ":{"ha":1036,"x_min":53,"x_max":981,"o":"m 981 235 q 914 58 981 129 q 726 -14 847 -14 q 580 19 640 -14 q 485 114 519 51 q 390 24 450 61 q 249 -14 329 -14 q 101 34 149 -14 q 53 156 53 82 q 108 295 53 235 q 296 356 164 356 q 367 347 329 356 q 431 329 406 339 l 431 425 q 394 542 431 500 q 279 585 358 585 q 167 544 204 585 q 125 450 131 504 l 85 450 q 97 538 85 496 q 138 612 110 581 q 209 662 165 643 q 314 681 253 681 q 440 650 392 681 q 511 568 488 619 q 601 650 546 619 q 726 681 656 681 q 835 661 790 681 q 906 610 879 642 q 946 538 933 578 q 958 457 958 497 q 956 397 958 432 q 950 349 953 363 l 561 349 l 561 347 l 561 324 q 610 145 561 210 q 758 81 658 81 q 889 124 842 81 q 939 235 936 167 l 981 235 m 728 575 q 624 533 667 575 q 567 414 581 492 l 849 414 q 850 428 849 417 q 851 454 851 440 q 847 494 851 472 q 830 533 843 515 q 792 563 817 551 q 728 575 768 575 m 285 74 q 351 91 324 74 q 397 137 379 108 q 422 201 414 165 q 431 274 431 238 l 431 281 q 384 291 413 286 q 329 296 356 296 q 218 262 256 296 q 181 171 181 228 q 209 99 181 124 q 285 74 238 74 m 515 811 l 704 1064 l 789 986 l 571 765 l 515 811 z "},"ć":{"ha":651,"x_min":56,"x_max":596,"o":"m 56 317 q 76 460 56 393 q 134 576 96 526 q 226 653 172 625 q 349 681 281 681 q 449 665 408 681 q 517 626 490 650 q 556 572 543 603 q 574 510 569 540 q 575 477 575 493 q 574 447 575 461 l 513 447 q 502 492 510 469 q 478 534 494 515 q 435 565 461 553 q 368 578 408 578 q 238 504 282 578 q 193 324 193 431 q 249 140 193 203 q 379 78 304 78 q 496 119 454 78 q 547 231 538 160 l 596 231 q 535 56 596 125 q 353 -14 474 -14 q 244 3 297 -14 q 149 60 190 21 q 81 162 107 99 q 56 317 56 225 m 249 811 l 438 1064 l 522 986 l 304 765 l 249 811 z "},"ĉ":{"ha":651,"x_min":56,"x_max":596,"o":"m 56 317 q 76 460 56 393 q 134 576 96 526 q 226 653 172 625 q 349 681 281 681 q 449 665 408 681 q 517 626 490 650 q 556 572 543 603 q 574 510 569 540 q 575 477 575 493 q 574 447 575 461 l 513 447 q 502 492 510 469 q 478 534 494 515 q 435 565 461 553 q 368 578 408 578 q 238 504 282 578 q 193 324 193 431 q 249 140 193 203 q 379 78 304 78 q 496 119 454 78 q 547 231 538 160 l 596 231 q 535 56 596 125 q 353 -14 474 -14 q 244 3 297 -14 q 149 60 190 21 q 81 162 107 99 q 56 317 56 225 m 136 808 l 325 1046 l 399 1046 l 588 808 l 540 764 l 363 939 l 183 764 l 136 808 z "},"č":{"ha":653,"x_min":56,"x_max":596,"o":"m 56 317 q 76 460 56 393 q 134 576 96 526 q 226 653 172 625 q 349 681 281 681 q 449 665 408 681 q 517 626 490 650 q 556 572 543 603 q 574 510 569 540 q 575 477 575 493 q 574 447 575 461 l 513 447 q 502 492 510 469 q 478 534 494 515 q 435 565 461 553 q 368 578 408 578 q 238 504 282 578 q 193 324 193 431 q 249 140 193 203 q 379 78 304 78 q 496 119 454 78 q 547 231 538 160 l 596 231 q 535 56 596 125 q 353 -14 474 -14 q 244 3 297 -14 q 149 60 190 21 q 81 162 107 99 q 56 317 56 225 m 132 1014 l 182 1053 l 357 878 l 533 1053 l 583 1014 l 394 774 l 321 774 l 132 1014 z "},"ċ":{"ha":651,"x_min":56,"x_max":596,"o":"m 56 317 q 76 460 56 393 q 134 576 96 526 q 226 653 172 625 q 349 681 281 681 q 449 665 408 681 q 517 626 490 650 q 556 572 543 603 q 574 510 569 540 q 575 477 575 493 q 574 447 575 461 l 513 447 q 502 492 510 469 q 478 534 494 515 q 435 565 461 553 q 368 578 408 578 q 238 504 282 578 q 193 324 193 431 q 249 140 193 203 q 379 78 304 78 q 496 119 454 78 q 547 231 538 160 l 596 231 q 535 56 596 125 q 353 -14 474 -14 q 244 3 297 -14 q 149 60 190 21 q 81 162 107 99 q 56 317 56 225 m 285 850 l 285 986 l 433 986 l 433 850 l 285 850 z "},"ç":{"ha":651,"x_min":56,"x_max":596,"o":"m 56 317 q 76 460 56 393 q 134 576 96 526 q 226 653 172 625 q 349 681 281 681 q 449 665 408 681 q 517 626 490 650 q 556 572 543 603 q 574 510 569 540 q 575 477 575 493 q 574 447 575 461 l 513 447 q 502 492 510 469 q 478 534 494 515 q 435 565 461 553 q 368 578 408 578 q 238 504 282 578 q 193 324 193 431 q 249 140 193 203 q 379 78 304 78 q 496 119 454 78 q 547 231 538 160 l 596 231 q 535 56 596 125 q 353 -14 474 -14 q 244 3 297 -14 q 149 60 190 21 q 81 162 107 99 q 56 317 56 225 m 260 -160 l 293 -160 q 303 -205 292 -190 q 343 -219 315 -219 q 377 -206 364 -219 q 390 -165 390 -192 q 368 -115 390 -128 q 310 -110 346 -103 l 283 -96 l 311 6 l 354 0 l 344 -64 q 440 -81 401 -56 q 478 -165 478 -106 q 445 -249 478 -221 q 363 -276 413 -276 q 277 -242 300 -276 q 260 -160 254 -207 z "},"ď":{"ha":901,"x_min":56,"x_max":936,"o":"m 56 331 q 130 586 56 492 q 318 681 204 681 q 444 636 389 681 q 528 508 500 592 l 528 979 l 663 986 l 663 0 l 556 0 l 542 190 q 470 39 524 92 q 318 -14 417 -14 q 222 6 269 -14 q 138 68 175 26 q 78 175 101 110 q 56 331 56 240 m 528 338 q 476 511 528 449 q 361 574 425 574 q 239 508 285 574 q 193 333 193 442 q 245 142 193 201 q 363 82 297 82 q 482 145 436 82 q 528 338 528 208 m 772 710 l 825 986 l 936 986 l 850 710 l 772 710 z "},"đ":{"ha":775,"x_min":56,"x_max":758,"o":"m 56 331 q 130 586 56 492 q 318 681 204 681 q 444 636 389 681 q 528 508 500 592 l 528 799 l 326 799 l 326 864 l 528 864 l 528 979 l 663 986 l 663 864 l 758 864 l 758 799 l 663 799 l 663 0 l 556 0 l 542 190 q 470 39 524 92 q 318 -14 417 -14 q 222 6 269 -14 q 138 68 175 26 q 78 175 101 110 q 56 331 56 240 m 528 338 q 476 511 528 449 q 361 574 425 574 q 239 508 285 574 q 193 333 193 442 q 245 142 193 201 q 363 82 297 82 q 482 145 436 82 q 528 338 528 208 z "},"è":{"ha":667,"x_min":56,"x_max":611,"o":"m 56 313 q 76 456 56 389 q 134 574 96 524 q 227 652 172 624 q 350 681 282 681 q 463 661 417 681 q 536 610 508 642 q 576 538 564 578 q 589 457 589 497 q 585 396 589 432 q 581 346 582 360 l 192 346 l 192 324 q 241 145 192 210 q 386 81 290 81 q 513 122 469 81 q 563 231 556 164 l 611 231 q 544 52 611 118 q 356 -14 476 -14 q 136 69 217 -14 q 56 313 56 151 m 358 575 q 253 533 294 575 q 197 417 211 490 l 478 417 q 480 430 479 419 q 481 454 481 440 q 457 536 481 497 q 358 575 433 575 m 192 986 l 276 1064 l 465 811 l 410 765 l 192 986 z "},"é":{"ha":667,"x_min":56,"x_max":611,"o":"m 56 313 q 76 456 56 389 q 134 574 96 524 q 227 652 172 624 q 350 681 282 681 q 463 661 417 681 q 536 610 508 642 q 576 538 564 578 q 589 457 589 497 q 585 396 589 432 q 581 346 582 360 l 192 346 l 192 324 q 241 145 192 210 q 386 81 290 81 q 513 122 469 81 q 563 231 556 164 l 611 231 q 544 52 611 118 q 356 -14 476 -14 q 136 69 217 -14 q 56 313 56 151 m 358 575 q 253 533 294 575 q 197 417 211 490 l 478 417 q 480 430 479 419 q 481 454 481 440 q 457 536 481 497 q 358 575 433 575 m 272 811 l 461 1064 l 546 986 l 328 765 l 272 811 z "},"ê":{"ha":667,"x_min":56,"x_max":611,"o":"m 56 313 q 76 456 56 389 q 134 574 96 524 q 227 652 172 624 q 350 681 282 681 q 463 661 417 681 q 536 610 508 642 q 576 538 564 578 q 589 457 589 497 q 585 396 589 432 q 581 346 582 360 l 192 346 l 192 324 q 241 145 192 210 q 386 81 290 81 q 513 122 469 81 q 563 231 556 164 l 611 231 q 544 52 611 118 q 356 -14 476 -14 q 136 69 217 -14 q 56 313 56 151 m 358 575 q 253 533 294 575 q 197 417 211 490 l 478 417 q 480 430 479 419 q 481 454 481 440 q 457 536 481 497 q 358 575 433 575 m 136 808 l 325 1046 l 399 1046 l 588 808 l 540 764 l 363 939 l 183 764 l 136 808 z "},"ě":{"ha":667,"x_min":56,"x_max":611,"o":"m 56 313 q 76 456 56 389 q 134 574 96 524 q 227 652 172 624 q 350 681 282 681 q 463 661 417 681 q 536 610 508 642 q 576 538 564 578 q 589 457 589 497 q 585 396 589 432 q 581 346 582 360 l 192 346 l 192 324 q 241 145 192 210 q 386 81 290 81 q 513 122 469 81 q 563 231 556 164 l 611 231 q 544 52 611 118 q 356 -14 476 -14 q 136 69 217 -14 q 56 313 56 151 m 358 575 q 253 533 294 575 q 197 417 211 490 l 478 417 q 480 430 479 419 q 481 454 481 440 q 457 536 481 497 q 358 575 433 575 m 128 1014 l 178 1053 l 353 878 l 529 1053 l 579 1014 l 390 774 l 317 774 l 128 1014 z "},"ë":{"ha":667,"x_min":56,"x_max":611,"o":"m 56 313 q 76 456 56 389 q 134 574 96 524 q 227 652 172 624 q 350 681 282 681 q 463 661 417 681 q 536 610 508 642 q 576 538 564 578 q 589 457 589 497 q 585 396 589 432 q 581 346 582 360 l 192 346 l 192 324 q 241 145 192 210 q 386 81 290 81 q 513 122 469 81 q 563 231 556 164 l 611 231 q 544 52 611 118 q 356 -14 476 -14 q 136 69 217 -14 q 56 313 56 151 m 358 575 q 253 533 294 575 q 197 417 211 490 l 478 417 q 480 430 479 419 q 481 454 481 440 q 457 536 481 497 q 358 575 433 575 m 178 856 l 178 986 l 307 986 l 307 856 l 178 856 m 419 856 l 419 986 l 549 986 l 549 856 l 419 856 z "},"ē":{"ha":667,"x_min":56,"x_max":611,"o":"m 56 313 q 76 456 56 389 q 134 574 96 524 q 227 652 172 624 q 350 681 282 681 q 463 661 417 681 q 536 610 508 642 q 576 538 564 578 q 589 457 589 497 q 585 396 589 432 q 581 346 582 360 l 192 346 l 192 324 q 241 145 192 210 q 386 81 290 81 q 513 122 469 81 q 563 231 556 164 l 611 231 q 544 52 611 118 q 356 -14 476 -14 q 136 69 217 -14 q 56 313 56 151 m 358 575 q 253 533 294 575 q 197 417 211 490 l 478 417 q 480 430 479 419 q 481 454 481 440 q 457 536 481 497 q 358 575 433 575 m 169 986 l 553 986 l 553 900 l 169 900 l 169 986 z "},"ĕ":{"ha":667,"x_min":56,"x_max":611,"o":"m 56 313 q 76 456 56 389 q 134 574 96 524 q 227 652 172 624 q 350 681 282 681 q 463 661 417 681 q 536 610 508 642 q 576 538 564 578 q 589 457 589 497 q 585 396 589 432 q 581 346 582 360 l 192 346 l 192 324 q 241 145 192 210 q 386 81 290 81 q 513 122 469 81 q 563 231 556 164 l 611 231 q 544 52 611 118 q 356 -14 476 -14 q 136 69 217 -14 q 56 313 56 151 m 358 575 q 253 533 294 575 q 197 417 211 490 l 478 417 q 480 430 479 419 q 481 454 481 440 q 457 536 481 497 q 358 575 433 575 m 367 800 q 267 822 307 800 q 204 878 228 844 q 172 953 181 911 q 167 1033 164 994 l 218 1033 q 226 992 219 1015 q 249 949 233 969 q 294 914 265 928 q 367 900 322 900 q 440 914 411 900 q 484 949 468 928 q 507 992 500 969 q 517 1033 514 1015 l 567 1033 q 561 953 569 994 q 529 878 553 911 q 466 822 506 844 q 367 800 426 800 z "},"ė":{"ha":667,"x_min":56,"x_max":611,"o":"m 56 313 q 76 456 56 389 q 134 574 96 524 q 227 652 172 624 q 350 681 282 681 q 463 661 417 681 q 536 610 508 642 q 576 538 564 578 q 589 457 589 497 q 585 396 589 432 q 581 346 582 360 l 192 346 l 192 324 q 241 145 192 210 q 386 81 290 81 q 513 122 469 81 q 563 231 556 164 l 611 231 q 544 52 611 118 q 356 -14 476 -14 q 136 69 217 -14 q 56 313 56 151 m 358 575 q 253 533 294 575 q 197 417 211 490 l 478 417 q 480 430 479 419 q 481 454 481 440 q 457 536 481 497 q 358 575 433 575 m 288 850 l 288 986 l 436 986 l 436 850 l 288 850 z "},"ę":{"ha":667,"x_min":56,"x_max":611,"o":"m 56 313 q 76 456 56 389 q 134 574 96 524 q 227 652 172 624 q 350 681 282 681 q 463 661 417 681 q 536 610 508 642 q 576 538 564 578 q 589 457 589 497 q 585 396 589 432 q 581 346 582 360 l 192 346 l 192 324 q 241 145 192 210 q 386 81 290 81 q 513 122 469 81 q 563 231 556 164 l 611 231 q 544 52 611 118 q 356 -14 476 -14 q 136 69 217 -14 q 56 313 56 151 m 358 575 q 253 533 294 575 q 197 417 211 490 l 478 417 q 480 430 479 419 q 481 454 481 440 q 457 536 481 497 q 358 575 433 575 m 374 -171 q 391 -91 374 -128 q 435 -22 408 -54 q 496 42 463 11 q 560 103 529 72 l 575 97 q 501 -28 532 42 q 469 -158 469 -97 q 481 -204 469 -187 q 521 -221 492 -221 q 555 -203 543 -221 q 567 -160 567 -186 l 604 -160 q 581 -250 606 -212 q 496 -287 557 -287 q 407 -261 440 -287 q 374 -171 374 -235 z "},"ĝ":{"ha":699,"x_min":43,"x_max":701,"o":"m 71 446 q 142 615 71 549 q 336 681 213 681 q 457 655 400 681 q 549 582 514 629 q 578 662 554 643 q 626 681 603 681 q 684 660 668 681 q 701 614 700 639 q 701 592 703 603 q 696 572 699 581 l 672 572 q 665 602 672 589 q 638 615 658 615 q 603 595 617 615 q 590 526 590 575 l 590 443 l 590 443 q 521 274 588 339 q 336 208 454 208 q 283 212 310 208 q 233 222 257 215 q 193 196 215 214 q 171 147 171 178 q 207 95 171 111 q 331 79 243 79 l 397 79 q 594 33 526 79 q 663 -112 663 -14 q 578 -283 663 -219 q 328 -347 493 -347 q 113 -294 182 -347 q 43 -154 43 -242 q 49 -115 43 -132 q 61 -86 56 -99 l 111 -86 q 108 -106 110 -94 q 106 -129 106 -118 q 161 -228 106 -197 q 324 -258 217 -258 q 485 -228 436 -258 q 535 -142 535 -197 q 497 -76 535 -99 q 378 -53 458 -53 l 294 -53 q 131 -18 185 -53 q 78 99 78 17 q 115 188 78 153 q 188 240 153 222 q 103 319 135 268 q 71 446 71 371 m 468 440 q 429 547 468 506 q 333 588 390 588 q 232 543 269 588 q 194 436 194 499 q 235 322 194 360 q 332 285 275 285 q 430 326 392 285 q 468 440 468 368 m 119 808 l 308 1046 l 382 1046 l 571 808 l 524 764 l 346 939 l 167 764 l 119 808 z "},"ğ":{"ha":699,"x_min":43,"x_max":701,"o":"m 71 446 q 142 615 71 549 q 336 681 213 681 q 457 655 400 681 q 549 582 514 629 q 578 662 554 643 q 626 681 603 681 q 684 660 668 681 q 701 614 700 639 q 701 592 703 603 q 696 572 699 581 l 672 572 q 665 602 672 589 q 638 615 658 615 q 603 595 617 615 q 590 526 590 575 l 590 443 l 590 443 q 521 274 588 339 q 336 208 454 208 q 283 212 310 208 q 233 222 257 215 q 193 196 215 214 q 171 147 171 178 q 207 95 171 111 q 331 79 243 79 l 397 79 q 594 33 526 79 q 663 -112 663 -14 q 578 -283 663 -219 q 328 -347 493 -347 q 113 -294 182 -347 q 43 -154 43 -242 q 49 -115 43 -132 q 61 -86 56 -99 l 111 -86 q 108 -106 110 -94 q 106 -129 106 -118 q 161 -228 106 -197 q 324 -258 217 -258 q 485 -228 436 -258 q 535 -142 535 -197 q 497 -76 535 -99 q 378 -53 458 -53 l 294 -53 q 131 -18 185 -53 q 78 99 78 17 q 115 188 78 153 q 188 240 153 222 q 103 319 135 268 q 71 446 71 371 m 468 440 q 429 547 468 506 q 333 588 390 588 q 232 543 269 588 q 194 436 194 499 q 235 322 194 360 q 332 285 275 285 q 430 326 392 285 q 468 440 468 368 m 340 800 q 241 822 281 800 q 178 878 201 844 q 146 953 154 911 q 140 1033 138 994 l 192 1033 q 200 992 193 1015 q 223 949 207 969 q 267 914 239 928 q 340 900 296 900 q 413 914 385 900 q 458 949 442 928 q 481 992 474 969 q 490 1033 488 1015 l 540 1033 q 535 953 543 994 q 503 878 526 911 q 440 822 479 844 q 340 800 400 800 z "},"ġ":{"ha":699,"x_min":43,"x_max":701,"o":"m 71 446 q 142 615 71 549 q 336 681 213 681 q 457 655 400 681 q 549 582 514 629 q 578 662 554 643 q 626 681 603 681 q 684 660 668 681 q 701 614 700 639 q 701 592 703 603 q 696 572 699 581 l 672 572 q 665 602 672 589 q 638 615 658 615 q 603 595 617 615 q 590 526 590 575 l 590 443 l 590 443 q 521 274 588 339 q 336 208 454 208 q 283 212 310 208 q 233 222 257 215 q 193 196 215 214 q 171 147 171 178 q 207 95 171 111 q 331 79 243 79 l 397 79 q 594 33 526 79 q 663 -112 663 -14 q 578 -283 663 -219 q 328 -347 493 -347 q 113 -294 182 -347 q 43 -154 43 -242 q 49 -115 43 -132 q 61 -86 56 -99 l 111 -86 q 108 -106 110 -94 q 106 -129 106 -118 q 161 -228 106 -197 q 324 -258 217 -258 q 485 -228 436 -258 q 535 -142 535 -197 q 497 -76 535 -99 q 378 -53 458 -53 l 294 -53 q 131 -18 185 -53 q 78 99 78 17 q 115 188 78 153 q 188 240 153 222 q 103 319 135 268 q 71 446 71 371 m 468 440 q 429 547 468 506 q 333 588 390 588 q 232 543 269 588 q 194 436 194 499 q 235 322 194 360 q 332 285 275 285 q 430 326 392 285 q 468 440 468 368 m 267 850 l 267 986 l 415 986 l 415 850 l 267 850 z "},"ģ":{"ha":699,"x_min":43,"x_max":701,"o":"m 71 446 q 142 615 71 549 q 336 681 213 681 q 457 655 400 681 q 549 582 514 629 q 578 662 554 643 q 626 681 603 681 q 684 660 668 681 q 701 614 700 639 q 701 592 703 603 q 696 572 699 581 l 672 572 q 665 602 672 589 q 638 615 658 615 q 603 595 617 615 q 590 526 590 575 l 590 443 l 590 443 q 521 274 588 339 q 336 208 454 208 q 283 212 310 208 q 233 222 257 215 q 193 196 215 214 q 171 147 171 178 q 207 95 171 111 q 331 79 243 79 l 397 79 q 594 33 526 79 q 663 -112 663 -14 q 578 -283 663 -219 q 328 -347 493 -347 q 113 -294 182 -347 q 43 -154 43 -242 q 49 -115 43 -132 q 61 -86 56 -99 l 111 -86 q 108 -106 110 -94 q 106 -129 106 -118 q 161 -228 106 -197 q 324 -258 217 -258 q 485 -228 436 -258 q 535 -142 535 -197 q 497 -76 535 -99 q 378 -53 458 -53 l 294 -53 q 131 -18 185 -53 q 78 99 78 17 q 115 188 78 153 q 188 240 153 222 q 103 319 135 268 q 71 446 71 371 m 468 440 q 429 547 468 506 q 333 588 390 588 q 232 543 269 588 q 194 436 194 499 q 235 322 194 360 q 332 285 275 285 q 430 326 392 285 q 468 440 468 368 m 301 783 l 401 1022 l 469 1007 l 407 783 l 301 783 z "},"ĥ":{"ha":750,"x_min":-18,"x_max":660,"o":"m 174 1121 l 18 1011 l -18 1050 l 146 1208 l 201 1208 l 365 1050 l 331 1011 l 174 1121 m 660 0 l 525 0 l 525 354 q 497 517 525 465 q 393 568 468 568 q 276 490 314 568 q 236 275 238 413 l 236 0 l 101 0 l 101 979 l 236 986 l 236 464 q 301 616 253 551 q 451 681 350 681 q 616 608 572 681 q 660 417 660 536 l 660 0 z "},"ħ":{"ha":750,"x_min":18,"x_max":660,"o":"m 660 0 l 525 0 l 525 354 q 497 517 525 465 q 393 568 468 568 q 276 490 314 568 q 236 275 238 413 l 236 0 l 101 0 l 101 799 l 18 799 l 18 864 l 101 864 l 101 979 l 236 986 l 236 864 l 450 864 l 450 799 l 236 799 l 236 464 q 301 616 253 551 q 451 681 350 681 q 616 608 572 681 q 660 417 660 536 l 660 0 z "},"ì":{"ha":347,"x_min":13,"x_max":286,"o":"m 106 660 l 240 667 l 240 0 l 106 0 l 106 660 m 13 986 l 97 1064 l 286 811 l 231 765 l 13 986 z "},"í":{"ha":347,"x_min":63,"x_max":336,"o":"m 106 660 l 240 667 l 240 0 l 106 0 l 106 660 m 63 811 l 251 1064 l 336 986 l 118 765 l 63 811 z "},"î":{"ha":347,"x_min":-49,"x_max":403,"o":"m 106 660 l 240 667 l 240 0 l 106 0 l 106 660 m -49 808 l 140 1046 l 214 1046 l 403 808 l 356 764 l 178 939 l -1 764 l -49 808 z "},"ĩ":{"ha":347,"x_min":-26,"x_max":379,"o":"m 106 660 l 240 667 l 240 0 l 106 0 l 106 660 m -11 807 q -14 958 -42 899 q 86 1018 14 1018 q 154 1000 129 1018 q 197 961 179 982 q 233 922 215 940 q 279 904 250 904 q 331 940 321 904 q 329 1019 340 975 l 365 1019 q 367 869 394 931 q 268 808 340 808 q 204 826 228 808 q 163 865 181 844 q 126 904 146 886 q 75 922 107 922 q 23 887 33 922 q 24 807 13 851 l -11 807 z "},"ï":{"ha":347,"x_min":-8,"x_max":363,"o":"m 106 660 l 240 667 l 240 0 l 106 0 l 106 660 m -8 856 l -8 986 l 121 986 l 121 856 l -8 856 m 233 856 l 233 986 l 363 986 l 363 856 l 233 856 z "},"ī":{"ha":347,"x_min":-15,"x_max":368,"o":"m 106 660 l 240 667 l 240 0 l 106 0 l 106 660 m -15 986 l 368 986 l 368 900 l -15 900 l -15 986 z "},"ĭ":{"ha":347,"x_min":-24,"x_max":376,"o":"m 106 660 l 240 667 l 240 0 l 106 0 l 106 660 m 176 800 q 77 822 117 800 q 14 878 38 844 q -18 953 -10 911 q -24 1033 -26 994 l 28 1033 q 36 992 29 1015 q 59 949 43 969 q 103 914 75 928 q 176 900 132 900 q 249 914 221 900 q 294 949 278 928 q 317 992 310 969 q 326 1033 324 1015 l 376 1033 q 371 953 379 994 q 339 878 363 911 q 276 822 315 844 q 176 800 236 800 z "},"į":{"ha":347,"x_min":68,"x_max":289,"o":"m 103 850 l 103 986 l 251 986 l 251 850 l 103 850 m 68 -171 q 99 -76 68 -119 q 167 0 131 -32 l 106 0 l 106 660 l 240 667 l 240 0 q 178 -60 203 -14 q 153 -156 153 -107 q 165 -206 153 -187 q 207 -225 178 -225 q 245 -206 233 -225 q 257 -160 257 -186 l 289 -160 q 267 -250 292 -212 q 181 -287 243 -287 q 97 -257 125 -287 q 68 -171 68 -226 z "},"ı":{"ha":347,"x_min":106,"x_max":240,"o":"m 106 660 l 240 667 l 240 0 l 106 0 l 106 660 z "},"ĳ":{"ha":724,"x_min":103,"x_max":632,"o":"m 106 660 l 240 667 l 240 0 l 106 0 l 106 660 m 103 850 l 103 986 l 251 986 l 251 850 l 103 850 m 314 -185 l 356 -185 q 374 -235 360 -217 q 419 -254 388 -254 q 467 -221 451 -254 q 483 -118 483 -187 l 483 660 l 618 667 l 618 -67 q 579 -277 618 -207 q 449 -347 540 -347 q 379 -333 406 -347 q 338 -295 353 -318 q 319 -243 324 -272 q 314 -185 314 -214 m 483 850 l 483 986 l 632 986 l 632 850 l 483 850 z "},"ĵ":{"ha":372,"x_min":-37,"x_max":421,"o":"m -37 -185 l 4 -185 q 22 -235 8 -217 q 68 -254 36 -254 q 116 -221 100 -254 q 132 -118 132 -187 l 132 660 l 267 667 l 267 -67 q 228 -277 267 -207 q 97 -347 189 -347 q 28 -333 54 -347 q -13 -295 1 -318 q -33 -243 -28 -272 q -37 -185 -37 -214 m -31 808 l 158 1046 l 232 1046 l 421 808 l 374 764 l 196 939 l 17 764 l -31 808 z "},"ȷ":{"ha":372,"x_min":-37,"x_max":267,"o":"m -37 -185 l 4 -185 q 22 -235 8 -217 q 68 -254 36 -254 q 116 -221 100 -254 q 132 -118 132 -187 l 132 660 l 267 667 l 267 -67 q 228 -277 267 -207 q 97 -347 189 -347 q 28 -333 54 -347 q -13 -295 1 -318 q -33 -243 -28 -272 q -37 -185 -37 -214 z "},"ķ":{"ha":690,"x_min":101,"x_max":672,"o":"m 101 979 l 236 986 l 236 397 l 506 660 l 638 660 l 406 438 l 672 0 l 515 0 l 313 347 l 236 275 l 236 0 l 101 0 l 101 979 m 261 -303 l 325 -76 l 433 -76 l 329 -318 l 261 -303 z "},"ĺ":{"ha":343,"x_min":33,"x_max":338,"o":"m 104 979 l 239 986 l 239 0 l 104 0 l 104 979 m 33 1051 l 263 1215 l 338 1122 l 69 1014 l 33 1051 z "},"ľ":{"ha":476,"x_min":104,"x_max":506,"o":"m 104 979 l 239 986 l 239 0 l 104 0 l 104 979 m 342 710 l 394 986 l 506 986 l 419 710 l 342 710 z "},"ļ":{"ha":343,"x_min":64,"x_max":239,"o":"m 104 979 l 239 986 l 239 0 l 104 0 l 104 979 m 64 -303 l 128 -76 l 236 -76 l 132 -318 l 64 -303 z "},"ł":{"ha":343,"x_min":11,"x_max":332,"o":"m 11 265 l 11 375 l 104 458 l 104 979 l 239 986 l 239 578 l 332 661 l 332 551 l 239 468 l 239 0 l 104 0 l 104 349 l 11 265 z "},"ŀ":{"ha":460,"x_min":104,"x_max":460,"o":"m 104 979 l 239 986 l 239 0 l 104 0 l 104 979 m 326 435 l 326 560 l 460 560 l 460 435 l 326 435 z "},"ń":{"ha":746,"x_min":97,"x_max":656,"o":"m 656 0 l 521 0 l 521 354 q 492 517 521 465 q 390 568 464 568 q 272 490 311 568 q 232 275 232 413 l 232 0 l 97 0 l 97 660 l 214 667 l 228 467 l 228 460 q 291 616 242 551 q 447 681 340 681 q 612 608 568 681 q 656 417 656 536 l 656 0 m 278 811 l 467 1064 l 551 986 l 333 765 l 278 811 z "},"ň":{"ha":746,"x_min":97,"x_max":656,"o":"m 656 0 l 521 0 l 521 354 q 492 517 521 465 q 390 568 464 568 q 272 490 311 568 q 232 275 232 413 l 232 0 l 97 0 l 97 660 l 214 667 l 228 467 l 228 460 q 291 616 242 551 q 447 681 340 681 q 612 608 568 681 q 656 417 656 536 l 656 0 m 168 1014 l 218 1053 l 393 878 l 569 1053 l 619 1014 l 431 774 l 357 774 l 168 1014 z "},"ñ":{"ha":746,"x_min":97,"x_max":656,"o":"m 656 0 l 521 0 l 521 354 q 492 517 521 465 q 390 568 464 568 q 272 490 311 568 q 232 275 232 413 l 232 0 l 97 0 l 97 660 l 214 667 l 228 467 l 228 460 q 291 616 242 551 q 447 681 340 681 q 612 608 568 681 q 656 417 656 536 l 656 0 m 169 807 q 167 958 139 899 q 267 1018 194 1018 q 335 1000 310 1018 q 378 961 360 982 q 413 922 396 940 q 460 904 431 904 q 511 940 501 904 q 510 1019 521 975 l 546 1019 q 548 869 575 931 q 449 808 521 808 q 385 826 408 808 q 344 865 361 844 q 307 904 326 886 q 256 922 288 922 q 203 887 214 922 q 204 807 193 851 l 169 807 z "},"ņ":{"ha":746,"x_min":97,"x_max":656,"o":"m 656 0 l 521 0 l 521 354 q 492 517 521 465 q 390 568 464 568 q 272 490 311 568 q 232 275 232 413 l 232 0 l 97 0 l 97 660 l 214 667 l 228 467 l 228 460 q 291 616 242 551 q 447 681 340 681 q 612 608 568 681 q 656 417 656 536 l 656 0 m 264 -303 l 328 -76 l 436 -76 l 332 -318 l 264 -303 z "},"ò":{"ha":717,"x_min":56,"x_max":661,"o":"m 56 332 q 141 587 56 493 q 360 681 226 681 q 478 658 424 681 q 574 591 533 635 q 638 481 614 547 q 661 329 661 415 q 581 77 661 168 q 360 -14 500 -14 q 238 8 294 -14 q 142 74 182 31 q 78 182 101 117 q 56 332 56 247 m 526 335 q 483 509 526 443 q 358 575 439 575 q 236 511 282 575 q 190 335 190 447 q 236 146 190 210 q 360 82 282 82 q 480 144 433 82 q 526 335 526 207 m 193 986 l 278 1064 l 467 811 l 411 765 l 193 986 z "},"ó":{"ha":717,"x_min":56,"x_max":661,"o":"m 56 332 q 141 587 56 493 q 360 681 226 681 q 478 658 424 681 q 574 591 533 635 q 638 481 614 547 q 661 329 661 415 q 581 77 661 168 q 360 -14 500 -14 q 238 8 294 -14 q 142 74 182 31 q 78 182 101 117 q 56 332 56 247 m 526 335 q 483 509 526 443 q 358 575 439 575 q 236 511 282 575 q 190 335 190 447 q 236 146 190 210 q 360 82 282 82 q 480 144 433 82 q 526 335 526 207 m 251 811 l 440 1064 l 525 986 l 307 765 l 251 811 z "},"ô":{"ha":717,"x_min":56,"x_max":661,"o":"m 56 332 q 141 587 56 493 q 360 681 226 681 q 478 658 424 681 q 574 591 533 635 q 638 481 614 547 q 661 329 661 415 q 581 77 661 168 q 360 -14 500 -14 q 238 8 294 -14 q 142 74 182 31 q 78 182 101 117 q 56 332 56 247 m 526 335 q 483 509 526 443 q 358 575 439 575 q 236 511 282 575 q 190 335 190 447 q 236 146 190 210 q 360 82 282 82 q 480 144 433 82 q 526 335 526 207 m 136 808 l 325 1046 l 399 1046 l 588 808 l 540 764 l 363 939 l 183 764 l 136 808 z "},"õ":{"ha":717,"x_min":56,"x_max":661,"o":"m 56 332 q 141 587 56 493 q 360 681 226 681 q 478 658 424 681 q 574 591 533 635 q 638 481 614 547 q 661 329 661 415 q 581 77 661 168 q 360 -14 500 -14 q 238 8 294 -14 q 142 74 182 31 q 78 182 101 117 q 56 332 56 247 m 526 335 q 483 509 526 443 q 358 575 439 575 q 236 511 282 575 q 190 335 190 447 q 236 146 190 210 q 360 82 282 82 q 480 144 433 82 q 526 335 526 207 m 165 807 q 163 958 135 899 q 263 1018 190 1018 q 331 1000 306 1018 q 374 961 356 982 q 409 922 392 940 q 456 904 426 904 q 507 940 497 904 q 506 1019 517 975 l 542 1019 q 544 869 571 931 q 444 808 517 808 q 381 826 404 808 q 340 865 357 844 q 303 904 322 886 q 251 922 283 922 q 199 887 210 922 q 200 807 189 851 l 165 807 z "},"ö":{"ha":717,"x_min":56,"x_max":661,"o":"m 56 332 q 141 587 56 493 q 360 681 226 681 q 478 658 424 681 q 574 591 533 635 q 638 481 614 547 q 661 329 661 415 q 581 77 661 168 q 360 -14 500 -14 q 238 8 294 -14 q 142 74 182 31 q 78 182 101 117 q 56 332 56 247 m 526 335 q 483 509 526 443 q 358 575 439 575 q 236 511 282 575 q 190 335 190 447 q 236 146 190 210 q 360 82 282 82 q 480 144 433 82 q 526 335 526 207 m 178 856 l 178 986 l 307 986 l 307 856 l 178 856 m 419 856 l 419 986 l 549 986 l 549 856 l 419 856 z "},"ō":{"ha":717,"x_min":56,"x_max":661,"o":"m 56 332 q 141 587 56 493 q 360 681 226 681 q 478 658 424 681 q 574 591 533 635 q 638 481 614 547 q 661 329 661 415 q 581 77 661 168 q 360 -14 500 -14 q 238 8 294 -14 q 142 74 182 31 q 78 182 101 117 q 56 332 56 247 m 526 335 q 483 509 526 443 q 358 575 439 575 q 236 511 282 575 q 190 335 190 447 q 236 146 190 210 q 360 82 282 82 q 480 144 433 82 q 526 335 526 207 m 171 986 l 554 986 l 554 900 l 171 900 l 171 986 z "},"ŏ":{"ha":717,"x_min":56,"x_max":661,"o":"m 56 332 q 141 587 56 493 q 360 681 226 681 q 478 658 424 681 q 574 591 533 635 q 638 481 614 547 q 661 329 661 415 q 581 77 661 168 q 360 -14 500 -14 q 238 8 294 -14 q 142 74 182 31 q 78 182 101 117 q 56 332 56 247 m 526 335 q 483 509 526 443 q 358 575 439 575 q 236 511 282 575 q 190 335 190 447 q 236 146 190 210 q 360 82 282 82 q 480 144 433 82 q 526 335 526 207 m 363 800 q 263 822 303 800 q 200 878 224 844 q 168 953 176 911 q 163 1033 160 994 l 214 1033 q 222 992 215 1015 q 245 949 229 969 q 290 914 261 928 q 363 900 318 900 q 435 914 407 900 q 480 949 464 928 q 503 992 496 969 q 513 1033 510 1015 l 563 1033 q 557 953 565 994 q 525 878 549 911 q 462 822 501 844 q 363 800 422 800 z "},"ő":{"ha":717,"x_min":56,"x_max":661,"o":"m 56 332 q 141 587 56 493 q 360 681 226 681 q 478 658 424 681 q 574 591 533 635 q 638 481 614 547 q 661 329 661 415 q 581 77 661 168 q 360 -14 500 -14 q 238 8 294 -14 q 142 74 182 31 q 78 182 101 117 q 56 332 56 247 m 526 335 q 483 509 526 443 q 358 575 439 575 q 236 511 282 575 q 190 335 190 447 q 236 146 190 210 q 360 82 282 82 q 480 144 433 82 q 526 335 526 207 m 185 801 l 300 1060 l 389 1024 l 251 769 l 185 801 m 421 801 l 544 1056 l 629 1014 l 488 769 l 421 801 z "},"ø":{"ha":721,"x_min":56,"x_max":665,"o":"m 56 332 q 141 587 56 493 q 360 681 226 681 q 458 665 411 681 q 543 621 504 650 l 583 674 l 665 674 l 589 574 q 642 469 624 531 q 661 329 661 407 q 581 77 661 168 q 360 -14 500 -14 q 263 -1 308 -14 q 181 39 218 13 l 143 -11 l 60 -11 l 132 83 q 76 190 96 126 q 56 332 56 253 m 190 335 q 197 255 190 292 q 213 189 203 218 l 471 525 q 422 562 450 549 q 358 575 393 575 q 236 511 282 575 q 190 335 190 447 m 526 335 q 521 405 526 372 q 506 464 515 438 l 250 129 q 299 94 271 106 q 360 82 326 82 q 480 144 433 82 q 526 335 526 207 z "},"ǿ":{"ha":721,"x_min":56,"x_max":665,"o":"m 56 332 q 141 587 56 493 q 360 681 226 681 q 458 665 411 681 q 543 621 504 650 l 583 674 l 665 674 l 589 574 q 642 469 624 531 q 661 329 661 407 q 581 77 661 168 q 360 -14 500 -14 q 263 -1 308 -14 q 181 39 218 13 l 143 -11 l 60 -11 l 132 83 q 76 190 96 126 q 56 332 56 253 m 190 335 q 197 255 190 292 q 213 189 203 218 l 471 525 q 422 562 450 549 q 358 575 393 575 q 236 511 282 575 q 190 335 190 447 m 526 335 q 521 405 526 372 q 506 464 515 438 l 250 129 q 299 94 271 106 q 360 82 326 82 q 480 144 433 82 q 526 335 526 207 m 250 811 l 439 1064 l 524 986 l 306 765 l 250 811 z "},"œ":{"ha":1129,"x_min":56,"x_max":1074,"o":"m 56 332 q 141 587 56 493 q 360 681 226 681 q 501 644 439 681 q 597 539 563 608 q 687 642 632 604 q 813 681 742 681 q 925 661 879 681 q 999 610 971 642 q 1039 538 1026 578 q 1051 457 1051 497 q 1048 397 1051 432 q 1043 349 1044 363 l 654 349 l 654 347 l 654 324 q 702 145 654 210 q 851 81 750 81 q 982 124 935 81 q 1032 235 1029 167 l 1074 235 q 1006 58 1074 129 q 818 -14 939 -14 q 678 17 736 -14 q 589 107 621 47 q 497 18 554 50 q 360 -14 439 -14 q 238 8 294 -14 q 142 74 182 31 q 78 182 101 117 q 56 332 56 247 m 526 335 q 483 509 526 443 q 358 575 439 575 q 236 511 282 575 q 190 335 190 447 q 236 146 190 210 q 360 82 282 82 q 480 144 433 82 q 526 335 526 207 m 821 575 q 716 533 758 575 q 660 414 674 492 l 940 414 q 942 428 942 417 q 943 454 943 440 q 939 494 943 472 q 922 533 935 515 q 885 563 910 551 q 821 575 861 575 z "},"ŕ":{"ha":568,"x_min":97,"x_max":546,"o":"m 97 660 l 211 667 l 222 465 q 242 547 229 508 q 277 616 256 586 q 331 663 299 646 q 406 681 363 681 q 473 663 446 681 q 516 620 500 646 q 539 565 532 594 q 546 510 546 535 q 543 472 546 488 q 536 443 540 457 l 479 443 q 478 475 479 458 q 471 506 476 492 q 442 549 463 532 q 385 567 422 567 q 265 480 297 567 q 232 246 232 393 l 232 0 l 97 0 l 97 660 m 217 811 l 406 1064 l 490 986 l 272 765 l 217 811 z "},"ř":{"ha":568,"x_min":92,"x_max":546,"o":"m 97 660 l 211 667 l 222 465 q 242 547 229 508 q 277 616 256 586 q 331 663 299 646 q 406 681 363 681 q 473 663 446 681 q 516 620 500 646 q 539 565 532 594 q 546 510 546 535 q 543 472 546 488 q 536 443 540 457 l 479 443 q 478 475 479 458 q 471 506 476 492 q 442 549 463 532 q 385 567 422 567 q 265 480 297 567 q 232 246 232 393 l 232 0 l 97 0 l 97 660 m 92 1014 l 142 1053 l 317 878 l 493 1053 l 543 1014 l 354 774 l 281 774 l 92 1014 z "},"ŗ":{"ha":568,"x_min":56,"x_max":546,"o":"m 97 660 l 211 667 l 222 465 q 242 547 229 508 q 277 616 256 586 q 331 663 299 646 q 406 681 363 681 q 473 663 446 681 q 516 620 500 646 q 539 565 532 594 q 546 510 546 535 q 543 472 546 488 q 536 443 540 457 l 479 443 q 478 475 479 458 q 471 506 476 492 q 442 549 463 532 q 385 567 422 567 q 265 480 297 567 q 232 246 232 393 l 232 0 l 97 0 l 97 660 m 56 -303 l 119 -76 l 228 -76 l 124 -318 l 56 -303 z "},"ś":{"ha":613,"x_min":53,"x_max":560,"o":"m 53 214 l 111 214 q 167 101 124 142 q 286 61 211 61 q 383 83 342 61 q 425 160 425 104 q 394 232 425 207 q 283 276 363 257 q 129 348 183 303 q 75 481 75 393 q 142 626 75 572 q 318 681 210 681 q 483 628 422 681 q 535 483 544 575 l 474 483 q 435 565 471 529 q 332 600 400 600 q 241 578 276 600 q 206 504 206 556 q 243 435 206 456 q 365 392 281 414 q 515 314 471 364 q 560 189 560 264 q 490 41 560 96 q 307 -14 419 -14 q 116 47 179 -14 q 53 214 53 107 m 210 811 l 399 1064 l 483 986 l 265 765 l 210 811 z "},"ŝ":{"ha":613,"x_min":53,"x_max":560,"o":"m 53 214 l 111 214 q 167 101 124 142 q 286 61 211 61 q 383 83 342 61 q 425 160 425 104 q 394 232 425 207 q 283 276 363 257 q 129 348 183 303 q 75 481 75 393 q 142 626 75 572 q 318 681 210 681 q 483 628 422 681 q 535 483 544 575 l 474 483 q 435 565 471 529 q 332 600 400 600 q 241 578 276 600 q 206 504 206 556 q 243 435 206 456 q 365 392 281 414 q 515 314 471 364 q 560 189 560 264 q 490 41 560 96 q 307 -14 419 -14 q 116 47 179 -14 q 53 214 53 107 m 88 808 l 276 1046 l 350 1046 l 539 808 l 492 764 l 314 939 l 135 764 l 88 808 z "},"š":{"ha":613,"x_min":53,"x_max":560,"o":"m 53 214 l 111 214 q 167 101 124 142 q 286 61 211 61 q 383 83 342 61 q 425 160 425 104 q 394 232 425 207 q 283 276 363 257 q 129 348 183 303 q 75 481 75 393 q 142 626 75 572 q 318 681 210 681 q 483 628 422 681 q 535 483 544 575 l 474 483 q 435 565 471 529 q 332 600 400 600 q 241 578 276 600 q 206 504 206 556 q 243 435 206 456 q 365 392 281 414 q 515 314 471 364 q 560 189 560 264 q 490 41 560 96 q 307 -14 419 -14 q 116 47 179 -14 q 53 214 53 107 m 83 1014 l 133 1053 l 308 878 l 485 1053 l 535 1014 l 346 774 l 272 774 l 83 1014 z "},"ş":{"ha":613,"x_min":53,"x_max":560,"o":"m 53 214 l 111 214 q 167 101 124 142 q 286 61 211 61 q 383 83 342 61 q 425 160 425 104 q 394 232 425 207 q 283 276 363 257 q 129 348 183 303 q 75 481 75 393 q 142 626 75 572 q 318 681 210 681 q 483 628 422 681 q 535 483 544 575 l 474 483 q 435 565 471 529 q 332 600 400 600 q 241 578 276 600 q 206 504 206 556 q 243 435 206 456 q 365 392 281 414 q 515 314 471 364 q 560 189 560 264 q 490 41 560 96 q 307 -14 419 -14 q 116 47 179 -14 q 53 214 53 107 m 229 -160 l 263 -160 q 273 -205 261 -190 q 313 -219 285 -219 q 347 -206 333 -219 q 360 -165 360 -192 q 338 -115 360 -128 q 279 -110 315 -103 l 253 -96 l 281 6 l 324 0 l 314 -64 q 409 -81 371 -56 q 447 -165 447 -106 q 415 -249 447 -221 q 332 -276 382 -276 q 247 -242 269 -276 q 229 -160 224 -207 z "},"ș":{"ha":613,"x_min":53,"x_max":560,"o":"m 53 214 l 111 214 q 167 101 124 142 q 286 61 211 61 q 383 83 342 61 q 425 160 425 104 q 394 232 425 207 q 283 276 363 257 q 129 348 183 303 q 75 481 75 393 q 142 626 75 572 q 318 681 210 681 q 483 628 422 681 q 535 483 544 575 l 474 483 q 435 565 471 529 q 332 600 400 600 q 241 578 276 600 q 206 504 206 556 q 243 435 206 456 q 365 392 281 414 q 515 314 471 364 q 560 189 560 264 q 490 41 560 96 q 307 -14 419 -14 q 116 47 179 -14 q 53 214 53 107 m 194 -303 l 258 -76 l 367 -76 l 263 -318 l 194 -303 z "},"ß":{"ha":819,"x_min":104,"x_max":768,"o":"m 104 639 q 122 778 104 714 q 177 889 139 843 q 276 960 215 935 q 421 986 336 986 q 615 928 546 986 q 683 788 683 869 q 659 696 683 729 q 600 636 635 663 q 543 589 569 613 q 517 526 517 565 q 549 465 517 482 q 626 419 581 449 q 676 388 651 406 q 722 344 701 369 q 755 285 742 319 q 768 208 768 251 q 700 45 768 106 q 531 -15 632 -15 q 381 34 435 -15 q 326 183 326 83 l 376 183 q 414 90 383 125 q 504 56 444 56 q 588 86 551 56 q 625 172 625 117 q 588 263 625 236 q 503 321 550 290 q 419 390 451 356 q 386 475 386 424 q 421 565 386 528 q 492 633 456 601 q 543 690 519 658 q 567 769 567 722 q 528 859 567 824 q 426 894 490 894 q 285 826 332 894 q 239 613 239 757 l 239 0 l 104 0 l 104 639 z "},"ť":{"ha":488,"x_min":7,"x_max":551,"o":"m 389 731 l 440 986 l 551 986 l 465 731 l 389 731 m 114 201 l 114 594 l 7 594 l 7 646 l 114 660 l 114 817 l 249 826 l 249 660 l 428 660 l 428 594 l 249 594 l 249 182 q 265 107 249 136 q 331 78 282 78 q 390 96 371 78 q 408 144 408 114 l 443 144 q 408 28 443 69 q 290 -14 372 -14 q 156 38 199 -14 q 114 201 114 89 z "},"ț":{"ha":481,"x_min":7,"x_max":443,"o":"m 114 201 l 114 594 l 7 594 l 7 646 l 114 660 l 114 817 l 249 826 l 249 660 l 428 660 l 428 594 l 249 594 l 249 182 q 265 107 249 136 q 331 78 282 78 q 390 96 371 78 q 408 144 408 114 l 443 144 q 408 28 443 69 q 290 -14 372 -14 q 156 38 199 -14 q 114 201 114 89 m 176 -303 l 240 -76 l 349 -76 l 244 -318 l 176 -303 z "},"ţ":{"ha":481,"x_min":7,"x_max":443,"o":"m 114 201 l 114 594 l 7 594 l 7 646 l 114 660 l 114 817 l 249 826 l 249 660 l 428 660 l 428 594 l 249 594 l 249 182 q 265 107 249 136 q 331 78 282 78 q 390 96 371 78 q 408 144 408 114 l 443 144 q 408 28 443 69 q 290 -14 372 -14 q 156 38 199 -14 q 114 201 114 89 m 188 -160 l 221 -160 q 231 -205 219 -190 q 271 -219 243 -219 q 305 -206 292 -219 q 318 -165 318 -192 q 296 -115 318 -128 q 238 -110 274 -103 l 211 -96 l 239 6 l 282 0 l 272 -64 q 367 -81 329 -56 q 406 -165 406 -106 q 373 -249 406 -221 q 290 -276 340 -276 q 205 -242 228 -276 q 188 -160 182 -207 z "},"ŧ":{"ha":488,"x_min":11,"x_max":447,"o":"m 118 201 l 118 331 l 21 331 l 21 396 l 118 396 l 118 594 l 11 594 l 11 646 l 118 660 l 118 817 l 253 826 l 253 660 l 432 660 l 432 594 l 253 594 l 253 396 l 422 396 l 422 331 l 253 331 l 253 182 q 269 107 253 136 q 335 78 286 78 q 394 96 375 78 q 413 144 413 114 l 447 144 q 412 28 447 69 q 294 -14 376 -14 q 160 38 203 -14 q 118 201 118 89 z "},"ù":{"ha":746,"x_min":90,"x_max":649,"o":"m 518 181 l 517 196 q 451 48 500 110 q 299 -14 401 -14 q 134 58 178 -14 q 90 250 90 131 l 90 660 l 225 667 l 225 313 q 253 151 225 201 q 357 100 282 100 q 475 178 436 100 q 514 393 514 256 l 514 660 l 649 667 l 649 0 l 525 0 l 518 181 m 221 986 l 306 1064 l 494 811 l 439 765 l 221 986 z "},"ú":{"ha":746,"x_min":90,"x_max":649,"o":"m 518 181 l 517 196 q 451 48 500 110 q 299 -14 401 -14 q 134 58 178 -14 q 90 250 90 131 l 90 660 l 225 667 l 225 313 q 253 151 225 201 q 357 100 282 100 q 475 178 436 100 q 514 393 514 256 l 514 660 l 649 667 l 649 0 l 525 0 l 518 181 m 274 811 l 463 1064 l 547 986 l 329 765 l 274 811 z "},"û":{"ha":746,"x_min":90,"x_max":649,"o":"m 518 181 l 517 196 q 451 48 500 110 q 299 -14 401 -14 q 134 58 178 -14 q 90 250 90 131 l 90 660 l 225 667 l 225 313 q 253 151 225 201 q 357 100 282 100 q 475 178 436 100 q 514 393 514 256 l 514 660 l 649 667 l 649 0 l 525 0 l 518 181 m 153 808 l 342 1046 l 415 1046 l 604 808 l 557 764 l 379 939 l 200 764 l 153 808 z "},"ũ":{"ha":746,"x_min":90,"x_max":649,"o":"m 518 181 l 517 196 q 451 48 500 110 q 299 -14 401 -14 q 134 58 178 -14 q 90 250 90 131 l 90 660 l 225 667 l 225 313 q 253 151 225 201 q 357 100 282 100 q 475 178 436 100 q 514 393 514 256 l 514 660 l 649 667 l 649 0 l 525 0 l 518 181 m 190 807 q 188 958 160 899 q 288 1018 215 1018 q 356 1000 331 1018 q 399 961 381 982 q 434 922 417 940 q 481 904 451 904 q 532 940 522 904 q 531 1019 542 975 l 567 1019 q 569 869 596 931 q 469 808 542 808 q 406 826 429 808 q 365 865 382 844 q 328 904 347 886 q 276 922 308 922 q 224 887 235 922 q 225 807 214 851 l 190 807 z "},"ü":{"ha":746,"x_min":90,"x_max":649,"o":"m 518 181 l 517 196 q 451 48 500 110 q 299 -14 401 -14 q 134 58 178 -14 q 90 250 90 131 l 90 660 l 225 667 l 225 313 q 253 151 225 201 q 357 100 282 100 q 475 178 436 100 q 514 393 514 256 l 514 660 l 649 667 l 649 0 l 525 0 l 518 181 m 197 856 l 197 986 l 326 986 l 326 856 l 197 856 m 439 856 l 439 986 l 568 986 l 568 856 l 439 856 z "},"ū":{"ha":746,"x_min":90,"x_max":649,"o":"m 518 181 l 517 196 q 451 48 500 110 q 299 -14 401 -14 q 134 58 178 -14 q 90 250 90 131 l 90 660 l 225 667 l 225 313 q 253 151 225 201 q 357 100 282 100 q 475 178 436 100 q 514 393 514 256 l 514 660 l 649 667 l 649 0 l 525 0 l 518 181 m 183 986 l 567 986 l 567 900 l 183 900 l 183 986 z "},"ŭ":{"ha":746,"x_min":90,"x_max":649,"o":"m 518 181 l 517 196 q 451 48 500 110 q 299 -14 401 -14 q 134 58 178 -14 q 90 250 90 131 l 90 660 l 225 667 l 225 313 q 253 151 225 201 q 357 100 282 100 q 475 178 436 100 q 514 393 514 256 l 514 660 l 649 667 l 649 0 l 525 0 l 518 181 m 382 800 q 283 822 322 800 q 219 878 243 844 q 188 953 196 911 q 182 1033 179 994 l 233 1033 q 242 992 235 1015 q 265 949 249 969 q 309 914 281 928 q 382 900 338 900 q 455 914 426 900 q 499 949 483 928 q 522 992 515 969 q 532 1033 529 1015 l 582 1033 q 576 953 585 994 q 544 878 568 911 q 481 822 521 844 q 382 800 442 800 z "},"ů":{"ha":746,"x_min":90,"x_max":649,"o":"m 518 181 l 517 196 q 451 48 500 110 q 299 -14 401 -14 q 134 58 178 -14 q 90 250 90 131 l 90 660 l 225 667 l 225 313 q 253 151 225 201 q 357 100 282 100 q 475 178 436 100 q 514 393 514 256 l 514 660 l 649 667 l 649 0 l 525 0 l 518 181 m 228 947 q 270 1050 228 1008 q 378 1092 313 1092 q 489 1050 447 1092 q 531 947 531 1008 q 489 845 531 888 q 378 803 447 803 q 269 845 311 803 q 228 947 228 888 m 456 938 q 434 995 456 972 q 379 1018 413 1018 q 323 995 344 1018 q 301 938 301 972 q 323 882 301 904 q 379 860 344 860 q 434 882 413 860 q 456 938 456 904 z "},"ű":{"ha":746,"x_min":90,"x_max":650,"o":"m 518 181 l 517 196 q 451 48 500 110 q 299 -14 401 -14 q 134 58 178 -14 q 90 250 90 131 l 90 660 l 225 667 l 225 313 q 253 151 225 201 q 357 100 282 100 q 475 178 436 100 q 514 393 514 256 l 514 660 l 649 667 l 649 0 l 525 0 l 518 181 m 206 801 l 321 1060 l 410 1024 l 272 769 l 206 801 m 442 801 l 565 1056 l 650 1014 l 508 769 l 442 801 z "},"ų":{"ha":746,"x_min":90,"x_max":649,"o":"m 435 -185 q 473 -80 435 -125 q 563 0 511 -35 l 525 0 l 518 181 l 517 196 q 451 48 500 110 q 299 -14 401 -14 q 134 58 178 -14 q 90 250 90 131 l 90 660 l 225 667 l 225 313 q 253 151 225 201 q 357 100 282 100 q 475 178 436 100 q 514 393 514 256 l 514 660 l 649 667 l 649 0 q 558 -62 597 -17 q 519 -169 519 -108 q 529 -207 519 -189 q 568 -225 539 -225 q 606 -206 594 -225 q 617 -160 617 -186 l 649 -160 q 628 -250 651 -212 q 542 -287 604 -287 q 460 -258 486 -287 q 435 -185 435 -228 z "},"ẁ":{"ha":979,"x_min":14,"x_max":965,"o":"m 14 660 l 158 660 l 306 169 l 460 619 l 553 619 l 710 169 l 856 660 l 965 660 l 765 0 l 642 0 l 485 435 l 328 0 l 217 0 l 14 660 m 339 986 l 424 1064 l 613 811 l 557 765 l 339 986 z "},"ẃ":{"ha":979,"x_min":14,"x_max":965,"o":"m 14 660 l 158 660 l 306 169 l 460 619 l 553 619 l 710 169 l 856 660 l 965 660 l 765 0 l 642 0 l 485 435 l 328 0 l 217 0 l 14 660 m 456 811 l 644 1064 l 729 986 l 511 765 l 456 811 z "},"ŵ":{"ha":979,"x_min":14,"x_max":965,"o":"m 14 660 l 158 660 l 306 169 l 460 619 l 553 619 l 710 169 l 856 660 l 965 660 l 765 0 l 642 0 l 485 435 l 328 0 l 217 0 l 14 660 m 293 808 l 482 1046 l 556 1046 l 744 808 l 697 764 l 519 939 l 340 764 l 293 808 z "},"ẅ":{"ha":979,"x_min":14,"x_max":965,"o":"m 14 660 l 158 660 l 306 169 l 460 619 l 553 619 l 710 169 l 856 660 l 965 660 l 765 0 l 642 0 l 485 435 l 328 0 l 217 0 l 14 660 m 339 856 l 339 986 l 468 986 l 468 856 l 339 856 m 581 856 l 581 986 l 710 986 l 710 856 l 581 856 z "},"ỳ":{"ha":644,"x_min":11,"x_max":633,"o":"m 24 -193 l 58 -193 q 75 -237 58 -218 q 131 -256 92 -256 q 192 -226 169 -256 q 238 -133 215 -197 l 282 -15 l 11 660 l 156 660 l 351 176 l 514 660 l 633 660 l 314 -194 q 237 -314 281 -281 q 149 -347 193 -347 q 73 -329 99 -347 q 36 -286 47 -311 q 24 -235 25 -261 q 24 -193 24 -208 m 185 986 l 269 1064 l 458 811 l 403 765 l 185 986 z "},"ý":{"ha":644,"x_min":11,"x_max":633,"o":"m 24 -193 l 58 -193 q 75 -237 58 -218 q 131 -256 92 -256 q 192 -226 169 -256 q 238 -133 215 -197 l 282 -15 l 11 660 l 156 660 l 351 176 l 514 660 l 633 660 l 314 -194 q 237 -314 281 -281 q 149 -347 193 -347 q 73 -329 99 -347 q 36 -286 47 -311 q 24 -235 25 -261 q 24 -193 24 -208 m 242 811 l 431 1064 l 515 986 l 297 765 l 242 811 z "},"ŷ":{"ha":644,"x_min":11,"x_max":633,"o":"m 24 -193 l 58 -193 q 75 -237 58 -218 q 131 -256 92 -256 q 192 -226 169 -256 q 238 -133 215 -197 l 282 -15 l 11 660 l 156 660 l 351 176 l 514 660 l 633 660 l 314 -194 q 237 -314 281 -281 q 149 -347 193 -347 q 73 -329 99 -347 q 36 -286 47 -311 q 24 -235 25 -261 q 24 -193 24 -208 m 117 808 l 306 1046 l 379 1046 l 568 808 l 521 764 l 343 939 l 164 764 l 117 808 z "},"ÿ":{"ha":644,"x_min":11,"x_max":633,"o":"m 24 -193 l 58 -193 q 75 -237 58 -218 q 131 -256 92 -256 q 192 -226 169 -256 q 238 -133 215 -197 l 282 -15 l 11 660 l 156 660 l 351 176 l 514 660 l 633 660 l 314 -194 q 237 -314 281 -281 q 149 -347 193 -347 q 73 -329 99 -347 q 36 -286 47 -311 q 24 -235 25 -261 q 24 -193 24 -208 m 157 856 l 157 986 l 286 986 l 286 856 l 157 856 m 399 856 l 399 986 l 528 986 l 528 856 l 399 856 z "},"ź":{"ha":596,"x_min":49,"x_max":547,"o":"m 49 74 l 396 563 l 71 563 l 71 660 l 543 660 l 543 569 l 210 97 l 547 97 l 547 0 l 49 0 l 49 74 m 203 811 l 392 1064 l 476 986 l 258 765 l 203 811 z "},"ž":{"ha":596,"x_min":49,"x_max":547,"o":"m 49 74 l 396 563 l 71 563 l 71 660 l 543 660 l 543 569 l 210 97 l 547 97 l 547 0 l 49 0 l 49 74 m 93 1014 l 143 1053 l 318 878 l 494 1053 l 544 1014 l 356 774 l 282 774 l 93 1014 z "},"ż":{"ha":596,"x_min":49,"x_max":547,"o":"m 49 74 l 396 563 l 71 563 l 71 660 l 543 660 l 543 569 l 210 97 l 547 97 l 547 0 l 49 0 l 49 74 m 240 850 l 240 986 l 389 986 l 389 850 l 240 850 z "},"ə":{"ha":667,"x_min":56,"x_max":611,"o":"m 611 347 q 591 203 611 271 q 533 86 571 136 q 440 8 494 36 q 317 -21 385 -21 q 204 -1 250 -21 q 131 50 158 18 q 90 122 103 82 q 78 203 78 163 q 81 264 78 228 q 86 314 85 300 l 475 314 l 475 336 q 426 515 475 450 q 281 579 376 579 q 154 538 197 579 q 104 429 111 496 l 56 429 q 123 608 56 542 q 311 674 190 674 q 531 591 450 674 q 611 347 611 508 m 308 85 q 414 127 372 85 q 469 243 456 169 l 189 243 q 187 230 188 240 q 186 206 186 219 q 210 124 186 163 q 308 85 233 85 z "},"ŋ":{"ha":746,"x_min":97,"x_max":656,"o":"m 486 -285 q 419 -270 444 -285 q 379 -233 393 -256 q 360 -183 365 -211 q 356 -128 356 -154 l 390 -128 q 407 -176 392 -158 q 458 -193 422 -193 q 513 -161 496 -193 q 531 -60 531 -129 q 529 -15 531 -44 q 526 50 528 15 q 522 122 524 85 q 521 186 521 158 l 521 354 q 492 517 521 465 q 390 568 464 568 q 272 490 311 568 q 232 275 232 413 l 232 0 l 97 0 l 97 660 l 214 667 l 226 461 q 291 617 240 553 q 447 681 342 681 q 612 608 568 681 q 656 417 656 536 l 656 -4 q 617 -215 656 -144 q 486 -285 579 -285 z "},"ð":{"ha":721,"x_min":56,"x_max":665,"o":"m 361 -15 q 229 10 286 -15 q 133 81 172 36 q 75 189 94 126 q 56 322 56 251 q 123 566 56 472 q 310 660 190 660 q 444 619 389 660 q 528 497 499 578 l 532 500 q 469 680 518 601 q 350 814 421 758 l 274 738 l 192 738 l 303 849 q 227 891 267 871 q 146 926 188 911 l 225 986 q 299 954 264 972 q 369 914 335 936 l 439 983 l 519 983 l 417 881 q 597 668 528 797 q 665 360 665 539 q 581 79 665 174 q 361 -15 496 -15 m 364 81 q 483 144 436 81 q 529 317 529 207 q 488 487 529 417 q 358 557 446 557 q 281 538 314 557 q 228 485 249 518 q 199 409 208 453 q 190 317 190 365 q 199 230 190 272 q 228 154 208 188 q 282 101 249 121 q 364 81 315 81 z "},"þ":{"ha":760,"x_min":97,"x_max":704,"o":"m 97 658 l 211 665 l 224 483 q 296 625 243 571 q 442 679 349 679 q 538 659 490 679 q 622 597 585 639 q 681 490 658 556 q 704 336 704 425 q 630 80 704 175 q 442 -15 556 -15 q 314 26 369 -15 q 232 156 258 68 l 232 -335 l 97 -335 l 97 658 m 567 319 q 515 513 567 453 q 399 574 463 574 q 278 510 324 574 q 232 317 232 446 q 283 142 232 204 q 399 81 335 81 q 522 146 476 81 q 567 319 567 211 m 97 979 l 232 986 l 232 0 l 97 0 l 97 979 z "},"`":{"ha":694,"x_min":207,"x_max":481,"o":"m 207 986 l 292 1064 l 481 811 l 425 765 l 207 986 z "},"´":{"ha":694,"x_min":210,"x_max":483,"o":"m 210 811 l 399 1064 l 483 986 l 265 765 l 210 811 z "},"ˆ":{"ha":694,"x_min":122,"x_max":574,"o":"m 122 808 l 311 1046 l 385 1046 l 574 808 l 526 764 l 349 939 l 169 764 l 122 808 z "},"ˇ":{"ha":694,"x_min":135,"x_max":586,"o":"m 135 1014 l 185 1053 l 360 878 l 536 1053 l 586 1014 l 397 774 l 324 774 l 135 1014 z "},"˜":{"ha":694,"x_min":143,"x_max":550,"o":"m 160 807 q 157 958 129 899 q 257 1018 185 1018 q 325 1000 300 1018 q 368 961 350 982 q 403 922 386 940 q 450 904 421 904 q 501 940 492 904 q 500 1019 511 975 l 536 1019 q 538 869 565 931 q 439 808 511 808 q 375 826 399 808 q 334 865 351 844 q 297 904 317 886 q 246 922 278 922 q 194 887 204 922 q 194 807 183 851 l 160 807 z "},"¨":{"ha":694,"x_min":164,"x_max":535,"o":"m 164 856 l 164 986 l 293 986 l 293 856 l 164 856 m 406 856 l 406 986 l 535 986 l 535 856 l 406 856 z "},"¯":{"ha":694,"x_min":156,"x_max":539,"o":"m 156 986 l 539 986 l 539 900 l 156 900 l 156 986 z "},"˘":{"ha":694,"x_min":146,"x_max":547,"o":"m 347 800 q 248 822 288 800 q 185 878 208 844 q 153 953 161 911 q 147 1033 144 994 l 199 1033 q 207 992 200 1015 q 230 949 214 969 q 274 914 246 928 q 347 900 303 900 q 420 914 392 900 q 465 949 449 928 q 488 992 481 969 q 497 1033 494 1015 l 547 1033 q 542 953 550 994 q 510 878 533 911 q 447 822 486 844 q 347 800 407 800 z "},"˚":{"ha":694,"x_min":196,"x_max":499,"o":"m 196 947 q 238 1050 196 1008 q 346 1092 281 1092 q 457 1050 415 1092 q 499 947 499 1008 q 457 845 499 888 q 346 803 415 803 q 238 845 279 803 q 196 947 196 888 m 424 938 q 402 995 424 972 q 347 1018 381 1018 q 291 995 313 1018 q 269 938 269 972 q 291 882 269 904 q 347 860 313 860 q 402 882 381 860 q 424 938 424 904 z "},"˝":{"ha":694,"x_min":136,"x_max":581,"o":"m 136 801 l 251 1060 l 340 1024 l 203 769 l 136 801 m 372 801 l 496 1056 l 581 1014 l 439 769 l 372 801 z "},"˙":{"ha":694,"x_min":274,"x_max":422,"o":"m 274 850 l 274 986 l 422 986 l 422 850 l 274 850 z "},"¸":{"ha":694,"x_min":256,"x_max":475,"o":"m 257 -160 l 290 -160 q 301 -205 289 -190 q 340 -219 313 -219 q 374 -206 361 -219 q 388 -165 388 -192 q 365 -115 388 -128 q 307 -110 343 -103 l 281 -96 l 308 6 l 351 0 l 342 -64 q 437 -81 399 -56 q 475 -165 475 -106 q 442 -249 475 -221 q 360 -276 410 -276 q 274 -242 297 -276 q 257 -160 251 -207 z "},"˛":{"ha":694,"x_min":379,"x_max":610,"o":"m 379 -171 q 397 -91 379 -128 q 441 -22 414 -54 q 501 42 468 11 q 565 103 535 72 l 581 97 q 506 -28 538 42 q 475 -158 475 -97 q 486 -204 475 -187 q 526 -221 497 -221 q 560 -203 549 -221 q 572 -160 572 -186 l 610 -160 q 587 -250 611 -212 q 501 -287 563 -287 q 413 -261 446 -287 q 379 -171 379 -235 z "},"":{"ha":694,"x_min":206,"x_max":378,"o":"m 206 -303 l 269 -76 l 378 -76 l 274 -318 l 206 -303 z "},",":{"ha":353,"x_min":72,"x_max":257,"o":"m 72 -190 q 135 -118 100 -171 q 176 -10 171 -65 q 119 10 140 -10 q 99 65 99 29 q 121 121 99 99 q 175 143 143 143 q 236 118 215 143 q 257 57 257 93 q 240 -42 257 6 q 200 -127 224 -89 q 149 -192 176 -165 q 101 -231 122 -219 l 72 -190 z "},";":{"ha":354,"x_min":72,"x_max":257,"o":"m 97 576 q 119 630 97 606 q 179 654 140 654 q 235 630 214 654 q 256 576 256 606 q 235 521 256 546 q 179 496 214 496 q 119 521 140 496 q 97 576 97 546 m 72 -189 q 135 -117 100 -169 q 176 -8 171 -64 q 119 11 140 -8 q 99 67 99 31 q 121 122 99 100 q 175 143 143 143 q 236 119 215 143 q 257 58 257 94 q 240 -41 257 7 q 200 -126 224 -89 q 149 -191 176 -164 q 101 -229 122 -218 l 72 -189 z "},":":{"ha":353,"x_min":97,"x_max":256,"o":"m 97 578 q 119 631 97 607 q 179 656 140 656 q 235 631 214 656 q 256 578 256 607 q 235 522 256 547 q 179 497 214 497 q 119 522 140 497 q 97 578 97 547 m 97 68 q 119 120 97 96 q 179 144 140 144 q 235 120 214 144 q 256 68 256 96 q 235 11 256 36 q 179 -14 214 -14 q 119 11 140 -14 q 97 68 97 36 z "},".":{"ha":353,"x_min":97,"x_max":256,"o":"m 97 67 q 119 121 97 97 q 178 144 140 144 q 234 121 213 144 q 256 67 256 97 q 235 9 256 32 q 179 -14 214 -14 q 119 9 140 -14 q 97 67 97 32 z "},"…":{"ha":936,"x_min":97,"x_max":839,"o":"m 97 67 q 119 121 97 97 q 178 144 140 144 q 234 121 213 144 q 256 67 256 97 q 235 9 256 32 q 179 -14 214 -14 q 119 9 140 -14 q 97 67 97 32 m 389 67 q 410 121 389 97 q 469 144 432 144 q 526 121 504 144 q 547 67 547 97 q 526 9 547 32 q 471 -14 506 -14 q 410 9 432 -14 q 389 67 389 32 m 681 67 q 702 121 681 97 q 761 144 724 144 q 817 121 796 144 q 839 67 839 97 q 818 9 839 32 q 763 -14 797 -14 q 702 9 724 -14 q 681 67 681 32 z "},"-":{"ha":510,"x_min":83,"x_max":426,"o":"m 83 476 l 426 476 l 426 369 l 83 369 l 83 476 z "},"!":{"ha":408,"x_min":125,"x_max":283,"o":"m 261 267 l 147 267 l 126 958 l 282 958 l 261 267 m 125 61 q 147 113 125 93 q 207 133 168 133 q 263 113 242 133 q 283 61 283 93 q 263 6 283 26 q 207 -14 242 -14 q 147 6 168 -14 q 125 61 125 26 z "},"¡":{"ha":408,"x_min":125,"x_max":283,"o":"m 283 599 q 262 547 283 567 q 201 526 240 526 q 146 547 167 526 q 125 599 125 567 q 146 653 125 633 q 201 674 167 674 q 262 653 240 674 q 283 599 283 633 m 147 393 l 261 393 l 282 -299 l 126 -299 l 147 393 z "},"?":{"ha":689,"x_min":63,"x_max":619,"o":"m 317 401 l 308 267 l 232 267 l 224 451 q 317 461 271 451 q 400 495 364 471 q 458 560 436 519 q 481 665 481 601 q 435 799 481 747 q 300 850 390 850 q 180 807 225 850 q 129 694 135 764 l 64 694 q 81 819 61 767 q 138 905 101 872 q 224 953 174 938 q 332 969 275 969 q 539 898 458 969 q 619 693 619 826 q 589 550 619 606 q 513 463 558 494 q 414 417 467 431 q 317 401 361 404 m 196 61 q 217 113 196 93 q 278 133 239 133 q 333 113 313 133 q 354 61 354 93 q 333 6 354 26 q 278 -14 313 -14 q 217 6 239 -14 q 196 61 196 26 z "},"¿":{"ha":682,"x_min":63,"x_max":618,"o":"m 486 599 q 465 547 486 567 q 404 526 443 526 q 349 547 369 526 q 328 599 328 567 q 349 653 328 633 q 404 674 369 674 q 465 653 443 674 q 486 599 486 633 m 365 258 l 374 393 l 450 393 l 458 208 q 365 199 411 208 q 282 165 318 189 q 224 99 246 140 q 201 -6 201 58 q 247 -139 201 -87 q 382 -190 292 -190 q 502 -147 457 -190 q 553 -35 547 -104 l 618 -35 q 601 -160 621 -107 q 544 -245 581 -212 q 458 -294 508 -278 q 350 -310 407 -310 q 143 -238 224 -310 q 63 -33 63 -167 q 93 110 63 54 q 169 197 124 165 q 268 242 215 229 q 365 258 321 256 z "},"‘":{"ha":267,"x_min":42,"x_max":217,"o":"m 217 944 q 161 882 192 926 q 124 786 131 838 q 180 767 160 786 q 200 713 200 749 q 178 657 200 679 q 124 635 157 635 q 63 660 85 635 q 42 721 42 685 q 56 810 42 767 q 92 888 71 853 q 139 948 114 922 q 186 986 164 974 l 217 944 z "},"’":{"ha":267,"x_min":50,"x_max":225,"o":"m 50 676 q 106 740 75 696 q 143 835 136 783 q 87 854 107 835 q 67 910 67 874 q 88 965 67 943 q 143 986 110 986 q 203 962 182 986 q 225 901 225 938 q 210 813 225 856 q 174 735 196 769 q 128 674 153 700 q 81 635 103 649 l 50 676 z "},"“":{"ha":524,"x_min":42,"x_max":474,"o":"m 217 944 q 161 882 192 926 q 124 786 131 838 q 180 767 160 786 q 200 713 200 749 q 178 657 200 679 q 124 635 157 635 q 63 660 85 635 q 42 721 42 685 q 56 810 42 767 q 92 888 71 853 q 139 948 114 922 q 186 986 164 974 l 217 944 m 474 944 q 418 882 449 926 q 381 786 388 838 q 437 767 417 786 q 457 713 457 749 q 435 657 457 679 q 381 635 414 635 q 320 660 342 635 q 299 721 299 685 q 313 810 299 767 q 349 888 328 853 q 396 948 371 922 q 443 986 421 974 l 474 944 z "},"”":{"ha":524,"x_min":50,"x_max":482,"o":"m 50 676 q 106 740 75 696 q 143 835 136 783 q 87 854 107 835 q 67 910 67 874 q 88 965 67 943 q 143 986 110 986 q 203 962 182 986 q 225 901 225 938 q 210 813 225 856 q 174 735 196 769 q 128 674 153 700 q 81 635 103 649 l 50 676 m 307 676 q 363 740 332 696 q 400 835 393 783 q 344 854 364 835 q 324 910 324 874 q 345 965 324 943 q 400 986 367 986 q 460 962 439 986 q 482 901 482 938 q 467 813 482 856 q 431 735 453 769 q 385 674 410 700 q 338 635 360 649 l 307 676 z "},"‚":{"ha":269,"x_min":69,"x_max":254,"o":"m 69 -190 q 133 -118 97 -171 q 174 -10 168 -65 q 117 10 138 -10 q 96 65 96 29 q 118 121 96 99 q 172 143 140 143 q 233 118 213 143 q 254 57 254 93 q 238 -42 254 6 q 197 -127 221 -89 q 147 -192 174 -165 q 99 -231 119 -219 l 69 -190 z "},"„":{"ha":526,"x_min":69,"x_max":513,"o":"m 69 -190 q 133 -118 97 -171 q 174 -10 168 -65 q 117 10 138 -10 q 96 65 96 29 q 118 121 96 99 q 172 143 140 143 q 233 118 213 143 q 254 57 254 93 q 238 -42 254 6 q 197 -127 221 -89 q 147 -192 174 -165 q 99 -231 119 -219 l 69 -190 m 328 -190 q 391 -118 356 -171 q 432 -10 426 -65 q 375 10 396 -10 q 354 65 354 29 q 376 121 354 99 q 431 143 399 143 q 492 118 471 143 q 513 57 513 93 q 496 -42 513 6 q 456 -127 479 -89 q 405 -192 432 -165 q 357 -231 378 -219 l 328 -190 z "},"'":{"ha":207,"x_min":56,"x_max":151,"o":"m 151 746 l 56 746 l 56 986 l 151 986 l 151 746 z "},"\"":{"ha":408,"x_min":56,"x_max":360,"o":"m 151 746 l 56 746 l 56 986 l 151 986 l 151 746 m 360 746 l 264 746 l 264 986 l 360 986 l 360 746 z "},"‹":{"ha":400,"x_min":63,"x_max":338,"o":"m 338 589 l 176 346 l 338 103 l 217 103 l 63 335 l 63 357 l 217 589 l 338 589 z "},"›":{"ha":400,"x_min":63,"x_max":338,"o":"m 338 335 l 183 103 l 63 103 l 224 346 l 63 589 l 183 589 l 338 357 l 338 335 z "},"«":{"ha":676,"x_min":63,"x_max":614,"o":"m 338 589 l 176 346 l 338 103 l 217 103 l 63 335 l 63 357 l 217 589 l 338 589 m 614 589 l 453 346 l 614 103 l 493 103 l 339 335 l 339 357 l 493 589 l 614 589 z "},"»":{"ha":676,"x_min":63,"x_max":614,"o":"m 614 335 l 460 103 l 339 103 l 500 346 l 339 589 l 460 589 l 614 357 l 614 335 m 338 335 l 183 103 l 63 103 l 224 346 l 63 589 l 183 589 l 338 357 l 338 335 z "},"/":{"ha":615,"x_min":21,"x_max":594,"o":"m 153 -122 l 21 -122 l 463 986 l 594 986 l 153 -122 z "},"\\":{"ha":615,"x_min":21,"x_max":594,"o":"m 153 986 l 594 -122 l 463 -122 l 21 986 l 153 986 z "},"|":{"ha":367,"x_min":125,"x_max":242,"o":"m 242 -212 l 125 -212 l 125 1028 l 242 1028 l 242 -212 z "},"¦":{"ha":367,"x_min":125,"x_max":242,"o":"m 242 579 l 125 579 l 125 1028 l 242 1028 l 242 579 m 242 -212 l 125 -212 l 125 236 l 242 236 l 242 -212 z "},"–":{"ha":786,"x_min":42,"x_max":743,"o":"m 42 476 l 743 476 l 743 369 l 42 369 l 42 476 z "},"_":{"ha":738,"x_min":0,"x_max":736,"o":"m 0 -240 l 736 -240 l 736 -347 l 0 -347 l 0 -240 z "},"—":{"ha":1389,"x_min":42,"x_max":1347,"o":"m 42 456 l 1347 456 l 1347 349 l 42 349 l 42 456 z "},"•":{"ha":538,"x_min":76,"x_max":461,"o":"m 268 276 q 133 329 189 276 q 76 468 76 382 q 133 607 76 554 q 268 660 189 660 q 404 607 347 660 q 461 468 461 554 q 404 329 461 382 q 268 276 347 276 z "},"·":{"ha":325,"x_min":83,"x_max":242,"o":"m 83 485 q 105 539 83 515 q 164 563 126 563 q 220 539 199 563 q 242 485 242 515 q 221 427 242 450 q 165 404 200 404 q 105 427 126 404 q 83 485 83 450 z "},"(":{"ha":450,"x_min":69,"x_max":408,"o":"m 219 375 q 244 148 219 249 q 300 -26 268 47 q 363 -144 332 -99 q 408 -208 394 -190 l 340 -268 q 259 -186 306 -242 q 171 -49 213 -131 q 99 140 129 33 q 69 375 69 247 q 99 611 69 503 q 170 802 128 719 q 259 942 213 885 q 340 1025 306 999 l 408 965 q 363 901 394 947 q 300 780 332 854 q 244 603 268 706 q 219 375 219 501 z "},")":{"ha":450,"x_min":42,"x_max":381,"o":"m 231 382 q 206 609 231 508 q 150 783 182 710 q 87 901 118 856 q 42 965 56 947 l 110 1025 q 191 943 144 999 q 279 806 238 888 q 351 617 321 724 q 381 382 381 510 q 351 146 381 254 q 280 -45 322 38 q 191 -185 238 -128 q 110 -268 144 -242 l 42 -208 q 87 -144 56 -190 q 150 -23 118 -97 q 206 153 182 51 q 231 382 231 256 z "},"[":{"ha":449,"x_min":125,"x_max":407,"o":"m 407 -187 l 407 -260 l 125 -260 l 125 1024 l 407 1024 l 407 951 l 260 951 l 260 -187 l 407 -187 z "},"]":{"ha":449,"x_min":42,"x_max":324,"o":"m 324 1024 l 324 -260 l 42 -260 l 42 -187 l 189 -187 l 189 951 l 42 951 l 42 1024 l 324 1024 z "},"{":{"ha":501,"x_min":104,"x_max":439,"o":"m 331 210 q 328 111 331 154 q 324 31 326 68 q 319 -43 321 -6 q 317 -126 317 -81 q 342 -206 317 -186 q 410 -226 367 -226 l 439 -226 l 439 -294 l 368 -294 q 235 -258 293 -294 q 178 -133 178 -222 q 185 22 178 -60 q 192 210 192 103 q 178 272 192 247 q 148 310 164 296 q 118 329 132 324 q 104 335 104 335 l 104 393 q 118 399 104 393 q 148 418 132 404 q 178 456 164 432 q 192 518 192 481 q 185 707 192 626 q 178 861 178 788 q 235 986 178 950 q 368 1022 293 1022 l 439 1022 l 439 954 l 410 954 q 342 934 367 954 q 317 854 317 914 q 319 771 317 808 q 324 697 321 733 q 328 617 326 660 q 331 518 331 574 q 318 455 331 482 q 288 410 306 428 q 251 381 271 392 q 214 364 231 369 q 251 347 231 358 q 288 318 271 336 q 318 273 306 300 q 331 210 331 246 z "},"}":{"ha":501,"x_min":63,"x_max":397,"o":"m 171 518 q 173 617 171 574 q 178 697 175 660 q 183 771 181 733 q 185 854 185 808 q 160 934 185 914 q 92 954 135 954 l 63 954 l 63 1022 l 133 1022 q 266 986 208 1022 q 324 861 324 950 q 317 706 324 788 q 310 518 310 625 q 324 456 310 481 q 353 418 338 432 q 383 399 369 404 q 397 393 397 393 l 397 335 q 383 329 397 335 q 353 310 369 324 q 324 272 338 296 q 310 210 310 247 q 317 21 310 101 q 324 -133 324 -60 q 266 -258 324 -222 q 133 -294 208 -294 l 63 -294 l 63 -226 l 92 -226 q 160 -206 135 -226 q 185 -126 185 -186 q 183 -43 185 -81 q 178 31 181 -6 q 173 111 175 68 q 171 210 171 154 q 183 273 171 246 q 213 318 196 300 q 251 347 231 336 q 288 364 271 358 q 251 381 271 369 q 213 410 231 392 q 183 455 196 428 q 171 518 171 482 z "},"*":{"ha":671,"x_min":76,"x_max":594,"o":"m 553 515 l 440 438 l 336 650 l 238 435 l 124 511 l 294 682 l 76 699 l 108 828 l 304 735 l 268 958 l 404 958 l 367 735 l 564 828 l 594 699 l 378 682 l 553 515 z "},"†":{"ha":642,"x_min":56,"x_max":586,"o":"m 293 -68 q 271 28 281 -37 q 252 166 261 94 q 236 304 243 238 q 224 404 229 371 l 286 635 l 56 575 l 56 733 l 288 679 l 229 960 l 413 960 l 354 679 l 586 733 l 586 575 l 356 635 l 410 404 q 397 304 404 371 q 381 166 389 238 q 362 28 372 94 q 339 -68 351 -37 l 293 -68 z "},"‡":{"ha":642,"x_min":56,"x_max":586,"o":"m 229 -68 l 288 210 l 56 156 l 56 314 l 285 254 l 228 442 l 285 638 l 56 578 l 56 736 l 288 682 l 229 960 l 413 960 l 354 682 l 586 736 l 586 578 l 357 638 l 414 442 l 357 254 l 586 314 l 586 156 l 354 210 l 413 -68 l 229 -68 z "},"§":{"ha":736,"x_min":92,"x_max":646,"o":"m 171 11 q 219 -87 179 -44 q 340 -131 258 -131 q 456 -101 414 -131 q 497 -14 497 -71 q 441 78 497 49 q 301 139 385 107 q 149 226 206 175 q 92 371 92 276 q 128 488 92 440 q 210 564 165 536 q 129 636 160 594 q 99 740 99 678 q 171 902 99 844 q 365 960 243 960 q 549 898 482 960 q 615 744 615 836 l 557 744 q 508 838 550 800 q 392 876 467 876 q 286 849 325 876 q 247 760 247 821 q 296 674 247 701 q 424 617 344 647 q 583 530 519 581 q 646 381 646 479 q 611 265 646 315 q 531 186 576 214 q 613 113 581 156 q 644 7 644 71 q 567 -158 644 -103 q 367 -212 489 -212 q 181 -149 250 -212 q 113 11 113 -86 l 171 11 m 393 249 q 428 235 411 243 q 461 221 444 228 q 506 272 492 242 q 521 340 521 301 q 474 440 521 407 q 344 503 428 472 q 311 515 328 508 q 279 529 294 522 q 235 479 253 510 q 217 410 217 449 q 263 312 217 344 q 393 249 308 279 z "},"¶":{"ha":822,"x_min":71,"x_max":781,"o":"m 422 -157 l 354 -157 l 354 433 q 149 502 228 433 q 71 696 71 571 q 94 808 71 760 q 155 890 117 857 q 245 941 193 924 q 354 958 297 958 l 781 958 l 781 857 l 697 857 l 697 -157 l 554 -157 l 554 857 l 422 857 l 422 -157 z "},"@":{"ha":1160,"x_min":56,"x_max":1104,"o":"m 929 24 l 983 -46 q 940 -83 969 -60 q 863 -128 910 -106 q 750 -167 815 -150 q 601 -183 685 -183 q 356 -143 460 -183 q 186 -33 253 -103 q 88 136 119 38 q 56 349 56 235 q 91 562 56 457 q 197 747 126 667 q 371 877 267 828 q 613 926 475 926 q 817 892 725 926 q 972 798 908 858 q 1069 652 1035 738 q 1104 464 1104 567 q 1073 286 1104 357 q 996 174 1042 215 q 897 117 950 133 q 800 100 843 100 q 706 130 733 100 q 675 214 678 160 q 603 135 647 165 q 500 104 560 104 q 368 159 418 104 q 318 314 318 214 q 336 436 318 378 q 388 538 354 494 q 469 608 421 582 q 579 635 518 635 q 669 609 636 635 q 717 536 703 583 l 718 542 l 738 618 l 828 618 l 792 407 q 788 385 790 401 q 783 352 786 369 q 778 318 781 335 q 775 294 776 301 q 777 209 767 233 q 822 185 788 185 q 880 198 849 185 q 938 242 911 211 q 984 328 965 274 q 1003 464 1003 382 q 899 736 1003 636 q 610 836 794 836 q 409 794 494 836 q 268 683 324 751 q 185 528 213 615 q 158 350 158 440 q 188 167 158 249 q 274 27 217 85 q 416 -62 331 -31 q 614 -93 501 -93 q 735 -79 682 -93 q 828 -46 789 -65 q 892 -7 867 -26 q 929 24 917 13 m 682 421 q 659 505 682 471 q 589 539 636 539 q 523 518 551 539 q 476 465 494 497 q 449 394 458 433 q 440 321 440 356 q 461 235 440 269 q 531 201 482 201 q 594 221 565 201 q 642 271 622 240 q 672 341 661 301 q 682 421 682 381 z "},"©":{"ha":1074,"x_min":67,"x_max":1007,"o":"m 536 -17 q 345 19 432 -17 q 197 119 258 54 q 101 274 135 183 q 67 475 67 365 q 103 677 67 586 q 201 832 139 768 q 350 931 264 896 q 536 965 436 965 q 723 931 636 965 q 872 832 810 896 q 971 677 935 768 q 1007 475 1007 586 q 971 274 1007 365 q 872 119 935 183 q 723 19 810 54 q 536 -17 636 -17 m 535 74 q 688 103 618 74 q 806 186 757 133 q 882 313 854 239 q 910 475 910 388 q 882 636 910 563 q 806 763 854 710 q 688 845 757 815 q 535 875 618 875 q 383 846 451 875 q 265 764 314 817 q 190 637 217 711 q 164 475 164 563 q 190 315 164 389 q 263 188 215 240 q 379 104 310 135 q 535 74 449 74 m 681 550 q 653 616 679 586 q 569 646 626 646 q 476 599 510 646 q 443 469 443 553 q 483 338 443 381 q 581 294 524 294 q 671 324 639 294 q 708 407 703 354 l 749 407 q 699 272 749 328 q 551 215 650 215 q 463 227 507 215 q 385 267 419 239 q 328 344 350 296 q 307 464 307 392 q 374 665 307 593 q 549 738 440 738 q 634 723 599 738 q 692 686 669 708 q 724 636 714 664 q 735 582 735 608 q 734 567 735 576 q 732 550 733 558 l 681 550 z "},"®":{"ha":793,"x_min":47,"x_max":746,"o":"m 397 296 q 255 323 319 296 q 144 396 190 350 q 73 506 99 442 q 47 642 47 569 q 72 777 47 714 q 143 887 97 840 q 254 960 189 933 q 397 986 319 986 q 540 960 475 986 q 650 887 604 933 q 721 777 696 840 q 746 642 746 714 q 721 506 746 569 q 650 396 696 442 q 540 323 604 350 q 397 296 475 296 m 396 367 q 513 388 463 367 q 598 447 564 410 q 649 535 632 485 q 665 640 665 585 q 647 746 665 696 q 594 833 629 796 q 510 892 560 871 q 396 914 460 914 q 278 892 329 914 q 194 833 228 871 q 144 746 161 796 q 126 640 126 696 q 144 535 126 585 q 194 447 161 485 q 278 388 228 410 q 396 367 329 367 m 519 458 q 465 479 481 458 q 449 551 449 500 q 433 601 449 586 q 385 615 417 615 l 344 615 l 344 463 l 264 463 l 264 826 l 406 826 q 508 803 471 826 q 544 731 544 781 q 522 669 544 690 q 461 640 499 649 q 513 619 496 636 q 531 563 531 601 q 533 511 531 528 q 549 494 535 494 q 558 497 554 494 q 563 500 561 499 l 571 485 q 549 465 563 472 q 519 458 535 458 m 389 774 l 344 774 l 344 663 l 390 663 q 446 674 425 663 q 467 717 467 686 q 446 760 467 747 q 389 774 425 774 z "},"℗":{"ha":1074,"x_min":67,"x_max":1007,"o":"m 536 -17 q 345 19 432 -17 q 197 119 258 54 q 101 274 135 183 q 67 475 67 365 q 103 677 67 586 q 201 832 139 768 q 350 931 264 896 q 536 965 436 965 q 723 931 636 965 q 872 832 810 896 q 971 677 935 768 q 1007 475 1007 586 q 971 274 1007 365 q 872 119 935 183 q 723 19 810 54 q 536 -17 636 -17 m 535 74 q 688 103 618 74 q 806 186 757 133 q 882 313 854 239 q 910 475 910 388 q 882 636 910 563 q 806 763 854 710 q 688 845 757 815 q 535 875 618 875 q 383 846 451 875 q 265 764 314 817 q 190 637 217 711 q 164 475 164 563 q 190 315 164 389 q 263 188 215 240 q 379 104 310 135 q 535 74 449 74 m 369 736 l 578 736 q 723 695 669 736 q 776 575 776 654 q 722 447 776 489 q 579 404 667 404 l 485 404 l 485 218 l 369 218 l 369 736 m 540 657 l 485 657 l 485 482 l 546 482 q 631 500 597 482 q 664 571 664 518 q 631 638 664 618 q 540 657 599 657 z "},"™":{"ha":1169,"x_min":21,"x_max":1113,"o":"m 618 444 l 526 444 l 546 958 l 674 958 l 829 607 l 992 958 l 1093 958 l 1113 444 l 1021 444 l 1006 806 l 842 454 l 789 454 l 633 804 l 618 444 m 306 444 l 189 444 l 189 876 l 21 876 l 21 956 l 463 956 l 463 876 l 306 876 l 306 444 z "},"ª":{"ha":456,"x_min":39,"x_max":432,"o":"m 369 558 q 309 578 335 558 q 282 636 283 597 q 240 581 268 606 q 158 556 211 556 q 69 585 99 556 q 39 658 39 615 q 74 744 39 706 q 200 782 110 782 q 244 778 225 782 q 276 769 263 775 l 276 813 q 259 877 276 851 q 192 903 242 903 q 126 880 144 903 q 103 826 107 857 l 61 826 q 92 924 61 878 q 218 969 122 969 q 338 930 304 969 q 372 828 372 890 l 372 685 q 374 628 372 646 q 390 603 376 611 q 409 600 400 597 q 424 608 418 603 l 432 592 q 408 568 424 578 q 369 558 392 558 m 192 614 q 233 626 217 614 q 258 654 249 638 q 272 690 268 671 q 276 725 276 710 l 276 732 q 254 738 271 733 q 222 742 238 742 q 155 722 176 742 q 133 668 133 701 q 148 627 133 640 q 192 614 163 614 z "},"º":{"ha":460,"x_min":32,"x_max":429,"o":"m 231 556 q 157 567 193 556 q 94 603 121 579 q 49 667 67 628 q 32 760 32 706 q 88 913 32 857 q 232 969 144 969 q 303 957 268 969 q 367 919 339 944 q 412 855 394 894 q 429 761 429 815 q 375 609 429 663 q 231 556 321 556 m 231 626 q 301 658 272 626 q 331 764 331 690 q 302 858 331 825 q 231 892 274 892 q 159 859 188 892 q 131 763 131 826 q 160 659 131 692 q 231 626 190 626 z "},"№":{"ha":1461,"x_min":111,"x_max":1385,"o":"m 828 958 l 828 -7 l 713 -7 l 224 731 l 224 0 l 111 0 l 111 958 l 251 958 l 714 254 l 714 958 l 828 958 m 1161 544 q 1003 603 1061 544 q 944 751 944 661 q 1003 900 944 842 q 1161 958 1061 958 q 1319 900 1261 958 q 1376 751 1376 842 q 1319 603 1376 661 q 1161 544 1261 544 m 1161 622 q 1247 657 1211 622 q 1282 751 1282 692 q 1247 847 1282 811 q 1161 882 1211 882 q 1076 847 1111 882 q 1040 751 1040 811 q 1076 657 1040 692 q 1161 622 1111 622 z "},"#":{"ha":868,"x_min":31,"x_max":839,"o":"m 269 0 l 144 0 l 183 260 l 31 260 l 31 349 l 196 349 l 231 586 l 82 586 l 82 675 l 244 675 l 281 924 l 406 924 l 369 675 l 564 675 l 601 924 l 726 924 l 689 675 l 839 675 l 839 586 l 676 586 l 640 349 l 788 349 l 788 260 l 628 260 l 589 0 l 464 0 l 503 260 l 308 260 l 269 0 m 321 349 l 515 349 l 551 586 l 356 586 l 321 349 z "},"€":{"ha":813,"x_min":29,"x_max":789,"o":"m 608 404 l 589 325 l 319 325 q 398 147 336 208 q 560 86 460 86 q 676 109 629 86 q 749 157 722 132 l 789 104 q 695 24 758 61 q 535 -14 632 -14 q 294 70 390 -14 q 172 325 197 154 l 29 325 l 49 404 l 165 404 q 165 411 165 407 q 165 418 165 415 l 165 481 q 165 503 165 492 q 167 525 165 515 l 61 525 l 81 604 l 175 604 q 306 857 204 769 q 547 944 407 944 q 699 908 639 944 q 785 836 758 872 l 735 779 q 663 824 704 806 q 567 843 621 843 q 406 780 471 843 q 322 604 342 717 l 644 604 l 625 525 l 314 525 q 314 515 314 519 q 314 504 314 510 l 314 404 l 608 404 z "},"$":{"ha":813,"x_min":72,"x_max":726,"o":"m 451 -121 l 364 -121 l 364 -12 q 149 65 226 -6 q 72 264 72 135 l 133 264 q 206 128 140 171 q 364 85 272 86 l 364 419 q 355 422 360 421 q 346 425 350 424 q 172 514 238 456 q 106 688 106 572 q 176 867 106 800 q 364 944 247 935 l 364 1042 l 451 1042 l 451 943 q 633 861 568 931 q 699 683 699 792 l 633 683 q 576 800 629 760 q 451 846 522 840 l 451 535 q 460 533 456 533 q 468 531 464 532 q 656 436 585 499 q 726 256 726 374 q 647 70 726 139 q 451 -11 568 1 l 451 -121 m 257 700 q 285 620 257 653 q 364 565 313 588 l 364 838 q 285 791 314 825 q 257 700 257 757 m 569 240 q 538 327 569 293 q 451 388 507 361 l 451 94 q 536 144 503 108 q 569 240 569 181 z "},"¢":{"ha":792,"x_min":111,"x_max":672,"o":"m 454 0 l 368 0 l 368 138 q 273 165 319 143 q 190 225 226 186 q 133 323 154 264 q 111 464 111 382 q 128 598 111 535 q 179 709 146 661 q 260 788 213 757 q 368 826 308 818 l 368 958 l 454 958 l 454 826 q 601 761 556 815 q 651 649 646 707 q 652 622 653 635 q 650 596 651 608 l 588 596 q 552 682 585 639 q 431 725 519 725 q 352 706 386 725 q 295 652 318 686 q 260 572 272 618 q 249 472 249 525 q 305 292 249 351 q 449 232 361 232 q 567 270 517 232 q 622 379 617 308 l 672 379 q 615 215 672 282 q 454 138 557 149 l 454 0 z "},"£":{"ha":813,"x_min":79,"x_max":761,"o":"m 588 513 l 588 431 l 346 431 q 360 374 354 403 q 365 314 365 344 q 353 242 365 275 q 322 182 340 208 q 279 134 303 156 q 235 96 256 113 q 312 132 268 115 q 404 149 356 149 q 472 140 444 149 q 522 123 500 132 q 567 106 544 114 q 619 97 589 97 q 682 113 656 97 q 729 160 708 129 l 761 132 q 696 32 740 74 q 581 -10 651 -10 q 508 -1 538 -10 q 453 17 479 7 q 396 35 426 26 q 318 43 365 43 q 203 25 264 43 q 110 -8 142 7 l 79 65 q 103 81 79 65 q 156 127 126 97 q 208 200 185 157 q 232 299 232 243 q 226 367 232 335 q 211 431 219 399 l 79 431 l 79 513 l 190 513 q 176 587 182 547 q 171 675 171 626 q 190 777 171 728 q 244 863 208 826 q 335 922 281 900 q 460 944 389 944 q 647 885 574 944 q 729 706 719 826 l 653 706 q 594 794 635 758 q 478 831 553 831 q 351 784 399 831 q 301 654 303 738 q 308 579 301 614 q 322 513 314 544 l 588 513 z "},"ƒ":{"ha":813,"x_min":21,"x_max":765,"o":"m 375 668 q 399 772 383 721 q 443 860 415 822 q 513 922 471 899 q 614 944 554 944 q 725 907 689 944 q 765 836 761 869 l 724 810 q 695 838 715 824 q 639 851 675 851 q 543 791 571 851 q 499 625 515 731 l 489 567 l 647 567 l 647 488 l 476 488 l 414 110 q 389 6 406 57 q 345 -83 372 -44 q 276 -144 318 -121 q 174 -167 233 -167 q 62 -129 99 -167 q 21 -60 25 -92 l 61 -32 q 91 -59 69 -44 q 149 -74 113 -74 q 244 -12 218 -74 q 289 154 271 49 l 344 488 l 217 488 l 217 567 l 358 567 l 375 668 z "},"¥":{"ha":813,"x_min":21,"x_max":793,"o":"m 706 325 l 706 246 l 481 246 l 481 0 l 347 0 l 347 246 l 119 246 l 119 325 l 347 325 l 347 393 l 315 446 l 119 446 l 119 525 l 267 525 l 21 931 l 190 931 l 438 513 l 682 931 l 793 931 l 554 525 l 706 525 l 706 446 l 508 446 l 481 399 l 481 325 l 706 325 z "},"ⁱ":{"ha":233,"x_min":58,"x_max":172,"o":"m 58 1065 l 58 1158 l 172 1158 l 172 1065 l 58 1065 m 64 956 l 165 961 l 165 563 l 64 563 l 64 956 z "},"ⁿ":{"ha":481,"x_min":60,"x_max":426,"o":"m 426 563 l 324 563 l 324 768 q 308 860 324 832 q 251 888 292 888 q 184 844 207 888 q 161 715 161 800 l 161 563 l 60 563 l 60 956 l 147 961 l 158 842 q 198 933 168 896 q 293 969 228 969 q 398 926 369 969 q 426 813 426 883 l 426 563 z "},"⁰":{"ha":517,"x_min":32,"x_max":485,"o":"m 260 554 q 98 622 164 554 q 32 842 32 690 q 96 1059 32 988 q 260 1131 160 1131 q 420 1063 356 1131 q 485 844 485 994 q 422 626 485 697 q 260 554 360 554 m 268 640 q 357 691 324 640 q 390 844 390 742 q 355 999 390 953 q 268 1046 319 1046 q 179 998 213 1046 q 146 842 146 950 q 181 685 146 729 q 268 640 217 640 z "},"¹":{"ha":363,"x_min":31,"x_max":289,"o":"m 226 1128 l 289 1128 l 289 563 l 181 563 l 181 1017 l 50 956 l 31 1004 l 226 1128 z "},"²":{"ha":496,"x_min":54,"x_max":456,"o":"m 456 565 l 57 565 l 57 611 q 162 701 113 658 q 248 782 211 743 q 306 860 285 821 q 328 942 328 900 q 304 1015 328 986 q 231 1044 281 1044 q 138 999 165 1044 q 125 892 111 953 l 65 892 q 56 974 51 931 q 83 1051 60 1017 q 148 1108 106 1086 q 251 1131 190 1131 q 394 1081 344 1131 q 443 953 443 1032 q 424 865 443 906 q 372 789 404 825 q 296 717 339 753 q 204 646 253 682 l 456 646 l 456 565 z "},"³":{"ha":490,"x_min":38,"x_max":444,"o":"m 444 719 q 388 598 444 643 q 240 553 332 553 q 90 597 149 553 q 39 740 32 640 l 96 740 q 128 666 97 693 q 215 639 160 639 q 299 663 267 639 q 331 735 331 688 q 294 800 331 782 q 201 818 257 818 l 149 818 l 149 882 l 197 882 q 281 899 246 882 q 317 963 317 915 q 290 1025 317 1003 q 217 1047 264 1047 q 134 1020 161 1047 q 107 950 107 993 l 54 950 q 103 1085 47 1039 q 243 1131 160 1131 q 375 1092 322 1131 q 428 982 428 1054 q 393 894 428 925 q 311 851 358 864 q 406 811 367 842 q 444 719 444 781 z "},"⁴":{"ha":511,"x_min":26,"x_max":492,"o":"m 492 711 l 396 711 l 396 563 l 290 563 l 290 711 l 26 711 l 26 779 l 293 1124 l 396 1124 l 396 790 l 492 790 l 492 711 m 119 790 l 290 790 l 290 1011 l 119 790 z "},"⁵":{"ha":493,"x_min":50,"x_max":450,"o":"m 450 757 q 397 608 450 664 q 250 553 344 553 q 170 563 208 553 q 104 594 132 572 q 62 649 76 615 q 51 732 47 683 l 108 732 q 140 663 110 688 q 224 638 171 638 q 310 669 279 638 q 340 753 340 701 q 309 831 340 804 q 229 858 278 858 q 151 838 178 858 q 117 808 124 818 l 64 828 l 75 1122 l 414 1122 l 414 1035 l 164 1035 l 154 882 q 201 914 171 899 q 276 929 231 929 q 404 883 358 929 q 450 757 450 838 z "},"⁶":{"ha":500,"x_min":36,"x_max":457,"o":"m 265 1131 q 412 1081 369 1131 q 450 960 454 1031 l 393 960 q 368 1018 390 989 q 285 1047 346 1047 q 179 998 218 1047 q 140 840 140 949 q 140 824 140 835 q 142 801 140 813 q 192 880 151 850 q 297 910 233 910 q 410 868 364 910 q 457 740 457 826 q 400 601 457 649 q 264 553 343 553 q 90 630 144 553 q 36 833 36 707 q 50 949 36 894 q 92 1043 64 1003 q 163 1107 119 1083 q 265 1131 207 1131 m 264 839 q 188 811 214 839 q 161 738 161 783 q 185 667 161 696 q 260 639 210 639 q 333 667 306 639 q 360 739 360 696 q 333 814 360 789 q 264 839 307 839 z "},"⁷":{"ha":458,"x_min":39,"x_max":425,"o":"m 425 1122 l 425 1065 q 264 786 308 908 q 211 563 219 664 l 99 563 q 156 797 106 681 q 317 1038 207 913 l 39 1038 l 39 1122 l 425 1122 z "},"⁸":{"ha":507,"x_min":40,"x_max":465,"o":"m 253 556 q 94 599 149 556 q 40 717 40 642 q 75 812 40 776 q 164 860 110 847 q 84 905 111 872 q 57 989 57 938 q 104 1093 57 1053 q 251 1133 151 1133 q 400 1093 351 1133 q 449 989 449 1053 q 421 905 449 938 q 340 860 393 872 q 431 812 396 847 q 465 717 465 776 q 411 599 465 642 q 253 556 357 556 m 253 888 q 320 910 296 888 q 344 972 344 933 q 321 1030 344 1007 q 253 1053 297 1053 q 185 1030 208 1053 q 161 972 161 1007 q 185 910 161 933 q 253 888 210 888 m 253 636 q 326 660 296 636 q 356 732 356 683 q 326 803 356 779 q 253 828 297 828 q 180 803 210 828 q 150 732 150 779 q 178 660 150 683 q 253 636 207 636 z "},"⁹":{"ha":500,"x_min":44,"x_max":465,"o":"m 236 553 q 90 603 132 553 q 53 724 47 654 l 110 724 q 135 667 113 696 q 218 638 157 638 q 322 686 283 638 q 361 843 361 735 q 361 859 361 849 q 360 879 361 869 q 309 803 349 832 q 206 774 269 774 q 92 815 139 774 q 44 943 44 857 q 101 1083 44 1036 q 239 1131 158 1131 q 412 1054 358 1131 q 465 850 465 978 q 451 735 465 789 q 410 640 438 681 q 338 576 382 600 q 236 553 294 553 m 239 844 q 316 872 290 844 q 342 946 342 900 q 317 1017 342 989 q 243 1046 292 1046 q 169 1017 196 1046 q 143 944 143 988 q 169 870 143 896 q 239 844 196 844 z "},"₀":{"ha":517,"x_min":32,"x_max":485,"o":"m 260 -147 q 98 -79 164 -147 q 32 140 32 -11 q 96 358 32 286 q 260 429 160 429 q 420 361 356 429 q 485 143 485 293 q 422 -76 485 -4 q 260 -147 360 -147 m 268 -61 q 357 -10 324 -61 q 390 143 390 40 q 355 298 390 251 q 268 344 319 344 q 179 297 213 344 q 146 140 146 249 q 181 -17 146 28 q 268 -61 217 -61 z "},"₁":{"ha":363,"x_min":31,"x_max":289,"o":"m 226 426 l 289 426 l 289 -139 l 181 -139 l 181 315 l 50 254 l 31 303 l 226 426 z "},"₂":{"ha":496,"x_min":54,"x_max":456,"o":"m 456 -136 l 57 -136 l 57 -90 q 162 -1 113 -43 q 248 81 211 42 q 306 159 285 119 q 328 240 328 199 q 304 314 328 285 q 231 343 281 343 q 138 297 165 343 q 125 190 111 251 l 65 190 q 56 272 51 229 q 83 350 60 315 q 148 407 106 385 q 251 429 190 429 q 394 380 344 429 q 443 251 443 331 q 424 164 443 204 q 372 88 404 124 q 296 16 339 51 q 204 -56 253 -19 l 456 -56 l 456 -136 z "},"₃":{"ha":490,"x_min":38,"x_max":444,"o":"m 444 18 q 388 -103 444 -58 q 240 -149 332 -149 q 90 -105 149 -149 q 39 39 32 -61 l 96 39 q 128 -35 97 -8 q 215 -62 160 -62 q 299 -38 267 -62 q 331 33 331 -14 q 294 99 331 81 q 201 117 257 117 l 149 117 l 149 181 l 197 181 q 281 197 246 181 q 317 261 317 214 q 290 324 317 301 q 217 346 264 346 q 134 319 161 346 q 107 249 107 292 l 54 249 q 103 383 47 338 q 243 429 160 429 q 375 391 322 429 q 428 281 428 353 q 393 193 428 224 q 311 150 358 163 q 406 110 367 140 q 444 18 444 79 z "},"₄":{"ha":511,"x_min":26,"x_max":492,"o":"m 492 10 l 396 10 l 396 -139 l 290 -139 l 290 10 l 26 10 l 26 78 l 293 422 l 396 422 l 396 89 l 492 89 l 492 10 m 119 89 l 290 89 l 290 310 l 119 89 z "},"₅":{"ha":493,"x_min":50,"x_max":450,"o":"m 450 56 q 397 -93 450 -37 q 250 -149 344 -149 q 170 -139 208 -149 q 104 -108 132 -129 q 62 -52 76 -86 q 51 31 47 -18 l 108 31 q 140 -39 110 -14 q 224 -64 171 -64 q 310 -32 279 -64 q 340 51 340 0 q 309 130 340 103 q 229 157 278 157 q 151 137 178 157 q 117 107 124 117 l 64 126 l 75 421 l 414 421 l 414 333 l 164 333 l 154 181 q 201 213 171 197 q 276 228 231 228 q 404 182 358 228 q 450 56 450 136 z "},"₆":{"ha":500,"x_min":36,"x_max":457,"o":"m 265 429 q 412 379 369 429 q 450 258 454 329 l 393 258 q 368 317 390 288 q 285 346 346 346 q 179 297 218 346 q 140 139 140 247 q 140 122 140 133 q 142 100 140 111 q 192 178 151 149 q 297 208 233 208 q 410 167 364 208 q 457 39 457 125 q 400 -101 457 -53 q 264 -149 343 -149 q 90 -72 144 -149 q 36 132 36 6 q 50 247 36 193 q 92 342 64 301 q 163 406 119 382 q 265 429 207 429 m 264 138 q 188 110 214 138 q 161 36 161 82 q 185 -34 161 -6 q 260 -62 210 -62 q 333 -34 306 -62 q 360 38 360 -6 q 333 113 360 88 q 264 138 307 138 z "},"₇":{"ha":458,"x_min":39,"x_max":425,"o":"m 425 421 l 425 364 q 264 85 308 207 q 211 -139 219 -37 l 99 -139 q 156 95 106 -21 q 317 336 207 211 l 39 336 l 39 421 l 425 421 z "},"₈":{"ha":507,"x_min":40,"x_max":465,"o":"m 253 -146 q 94 -103 149 -146 q 40 15 40 -60 q 75 110 40 75 q 164 158 110 146 q 84 203 111 171 q 57 288 57 236 q 104 392 57 351 q 251 432 151 432 q 400 392 351 432 q 449 288 449 351 q 421 203 449 236 q 340 158 393 171 q 431 110 396 146 q 465 15 465 75 q 411 -103 465 -60 q 253 -146 357 -146 m 253 186 q 320 209 296 186 q 344 271 344 232 q 321 328 344 306 q 253 351 297 351 q 185 328 208 351 q 161 271 161 306 q 185 209 161 232 q 253 186 210 186 m 253 -65 q 326 -42 296 -65 q 356 31 356 -18 q 326 102 356 78 q 253 126 297 126 q 180 102 210 126 q 150 31 150 78 q 178 -42 150 -18 q 253 -65 207 -65 z "},"₉":{"ha":500,"x_min":44,"x_max":465,"o":"m 236 -149 q 90 -98 132 -149 q 53 22 47 -47 l 110 22 q 135 -35 113 -6 q 218 -64 157 -64 q 322 -15 283 -64 q 361 142 361 33 q 361 158 361 147 q 360 178 361 168 q 309 101 349 131 q 206 72 269 72 q 92 114 139 72 q 44 242 44 156 q 101 382 44 335 q 239 429 158 429 q 412 353 358 429 q 465 149 465 276 q 451 33 465 88 q 410 -61 438 -21 q 338 -125 382 -101 q 236 -149 294 -149 m 239 143 q 316 171 290 143 q 342 244 342 199 q 317 316 342 288 q 243 344 292 344 q 169 315 196 344 q 143 243 143 286 q 169 169 143 194 q 239 143 196 143 z "},"⁄":{"ha":624,"x_min":19,"x_max":600,"o":"m 493 931 l 600 931 l 128 0 l 19 0 l 493 931 z "},"½":{"ha":994,"x_min":31,"x_max":954,"o":"m 31 833 l 182 932 l 238 932 l 238 499 l 138 499 l 138 831 l 47 790 l 31 833 m 658 931 l 765 931 l 293 0 l 185 0 l 658 931 m 656 247 q 649 310 646 278 q 669 371 651 343 q 719 417 686 399 q 799 435 751 435 q 907 397 869 435 q 944 300 944 360 q 895 179 944 229 q 775 74 846 129 l 954 74 l 954 0 l 650 0 l 650 44 q 784 167 726 110 q 842 285 842 224 q 825 335 842 315 q 778 354 808 354 q 717 323 735 354 q 711 247 700 292 l 656 247 z "},"¼":{"ha":957,"x_min":31,"x_max":938,"o":"m 31 833 l 182 932 l 238 932 l 238 499 l 138 499 l 138 831 l 47 790 l 31 833 m 658 931 l 765 931 l 293 0 l 185 0 l 658 931 m 769 0 l 769 110 l 583 110 l 583 174 l 778 432 l 867 432 l 867 178 l 938 178 l 938 110 l 867 110 l 867 0 l 769 0 m 649 178 l 769 178 l 769 339 l 649 178 z "},"¾":{"ha":1004,"x_min":39,"x_max":985,"o":"m 51 794 q 90 901 44 867 q 196 936 135 936 q 296 906 256 936 q 336 819 336 875 q 313 754 336 776 q 256 722 289 732 q 322 690 294 713 q 349 621 349 667 q 306 527 349 563 q 192 492 264 492 q 77 528 121 492 q 40 640 33 564 l 90 640 q 109 589 89 608 q 168 569 129 569 q 223 588 203 569 q 243 638 243 606 q 222 681 243 667 q 160 696 200 696 l 125 696 l 125 743 l 157 743 q 214 757 193 743 q 235 801 235 771 q 217 844 235 828 q 169 860 200 860 q 116 842 135 860 q 99 794 97 825 l 51 794 m 706 931 l 813 931 l 340 0 l 232 0 l 706 931 m 818 0 l 818 110 l 631 110 l 631 174 l 825 432 l 914 432 l 914 178 l 985 178 l 985 110 l 914 110 l 914 0 l 818 0 m 696 178 l 818 178 l 818 340 l 696 178 z "},"%":{"ha":903,"x_min":28,"x_max":875,"o":"m 197 621 q 75 667 122 621 q 28 785 28 714 q 75 905 28 860 q 197 950 122 950 q 318 905 271 950 q 365 785 365 860 q 318 667 365 714 q 197 621 271 621 m 622 931 l 729 931 l 257 0 l 149 0 l 622 931 m 197 703 q 256 727 232 703 q 279 785 279 751 q 256 842 279 818 q 197 867 232 867 q 139 842 163 867 q 115 785 115 818 q 139 727 115 751 q 197 703 163 703 m 708 -14 q 586 33 633 -14 q 539 151 539 79 q 586 271 539 226 q 708 315 633 315 q 828 271 781 315 q 875 151 875 226 q 828 33 875 79 q 708 -14 781 -14 m 707 69 q 765 93 742 69 q 789 150 789 117 q 765 208 789 185 q 707 232 742 232 q 649 208 672 232 q 625 150 625 185 q 649 93 625 117 q 707 69 672 69 z "},"‰":{"ha":1313,"x_min":28,"x_max":1285,"o":"m 197 621 q 75 667 122 621 q 28 785 28 714 q 75 905 28 860 q 197 950 122 950 q 318 905 271 950 q 365 785 365 860 q 318 667 365 714 q 197 621 271 621 m 622 931 l 729 931 l 257 0 l 149 0 l 622 931 m 197 703 q 256 727 232 703 q 279 785 279 751 q 256 842 279 818 q 197 867 232 867 q 139 842 163 867 q 115 785 115 818 q 139 727 115 751 q 197 703 163 703 m 708 -14 q 586 33 633 -14 q 539 151 539 79 q 586 271 539 226 q 708 315 633 315 q 828 271 781 315 q 875 151 875 226 q 828 33 875 79 q 708 -14 781 -14 m 1118 -14 q 996 33 1043 -14 q 949 151 949 79 q 996 271 949 226 q 1118 315 1043 315 q 1238 271 1190 315 q 1285 151 1285 226 q 1238 33 1285 79 q 1118 -14 1190 -14 m 707 69 q 765 93 742 69 q 789 150 789 117 q 765 208 789 185 q 707 232 742 232 q 649 208 672 232 q 625 150 625 185 q 649 93 625 117 q 707 69 672 69 m 1117 69 q 1175 93 1151 69 q 1199 150 1199 117 q 1175 208 1199 185 q 1117 232 1151 232 q 1058 208 1082 232 q 1035 150 1035 185 q 1058 93 1035 117 q 1117 69 1082 69 z "},"+":{"ha":813,"x_min":111,"x_max":701,"o":"m 461 131 l 351 131 l 351 378 l 111 378 l 111 488 l 351 488 l 351 735 l 461 735 l 461 488 l 701 488 l 701 378 l 461 378 l 461 131 z "},"−":{"ha":813,"x_min":111,"x_max":701,"o":"m 701 488 l 701 378 l 111 378 l 111 488 l 701 488 z "},"±":{"ha":813,"x_min":111,"x_max":703,"o":"m 461 144 l 351 144 l 351 399 l 111 399 l 111 501 l 351 501 l 351 742 l 461 742 l 461 501 l 701 501 l 701 399 l 461 399 l 461 144 m 703 93 l 703 -10 l 113 -10 l 113 93 l 703 93 z "},"×":{"ha":813,"x_min":160,"x_max":654,"o":"m 160 249 l 329 418 l 160 589 l 238 665 l 407 496 l 576 665 l 654 589 l 485 418 l 654 249 l 576 171 l 407 340 l 238 171 l 160 249 z "},"÷":{"ha":813,"x_min":111,"x_max":701,"o":"m 701 488 l 701 378 l 111 378 l 111 488 l 701 488 z "},"=":{"ha":813,"x_min":111,"x_max":701,"o":"m 701 332 l 701 222 l 111 222 l 111 332 l 701 332 m 701 643 l 701 533 l 111 533 l 111 643 l 701 643 z "},"≠":{"ha":813,"x_min":111,"x_max":701,"o":"m 701 329 l 701 226 l 344 226 l 276 96 l 179 96 l 247 226 l 111 226 l 111 329 l 300 329 l 408 536 l 111 536 l 111 639 l 463 639 l 532 774 l 628 774 l 558 639 l 701 639 l 701 536 l 504 536 l 397 329 l 701 329 z "},"~":{"ha":813,"x_min":108,"x_max":704,"o":"m 274 533 q 352 518 319 533 q 415 483 385 503 q 474 450 444 465 q 542 435 504 435 q 614 463 594 435 q 636 533 633 490 l 704 533 q 666 388 701 447 q 542 329 631 329 q 461 344 496 329 q 396 379 426 360 q 340 413 368 397 q 274 428 311 428 q 200 397 221 428 q 178 331 179 365 l 108 331 q 148 474 111 414 q 274 533 185 533 z "},"≈":{"ha":813,"x_min":115,"x_max":711,"o":"m 185 479 l 115 479 q 158 616 118 563 q 281 669 197 669 q 362 654 328 669 q 426 621 396 639 q 483 592 454 606 q 549 578 513 578 q 617 602 596 578 q 643 669 639 626 l 711 669 q 670 530 708 582 q 549 478 632 478 q 473 491 506 478 q 411 521 440 504 q 350 554 381 539 q 281 569 319 569 q 211 542 233 569 q 185 479 189 514 m 185 178 l 115 178 q 158 315 118 261 q 281 368 197 368 q 358 354 325 368 q 421 322 390 340 q 481 291 451 306 q 549 276 511 276 q 617 301 596 276 q 643 368 639 325 l 711 368 q 670 228 708 281 q 549 176 632 176 q 469 190 503 176 q 404 222 435 204 q 347 254 375 240 q 281 268 318 268 q 211 240 233 268 q 185 178 189 213 z "},"^":{"ha":781,"x_min":110,"x_max":656,"o":"m 346 949 l 419 949 l 656 565 l 592 528 l 382 847 l 172 528 l 110 565 l 346 949 z "},"<":{"ha":799,"x_min":118,"x_max":667,"o":"m 667 238 l 624 144 l 118 386 l 118 472 l 624 714 l 667 621 l 256 429 l 667 238 z "},">":{"ha":799,"x_min":132,"x_max":681,"o":"m 681 386 l 175 144 l 132 238 l 543 429 l 132 621 l 175 714 l 681 472 l 681 386 z "},"≤":{"ha":813,"x_min":111,"x_max":701,"o":"m 678 324 l 642 225 l 125 458 l 125 544 l 642 783 l 678 686 l 257 501 l 678 324 m 701 103 l 701 0 l 111 0 l 111 103 l 701 103 z "},"≥":{"ha":792,"x_min":111,"x_max":701,"o":"m 688 458 l 171 225 l 135 324 l 556 501 l 135 686 l 171 783 l 688 544 l 688 458 m 111 103 l 701 103 l 701 0 l 111 0 l 111 103 z "},"¬":{"ha":813,"x_min":104,"x_max":694,"o":"m 694 244 l 585 244 l 585 506 l 104 506 l 104 615 l 694 615 l 694 244 z "},"¤":{"ha":799,"x_min":100,"x_max":700,"o":"m 100 182 l 186 269 q 156 335 167 300 q 144 410 144 371 q 156 490 144 451 q 190 558 168 528 l 100 650 l 163 713 l 253 619 q 320 651 283 640 q 397 663 357 663 q 477 651 440 663 q 544 618 514 639 l 636 713 l 700 650 l 607 556 q 640 488 629 525 q 651 410 651 450 q 641 336 651 371 q 613 272 631 301 l 700 182 l 636 119 l 551 207 q 481 170 521 183 q 397 157 442 157 q 315 170 354 157 q 246 206 276 183 l 163 119 l 100 182 m 399 260 q 504 304 464 260 q 544 410 544 349 q 504 515 544 471 q 399 558 464 558 q 293 515 333 558 q 253 410 253 471 q 293 304 253 349 q 399 260 333 260 z "},"∞":{"ha":813,"x_min":33,"x_max":779,"o":"m 599 244 q 485 283 532 244 q 400 378 439 321 q 315 282 360 321 q 204 243 271 243 q 123 260 156 243 q 70 302 90 276 q 42 361 50 328 q 33 428 33 394 q 43 497 33 463 q 74 556 53 531 q 130 597 96 581 q 213 613 164 613 q 327 575 281 613 q 413 481 374 538 q 497 574 453 536 q 607 613 540 613 q 689 597 656 613 q 742 556 722 582 q 771 498 763 531 q 779 431 779 465 q 769 364 779 397 q 738 304 760 331 q 682 261 717 278 q 599 244 647 244 m 219 329 q 292 360 261 329 q 346 429 322 390 q 292 498 322 468 q 219 528 261 528 q 149 495 168 528 q 131 429 131 463 q 149 363 131 396 q 219 329 168 329 m 592 331 q 663 363 643 331 q 683 428 683 394 q 663 494 683 461 q 592 526 643 526 q 519 497 550 526 q 467 428 489 467 q 521 360 490 389 q 592 331 551 331 z "},"◊":{"ha":786,"x_min":71,"x_max":715,"o":"m 715 503 l 715 442 l 449 -8 l 338 -8 l 71 442 l 71 503 l 338 956 l 449 956 l 715 503 m 394 122 l 590 475 l 394 826 l 197 475 l 394 122 z "},"∆":{"ha":874,"x_min":35,"x_max":839,"o":"m 35 0 l 35 47 l 371 963 l 519 963 l 839 47 l 839 0 l 35 0 m 663 89 l 418 815 l 157 89 l 663 89 z "},"Ω":{"ha":1025,"x_min":63,"x_max":963,"o":"m 442 149 l 442 0 l 83 0 l 83 103 l 353 103 l 353 115 q 289 138 336 119 q 191 199 242 156 q 101 321 140 243 q 63 522 63 399 q 93 699 63 617 q 181 840 124 781 q 322 935 238 900 q 513 969 407 969 q 707 935 622 969 q 848 840 792 900 q 933 699 904 781 q 963 522 963 617 q 924 322 963 400 q 838 200 886 244 q 742 138 789 156 q 681 115 696 119 l 681 103 l 939 103 l 939 0 l 600 0 l 600 149 q 637 166 601 149 q 714 224 672 183 q 790 331 756 264 q 824 499 824 399 q 805 629 824 567 q 749 739 786 692 q 655 815 713 786 q 521 843 597 843 q 389 817 446 843 q 294 744 332 790 q 237 635 256 699 q 218 499 218 572 q 253 331 218 399 q 328 224 288 264 q 405 166 369 183 q 442 149 440 149 z "},"∂":{"ha":758,"x_min":54,"x_max":704,"o":"m 363 969 q 491 942 429 969 q 600 858 553 914 q 676 714 647 801 q 704 507 704 626 q 681 297 704 393 q 613 132 657 200 q 501 25 568 64 q 349 -14 435 -14 q 220 11 275 -14 q 128 78 165 36 q 73 179 92 121 q 54 304 54 238 q 72 435 54 372 q 124 547 89 499 q 215 625 160 596 q 346 654 271 654 q 490 611 438 654 q 565 517 542 568 l 565 525 q 544 696 565 628 q 488 804 522 764 q 412 861 454 844 q 329 878 369 878 q 251 867 286 878 q 189 842 215 856 l 154 914 q 238 952 185 935 q 363 969 290 969 m 190 304 q 230 146 190 208 q 347 83 269 83 q 483 149 426 83 q 557 368 539 215 q 543 424 553 392 q 513 485 533 457 q 460 534 493 514 q 379 554 428 554 q 293 534 329 554 q 235 480 257 514 q 201 400 213 446 q 190 304 190 354 z "},"∫":{"ha":485,"x_min":-14,"x_max":499,"o":"m 394 947 q 321 910 342 947 q 300 788 300 872 l 300 754 l 321 61 l 321 32 q 276 -159 321 -97 q 129 -221 231 -221 q 38 -195 72 -221 q -14 -142 3 -169 l 28 -101 q 54 -119 39 -111 q 90 -128 69 -128 q 165 -89 144 -128 q 185 33 185 -50 l 185 67 l 161 756 l 161 794 q 210 981 161 921 q 356 1040 258 1040 q 449 1014 415 1040 q 499 963 483 988 l 457 921 q 432 939 447 931 q 394 947 417 947 z "},"√":{"ha":792,"x_min":0,"x_max":799,"o":"m 226 381 l 379 -46 l 665 986 l 799 986 l 449 -201 l 306 -201 l 117 300 l 0 300 l 0 381 l 226 381 z "},"∑":{"ha":889,"x_min":104,"x_max":785,"o":"m 104 -165 l 104 -76 l 444 390 l 113 868 l 113 958 l 785 958 l 785 856 l 272 856 l 572 426 l 572 361 l 264 -62 l 785 -62 l 785 -165 l 104 -165 z "},"∏":{"ha":949,"x_min":111,"x_max":838,"o":"m 111 958 l 838 958 l 838 -181 l 696 -181 l 696 856 l 254 856 l 254 -181 l 111 -181 l 111 958 z "},"π":{"ha":868,"x_min":14,"x_max":824,"o":"m 526 185 l 526 588 l 306 588 l 306 272 q 291 117 306 183 q 250 0 276 51 l 157 0 q 167 99 164 39 q 171 282 171 158 l 171 588 l 14 588 l 14 660 l 824 660 l 824 588 l 661 588 l 661 183 q 674 109 661 140 q 729 78 686 78 q 771 92 756 78 q 788 140 786 106 l 822 140 q 790 26 822 67 q 686 -14 757 -14 q 567 34 607 -14 q 526 185 526 82 z "},"µ":{"ha":806,"x_min":97,"x_max":789,"o":"m 232 -347 l 97 -347 l 97 660 l 232 667 l 232 313 q 263 151 232 201 q 368 100 293 100 q 484 178 447 100 q 521 393 521 256 l 521 660 l 656 667 l 656 178 q 665 106 656 133 q 711 78 675 78 q 744 93 733 78 q 754 129 754 108 l 789 129 q 762 28 789 69 q 664 -14 735 -14 q 560 35 593 -14 q 528 164 528 83 l 528 169 q 473 39 511 92 q 365 -14 435 -14 q 285 6 318 -14 q 232 63 251 26 l 232 -347 z "},"°":{"ha":543,"x_min":56,"x_max":488,"o":"m 272 544 q 114 603 172 544 q 56 751 56 661 q 114 900 56 842 q 272 958 172 958 q 430 900 372 958 q 488 751 488 842 q 430 603 488 661 q 272 544 372 544 m 272 622 q 358 657 322 622 q 393 751 393 692 q 358 847 393 811 q 272 882 322 882 q 187 847 222 882 q 151 751 151 811 q 187 657 151 692 q 272 622 222 622 z "},"℮":{"ha":1057,"x_min":69,"x_max":985,"o":"m 985 390 l 251 390 l 251 131 q 365 62 299 88 q 528 36 432 36 q 749 77 661 36 q 900 203 836 118 l 935 174 q 783 46 881 99 q 528 -7 686 -7 q 334 27 419 -7 q 190 119 249 61 q 101 254 132 176 q 69 418 69 332 q 102 583 69 506 q 194 718 135 661 q 339 809 254 775 q 528 843 424 843 q 715 809 631 843 q 860 718 800 775 q 952 583 919 661 q 985 418 985 506 l 985 390 m 528 800 q 369 775 438 800 q 251 703 300 750 l 251 429 l 804 429 l 804 703 q 685 774 756 749 q 528 800 615 800 z "},"ℓ":{"ha":607,"x_min":21,"x_max":557,"o":"m 528 136 q 479 26 522 67 q 360 -14 436 -14 q 217 49 263 -14 q 171 260 171 111 l 171 286 q 111 258 142 272 q 46 229 81 243 l 21 296 q 100 330 63 313 q 171 365 138 347 l 171 686 q 230 908 171 840 q 385 976 289 976 q 509 924 461 976 q 557 772 557 872 q 500 558 557 660 q 303 363 443 456 l 303 240 q 324 117 303 156 q 401 79 346 79 q 463 93 440 79 q 496 136 486 107 l 528 136 m 303 726 l 303 449 q 445 609 406 526 q 485 775 485 692 q 460 866 485 836 q 399 896 435 896 q 332 860 361 896 q 303 726 303 824 z "},"&":{"ha":1003,"x_min":49,"x_max":979,"o":"m 979 172 q 934 36 979 86 q 797 -14 889 -14 q 713 1 754 -14 q 629 53 672 15 q 518 3 578 21 q 394 -14 458 -14 q 256 5 319 -14 q 147 60 193 24 q 74 152 100 97 q 49 278 49 207 q 72 399 49 349 q 134 483 96 449 q 222 540 172 518 q 321 578 271 563 q 292 667 303 624 q 281 744 281 710 q 301 847 281 804 q 356 917 321 890 q 437 957 390 944 q 535 969 483 969 q 631 954 590 969 q 697 913 671 939 q 737 855 724 888 q 750 788 750 822 q 727 695 750 733 q 667 631 704 657 q 581 588 629 604 q 481 558 532 571 q 529 462 503 511 q 582 361 556 413 q 631 272 608 311 q 672 201 653 232 q 743 315 715 247 q 776 471 771 382 l 847 471 q 814 281 847 367 q 724 131 781 194 q 776 89 750 101 q 835 76 803 76 q 897 99 872 76 q 924 172 922 121 l 979 172 m 421 756 q 430 690 421 725 q 454 617 439 656 q 593 672 533 639 q 653 779 653 706 q 626 858 653 826 q 543 889 599 889 q 453 856 486 889 q 421 756 421 822 m 446 317 q 393 419 419 368 q 344 521 367 471 q 237 442 276 493 q 197 306 197 392 q 215 212 197 251 q 263 147 233 172 q 332 110 292 122 q 415 97 372 97 q 491 105 454 97 q 563 126 528 113 q 506 209 536 161 q 446 317 476 257 z "},"ﬁ":{"ha":771,"x_min":21,"x_max":668,"o":"m 128 0 l 128 586 q 128 590 128 588 q 128 594 128 593 l 21 594 l 21 646 l 124 660 l 125 660 q 118 723 122 696 q 114 789 114 750 q 124 863 114 828 q 155 926 133 899 q 212 969 176 953 q 296 986 247 986 q 397 956 364 986 q 440 886 431 925 q 444 856 443 872 q 443 821 444 839 l 403 821 q 379 874 400 853 q 319 894 358 894 q 247 863 267 894 q 228 789 228 832 q 237 727 229 754 q 251 660 244 700 l 526 660 l 661 667 l 661 0 l 526 0 l 526 594 l 260 594 q 262 558 261 578 q 263 515 263 538 l 263 0 l 128 0 m 533 850 l 533 986 l 668 986 l 668 850 l 533 850 z "},"ﬂ":{"ha":782,"x_min":21,"x_max":678,"o":"m 128 0 l 128 586 q 128 590 128 588 q 128 594 128 593 l 21 594 l 21 646 l 124 660 l 124 660 q 116 723 121 696 q 111 789 111 750 q 122 863 111 828 q 157 926 133 899 q 217 969 181 953 q 303 986 254 986 q 406 956 371 986 q 450 886 440 925 q 453 856 453 872 q 453 821 454 839 l 411 821 q 387 874 408 853 q 328 894 365 894 q 252 863 276 894 q 228 789 228 832 q 237 727 229 754 q 251 660 244 700 l 419 660 l 419 594 l 260 594 q 262 558 261 578 q 263 515 263 538 l 263 0 l 128 0 m 543 979 l 678 986 l 678 0 l 543 0 l 543 979 z "},"←":{"ha":976,"x_min":49,"x_max":907,"o":"m 374 688 l 444 621 l 231 417 l 907 417 l 907 314 l 231 314 l 444 110 l 374 40 l 49 364 l 374 688 z "},"→":{"ha":976,"x_min":69,"x_max":928,"o":"m 69 417 l 746 417 l 532 621 l 603 688 l 928 364 l 603 40 l 532 110 l 746 314 l 69 314 l 69 417 z "},"↑":{"ha":800,"x_min":76,"x_max":724,"o":"m 453 0 l 349 0 l 349 788 l 144 574 l 76 644 l 400 969 l 724 644 l 656 574 l 453 786 l 453 0 z "},"↓":{"ha":800,"x_min":76,"x_max":724,"o":"m 347 958 l 451 958 l 451 171 l 656 385 l 724 314 l 400 -11 l 76 314 l 144 385 l 347 172 l 347 958 z "},"↖":{"ha":863,"x_min":125,"x_max":796,"o":"m 125 660 l 583 660 l 583 561 l 292 568 l 796 64 l 724 -11 l 218 494 l 225 203 l 125 203 l 125 660 z "},"↗":{"ha":863,"x_min":67,"x_max":738,"o":"m 67 64 l 571 568 l 279 561 l 279 660 l 738 660 l 738 203 l 638 203 l 644 494 l 139 -11 l 67 64 z "},"↙":{"ha":863,"x_min":125,"x_max":796,"o":"m 125 0 l 125 457 l 225 457 l 218 165 l 724 671 l 796 596 l 292 92 l 583 99 l 583 0 l 125 0 z "},"↘":{"ha":863,"x_min":67,"x_max":738,"o":"m 67 596 l 139 671 l 644 165 l 638 457 l 738 457 l 738 0 l 279 0 l 279 99 l 571 92 l 67 596 z "}}}
